<svg width="262" height="123" viewBox="0 0 262 123" fill="none" xmlns="http://www.w3.org/2000/svg">
<path d="M47.104 49.6304C53.504 49.6304 64.4373 40.2971 69.104 35.6304C70.4373 35.6304 76.604 36.2304 90.604 38.6304C108.104 41.6303 115.104 49.6304 116.604 35.6304C118.104 21.6304 119.604 22.1304 133.604 20.1304C147.604 18.1304 146.604 8.13042 147.104 1.63042C147.604 -4.86958 170.604 10.1304 192.604 10.6304C214.604 11.1304 251.604 37.6304 258.104 40.6304C264.604 43.6304 261.604 58.1304 247.604 57.1304C233.604 56.1304 200.104 101.13 192.604 104.63C185.104 108.13 170.104 129.63 152.604 120.63C135.104 111.63 50.104 93.1304 39.104 88.1304C28.104 83.1304 18.604 100.13 4.10401 104.63C-10.396 109.13 17.604 88.6304 25.104 71.6304C32.604 54.6304 39.104 49.6304 47.104 49.6304Z" fill="#74B97F" style="mix-blend-mode:darken"/>
</svg>
