<svg width="170" height="303" viewBox="0 0 170 303" fill="none" xmlns="http://www.w3.org/2000/svg">
<path d="M2.66667 217.324C2.66667 209.824 15.1667 52.8241 16.6667 43.3241C16.6667 28.824 66.6667 26.8241 87.1667 26.8241C107.667 26.8241 101.667 15.3241 103.667 7.8241C105.667 0.324103 140.167 -0.675897 150.167 0.324103C160.167 1.3241 157.167 10.3241 153.167 18.8241C149.167 27.3241 152.667 26.3241 163.667 26.8241C174.667 27.3241 166.667 43.3241 166.167 54.3241C165.667 65.3241 156.667 117.824 157.167 134.324C157.667 150.824 144.667 249.324 143.167 277.324C141.667 305.324 132.667 304.324 126.667 301.324C120.667 298.324 8.66667 268.324 2.66667 266.824C-3.33333 265.324 2.66667 224.824 2.66667 217.324Z" fill="#749801"/>
</svg>
