<svg width="78" height="237" viewBox="0 0 78 237" fill="none" xmlns="http://www.w3.org/2000/svg">
<path d="M-2.50462e-07 73L3.8147e-06 166L44 166L44 73L-2.50462e-07 73Z" fill="#010302"/>
<path d="M34 144L34 237L78 237L78 144L34 144Z" fill="#010302"/>
<path d="M7.62939e-06 166L78 166L78 122L3.78279e-06 122L7.62939e-06 166Z" fill="#010302"/>
<path d="M7.62939e-06 237L78 237L78 193L3.78279e-06 193L7.62939e-06 237Z" fill="#010302"/>
<path d="M46 23C46 10.2975 35.7026 2.25409e-06 23 2.80934e-06C10.2975 3.36458e-06 2.25409e-06 10.2975 2.80934e-06 23C3.36458e-06 35.7025 10.2975 46 23 46C35.7026 46 46 35.7025 46 23Z" fill="#010302"/>
</svg>
