<svg width="306" height="262" viewBox="0 0 306 262" fill="none" xmlns="http://www.w3.org/2000/svg">
<g opacity="0.69" style="mix-blend-mode:multiply">
<path d="M32.1304 16.4799C26.2804 20.8699 21.7704 23.1299 22.0204 26.5899C22.1704 28.5599 23.8104 30.1199 26.8204 32.0799C35.8504 37.9499 41.5504 37.5999 47.6804 40.0999C56.4504 43.6799 61.6104 52.8799 64.2304 61.9799C66.8504 71.0799 67.6304 80.6999 71.1104 89.5099C74.5904 98.3199 81.7504 106.62 91.1804 107.57C78.3604 115.02 63.9304 119.67 49.1804 121.1C38.9004 122.1 28.3104 121.6 18.5204 124.9C8.73036 128.2 -0.349642 136.75 0.0103579 147.07C0.420358 158.79 11.9704 166.53 22.2204 172.24C73.4404 200.8 124.66 229.37 175.88 257.93C179.31 259.84 183.1 261.82 186.97 261.16C191.59 260.36 194.77 256.03 196.56 251.7C198.35 247.37 199.32 242.62 202 238.77C206.47 232.37 214.6 229.86 222.13 227.77C244.07 221.68 246.18 222.07 260.36 217.16C273.03 212.78 275.33 210.38 283.26 209.98C292.55 209.52 300.35 212.25 305.64 214.77C298.34 188.32 295.42 166.71 294.16 151.09C292.96 136.29 292.96 122.94 283.21 112.44C276.09 104.77 267.88 102.96 258.9 100.12C233.68 92.1299 235.96 86.6299 196.72 67.4499C158.83 48.9299 162.8 57.0399 131.68 40.7299C91.7004 19.7799 71.7104 9.29991 71.3504 8.99991C67.2304 5.56991 59.1304 -1.60009 50.8404 0.309906C44.5404 1.75991 44.9404 6.8699 32.1504 16.4799H32.1304Z" fill="#359946"/>
</g>
</svg>
