<svg width="327" height="194" viewBox="0 0 327 194" fill="none" xmlns="http://www.w3.org/2000/svg">
<path d="M29.324 89C26.524 99.8 37.1574 129.167 42.824 142.5C30.4907 151.333 4.72405 170.1 0.324049 174.5C-5.17595 180 60.8241 183.5 85.3241 183C104.924 182.6 213.157 189.833 264.824 193.5C278.324 180 304.624 150.9 301.824 142.5C298.324 132 288.824 54.5 289.324 51C289.724 48.2 314.491 15.8333 326.824 0L89.3241 34C79.1574 41.6667 55.624 59 42.824 67C26.824 77 32.824 75.5 29.324 89Z" fill="#74B97F" style="mix-blend-mode:darken"/>
</svg>
