<svg width="218" height="149" viewBox="0 0 218 149" fill="none" xmlns="http://www.w3.org/2000/svg">
<g opacity="0.69" style="mix-blend-mode:multiply">
<path d="M205.83 12.3853C211.4 16.4953 217.21 21.7253 217.61 28.6353C217.88 33.3353 215.48 37.8653 212.22 41.2553C208.96 44.6553 204.88 47.1253 200.95 49.7053C167.11 71.9353 141.47 104.255 114.72 134.655C108.99 141.165 102.15 148.115 93.48 148.305C85.34 148.485 77.76 142.485 69.7 143.625C65.55 144.205 61.8201 146.645 57.6501 147.105C52.0201 147.725 46.67 144.655 42.07 141.355C30.06 132.745 19.71 121.615 12.94 108.485C7.88005 98.6653 4.89005 87.9353 1.93005 77.2853C0.260047 71.2553 -1.33995 64.4653 1.77005 59.0353C3.92005 55.2653 7.91005 52.9953 11.71 50.8953C20.32 46.1453 21.58 46.1553 29.05 41.3353C36.51 36.5353 36.92 34.6453 40.39 34.2253C46.68 33.4553 51.78 38.8653 56.47 43.2153C63.27 49.5153 81.37 66.3053 96.46 66.7153C101.82 66.8653 109.19 61.5153 123.73 50.8053C147.18 33.5253 157.78 23.6453 167.93 15.5553C173.1 11.4253 181.93 1.05528 188.59 0.0552762C194.47 -0.824724 201.33 9.04528 205.85 12.3753L205.83 12.3853Z" fill="#359946"/>
</g>
</svg>
