<svg width="262" height="287" viewBox="0 0 262 287" fill="none" xmlns="http://www.w3.org/2000/svg">
<path d="M0 252.881V280.572C0.000256249 283.886 2.68645 286.572 6 286.572C9.31355 286.572 11.9997 283.886 12 280.572V252.881C11.9998 249.567 9.3136 246.881 6 246.881C2.6864 246.881 0.000179529 249.567 0 252.881Z" fill="white"/>
<path d="M0 197.5V211.346C0.000216733 214.659 2.68643 217.346 6 217.346C9.31357 217.346 11.9998 214.659 12 211.346V197.5C12 195.979 12.2405 194.527 12.6807 193.171C13.7041 190.019 11.9788 186.634 8.82715 185.61C5.67544 184.587 2.29101 186.313 1.26758 189.465C0.443458 192.003 0 194.706 0 197.5Z" fill="white"/>
<path d="M45.5498 177.5C45.5498 174.186 42.8635 171.5 39.5498 171.5H26C23.2055 171.5 20.5029 171.943 17.9648 172.768C14.8131 173.791 13.0869 177.175 14.1104 180.327C15.1338 183.479 18.5192 185.204 21.6709 184.181C23.0266 183.74 24.4793 183.5 26 183.5H39.5498C42.8635 183.5 45.5498 180.814 45.5498 177.5Z" fill="white"/>
<path d="M113.3 177.5C113.3 174.186 110.614 171.5 107.3 171.5H80.2002C76.8865 171.5 74.2002 174.186 74.2002 177.5C74.2002 180.814 76.8865 183.5 80.2002 183.5H107.3C110.614 183.5 113.3 180.814 113.3 177.5Z" fill="white"/>
<path d="M173.39 174.673C172.366 171.521 168.981 169.796 165.829 170.819C164.473 171.26 163.021 171.5 161.5 171.5H147.95C144.636 171.5 141.95 174.186 141.95 177.5C141.95 180.814 144.636 183.5 147.95 183.5H161.5C164.294 183.5 166.997 183.057 169.535 182.232C172.687 181.209 174.413 177.825 173.39 174.673Z" fill="white"/>
<path d="M175.5 144.35V157.5C175.5 159.021 175.26 160.473 174.819 161.829C173.796 164.981 175.521 168.366 178.673 169.39C181.825 170.413 185.209 168.687 186.232 165.535C187.057 162.997 187.5 160.294 187.5 157.5V144.35C187.5 141.036 184.814 138.35 181.5 138.35C178.186 138.35 175.5 141.036 175.5 144.35Z" fill="white"/>
<path d="M175.5 78.5996V104.9C175.5 108.214 178.186 110.9 181.5 110.9C184.814 110.9 187.5 108.214 187.5 104.9V78.5996C187.5 75.2861 184.814 72.5996 181.5 72.5996C178.186 72.5996 175.5 75.2861 175.5 78.5996Z" fill="white"/>
<path d="M175.5 26V39.1504C175.5 42.4639 178.186 45.1504 181.5 45.1504C184.814 45.1504 187.5 42.4639 187.5 39.1504V26C187.5 24.4793 187.74 23.0266 188.181 21.6709C189.204 18.5192 187.479 15.1338 184.327 14.1104C181.175 13.0869 177.791 14.8131 176.768 17.9648C175.943 20.5029 175.5 23.2055 175.5 26Z" fill="white"/>
<path d="M219.3 6C219.3 2.68629 216.614 0 213.3 0H201.5C198.706 0 196.003 0.443457 193.465 1.26758C190.313 2.29101 188.587 5.67544 189.61 8.82715C190.634 11.9788 194.019 13.7041 197.171 12.6807C198.527 12.2405 199.979 12 201.5 12H213.3C216.614 12 219.3 9.31371 219.3 6Z" fill="white"/>
<path d="M278.3 6C278.3 2.68629 275.614 0 272.3 0H248.7C245.386 0 242.7 2.68629 242.7 6C242.7 9.31371 245.386 12 248.7 12H272.3C275.614 12 278.3 9.31371 278.3 6Z" fill="white"/>
<path d="M337.3 6C337.3 2.68629 334.614 0 331.3 0H307.7C304.386 0 301.7 2.68629 301.7 6C301.7 9.31371 304.386 12 307.7 12H331.3C334.614 12 337.3 9.31371 337.3 6Z" fill="white"/>
<path d="M384.5 6C384.5 2.68629 381.814 0 378.5 0H366.7C363.386 0 360.7 2.68629 360.7 6C360.7 9.31371 363.386 12 366.7 12H378.5C381.814 12 384.5 9.31371 384.5 6Z" fill="white"/>
</svg>
