<svg width="262" height="751" viewBox="0 0 262 751" fill="none" xmlns="http://www.w3.org/2000/svg">
<path d="M337.771 735.872C339.427 733.002 343.097 732.019 345.967 733.676L356 739.469C358.87 741.126 359.853 744.795 358.196 747.665C356.539 750.535 352.87 751.518 350 749.861L339.967 744.068C337.097 742.411 336.114 738.742 337.771 735.872ZM287.604 706.908C289.26 704.039 292.93 703.055 295.8 704.712L315.866 716.298C318.736 717.955 319.719 721.624 318.062 724.494C316.406 727.364 312.736 728.346 309.866 726.689L289.8 715.104C286.93 713.448 285.947 709.778 287.604 706.908ZM237.438 677.944C239.094 675.075 242.764 674.091 245.634 675.748L265.7 687.334C268.57 688.991 269.553 692.661 267.896 695.53C266.24 698.4 262.57 699.383 259.7 697.727L239.634 686.141C236.764 684.484 235.781 680.814 237.438 677.944ZM186.5 640.453V628.871C186.5 625.557 189.186 622.871 192.5 622.871C195.814 622.871 198.5 625.557 198.5 628.871V640.453C198.5 645.455 201.168 650.076 205.5 652.577L215.533 658.37C218.403 660.027 219.386 663.697 217.729 666.566C216.073 669.436 212.403 670.419 209.533 668.763L199.5 662.97C191.456 658.325 186.5 649.742 186.5 640.453ZM186.5 594.125V570.961C186.5 567.647 189.186 564.961 192.5 564.961C195.814 564.961 198.5 567.647 198.5 570.961V594.125C198.5 597.439 195.814 600.125 192.5 600.125C189.186 600.125 186.5 597.439 186.5 594.125ZM186.5 536.215V513.051C186.5 509.737 189.186 507.051 192.5 507.051C195.814 507.051 198.5 509.737 198.5 513.051V536.215C198.5 539.529 195.814 542.215 192.5 542.215C189.186 542.215 186.5 539.529 186.5 536.215ZM186.5 478.305V466.723C186.5 461.721 183.832 457.099 179.5 454.599L168.4 448.189C165.531 446.533 164.547 442.864 166.204 439.994C167.861 437.124 171.531 436.141 174.4 437.798L185.5 444.206C193.544 448.85 198.5 457.434 198.5 466.723V478.305C198.5 481.618 195.814 484.305 192.5 484.305C189.186 484.305 186.5 481.618 186.5 478.305ZM110.704 407.951C112.361 405.081 116.031 404.098 118.9 405.755L141.1 418.572C143.969 420.229 144.953 423.898 143.296 426.768C141.639 429.637 137.969 430.621 135.1 428.964L112.9 416.146C110.031 414.49 109.047 410.821 110.704 407.951ZM55.2041 375.908C56.861 373.038 60.5306 372.055 63.4004 373.712L85.5996 386.529C88.4693 388.186 89.4526 391.855 87.7959 394.725C86.139 397.594 82.4694 398.578 79.5996 396.921L57.4004 384.104C54.5307 382.447 53.5474 378.778 55.2041 375.908ZM0 335.953V322.107C0.000143914 318.794 2.68638 316.107 6 316.107C9.31362 316.107 11.9999 318.794 12 322.107V335.953C12 340.955 14.6685 345.576 19 348.077L30.0996 354.486C32.9693 356.143 33.9526 359.812 32.2959 362.682C30.639 365.551 26.9694 366.535 24.0996 364.878L13 358.47C4.95561 353.825 4.90546e-05 345.242 0 335.953ZM0 280.572V252.881C0.000179529 249.567 2.6864 246.881 6 246.881C9.3136 246.881 11.9998 249.567 12 252.881V280.572C11.9997 283.886 9.31355 286.572 6 286.572C2.68645 286.572 0.000256249 283.886 0 280.572ZM0 211.346V197.5C7.8744e-09 194.706 0.443458 192.003 1.26758 189.465C2.29101 186.313 5.67544 184.587 8.82715 185.61C11.9788 186.634 13.7041 190.019 12.6807 193.171C12.2405 194.527 12 195.979 12 197.5V211.346C11.9998 214.659 9.31357 217.346 6 217.346C2.68643 217.346 0.000216733 214.659 0 211.346ZM39.5498 171.5C42.8635 171.5 45.5498 174.186 45.5498 177.5C45.5498 180.814 42.8635 183.5 39.5498 183.5H26C24.4793 183.5 23.0266 183.74 21.6709 184.181C18.5192 185.204 15.1338 183.479 14.1104 180.327C13.0869 177.175 14.8131 173.791 17.9648 172.768C20.5029 171.943 23.2055 171.5 26 171.5H39.5498ZM107.3 171.5C110.614 171.5 113.3 174.186 113.3 177.5C113.3 180.814 110.614 183.5 107.3 183.5H80.2002C76.8865 183.5 74.2002 180.814 74.2002 177.5C74.2002 174.186 76.8865 171.5 80.2002 171.5H107.3ZM165.829 170.819C168.981 169.796 172.366 171.521 173.39 174.673C174.413 177.825 172.687 181.209 169.535 182.232C166.997 183.057 164.294 183.5 161.5 183.5H147.95C144.636 183.5 141.95 180.814 141.95 177.5C141.95 174.186 144.636 171.5 147.95 171.5H161.5C163.021 171.5 164.473 171.26 165.829 170.819ZM175.5 157.5V144.35C175.5 141.036 178.186 138.35 181.5 138.35C184.814 138.35 187.5 141.036 187.5 144.35V157.5C187.5 160.294 187.057 162.997 186.232 165.535C185.209 168.687 181.825 170.413 178.673 169.39C175.521 168.366 173.796 164.981 174.819 161.829C175.26 160.473 175.5 159.021 175.5 157.5ZM175.5 104.9V78.5996C175.5 75.2861 178.186 72.5996 181.5 72.5996C184.814 72.5996 187.5 75.2861 187.5 78.5996V104.9C187.5 108.214 184.814 110.9 181.5 110.9C178.186 110.9 175.5 108.214 175.5 104.9ZM175.5 39.1504V26C175.5 23.2055 175.943 20.5029 176.768 17.9648C177.791 14.8131 181.175 13.0869 184.327 14.1104C187.479 15.1338 189.204 18.5192 188.181 21.6709C187.74 23.0266 187.5 24.4793 187.5 26V39.1504C187.5 42.4639 184.814 45.1504 181.5 45.1504C178.186 45.1504 175.5 42.4639 175.5 39.1504ZM213.3 0C216.614 0 219.3 2.68629 219.3 6C219.3 9.31371 216.614 12 213.3 12H201.5C199.979 12 198.527 12.2405 197.171 12.6807C194.019 13.7041 190.634 11.9788 189.61 8.82715C188.587 5.67544 190.313 2.29101 193.465 1.26758C196.003 0.443457 198.706 4.22064e-07 201.5 0H213.3ZM272.3 0C275.614 0 278.3 2.68629 278.3 6C278.3 9.31371 275.614 12 272.3 12H248.7C245.386 12 242.7 9.31371 242.7 6C242.7 2.68629 245.386 0 248.7 0H272.3ZM331.3 0C334.614 0 337.3 2.68629 337.3 6C337.3 9.31371 334.614 12 331.3 12H307.7C304.386 12 301.7 9.31371 301.7 6C301.7 2.68629 304.386 0 307.7 0H331.3ZM378.5 0C381.814 0 384.5 2.68629 384.5 6C384.5 9.31371 381.814 12 378.5 12H366.7C363.386 12 360.7 9.31371 360.7 6C360.7 2.68629 363.386 0 366.7 0H378.5Z" fill="#010302"/>
</svg>
