<svg width="213" height="281" viewBox="0 0 213 281" fill="none" xmlns="http://www.w3.org/2000/svg">
<g clip-path="url(#clip0_2_129)">
<path d="M204.569 50.386C205.661 51.6187 205.837 53.3034 206.339 54.6686C206.938 56.3111 207.695 56.4348 207.33 58.7582C207.103 60.2008 206.318 59.9246 205.597 60.515C197.174 67.3988 189.084 74.8576 180.626 81.7691C179.69 82.5332 178.073 82.7783 179.414 84.066C180.582 85.1876 182.375 86.3153 183.64 87.4992C189.847 93.2731 195.86 99.4148 202.039 105.244C203.186 106.324 204.944 107.688 205.016 109.269C205.058 110.135 204.847 112.673 204.723 113.561C204.393 115.85 202.909 116.33 201.508 117.601C189.828 128.186 177.98 138.34 166.612 149.354C153.609 161.958 140.431 174.444 127.81 187.408C122.494 192.866 117.115 198.165 111.577 203.422C105.9 208.804 99.4855 213.299 93.8432 218.751C93.1848 219.389 92.7356 220.777 91.5695 220.792C90.7018 220.801 87.5055 218.517 86.7202 217.825C86.1989 217.368 85.9898 216.751 85.4964 216.357C84.8153 215.817 80.8488 213.666 79.9597 213.293C74.7854 211.158 70.993 214.242 66.4141 215.836C62.9244 217.048 58.1911 217.499 54.9327 215.506C53.4321 214.586 52.3609 213.049 51.0685 212.114C49.0673 210.668 47.9967 209.546 46.2311 207.815C37.6951 199.451 28.6533 191.699 19.8471 183.682C16.3997 180.546 15.7436 178.078 15.2649 173.475C14.8074 169.114 15.822 165.125 15.6909 160.896C15.596 157.679 14.5663 155.988 12.1548 153.995C11.2722 153.268 10.3 152.985 9.63945 152.209C9.49033 149.901 9.6605 147.578 9.59467 145.262C9.55805 143.944 8.91749 142.586 9.5124 141.178C10.1073 139.769 12.4316 139.086 13.5896 138.266C14.3732 137.711 15.1701 136.801 16.0507 136.155C24.316 130.124 33.8655 124.161 41.5468 117.563C42.247 116.965 43.6257 115.174 44.2223 114.868C44.9644 114.486 45.5622 115.04 45.1676 115.81C44.8908 116.351 41.6044 118.97 40.8625 119.568C34.075 125.048 26.0438 129.727 18.9992 135.069C16.621 136.875 14.4445 139 11.8507 140.557C11.1998 141.619 13.6534 143.918 14.7764 142.938C19.0335 139.597 23.8469 136.955 28.1945 133.78C34.4836 129.18 40.6265 124.297 46.7696 119.566C47.4282 119.059 50.8273 117.584 50.6596 116.773C49.6306 115.644 48.1515 115.182 46.9216 114.31C33.7474 104.975 21.5498 94.1758 8.92289 84.0566C6.78944 82.347 1.68294 79.1232 0.541277 76.8505C-0.36372 75.0351 0.348375 73.0648 0.588555 71.1576C0.897404 68.7372 0.69462 67.7113 2.13514 65.4626C3.16013 63.8594 3.74355 64.1012 5.0612 63.2811C19.4652 54.2877 34.697 46.5412 49.6576 38.5038C61.6497 32.0587 73.6487 25.558 85.8289 19.5494C96.8437 14.1111 107.915 9.35916 118.986 4.30213C120.769 3.48827 122.683 2.43153 124.445 1.69398C125.264 1.35303 127.893 0.281388 128.601 0.197154C134.458 -0.449261 140.51 3.69541 145.241 6.67016C163.249 17.9741 180.942 31.962 197.78 44.9527C199.732 46.4615 203.047 48.6755 204.562 50.3929L204.569 50.386ZM128.963 1.34073C125.597 1.73391 118.96 5.71669 115.506 7.24024C107.098 10.9621 98.6836 14.3927 90.4155 18.4611C65.958 30.4923 41.8142 43.4591 18.1502 56.98C13.767 59.4825 8.71708 61.785 4.6468 64.717C2.78155 66.058 1.76535 68.9371 1.94211 71.1626C2.21091 74.6361 7.16448 77.7007 9.62484 79.8744C16.1163 85.5994 22.9561 92.2045 29.9323 97.1868C37.0614 102.28 44.5924 106.852 51.7354 111.925C60.0318 117.82 68.099 123.605 76.6587 129.182C81.2095 132.15 85.9974 135.804 91.1299 137.814C96.6513 139.977 100.611 137.308 105.112 134.473C111.103 130.692 116.594 126.073 122.085 121.606C134.738 111.305 148.372 102.327 161.407 92.6486C170.678 85.7637 179.712 78.463 188.913 71.5018C192.518 68.7715 195.927 64.835 199.289 61.7237C200.593 60.5153 204.608 57.8122 204.925 56.0713C205.31 53.9282 204.183 51.9328 202.778 50.4371C197.335 44.6066 188.539 38.9613 182.07 34.0683C168.603 23.9019 155.143 13.4858 140.505 4.97127C136.663 2.73717 133.801 0.779004 128.977 1.34071L128.963 1.34073ZM193.831 69.3035C196.777 66.7753 199.605 63.8381 202.648 61.3236C204.132 60.0942 206.387 59.5639 205.863 57.0199C203.743 59.651 200.927 61.5758 198.474 63.8745C195.424 66.7287 193.15 69.1936 189.76 71.8195C179.998 79.3986 170.395 87.241 160.369 94.5709C150.703 101.644 140.863 108.55 131.323 115.789C123.12 122.014 115.786 128.57 107.194 134.4C100.731 138.785 95.8915 142.529 87.8953 137.819C83.2059 135.059 78.7864 131.675 74.2285 128.644C60.4437 119.456 47.0123 109.844 33.3175 100.503C29.3362 97.784 26.6261 95.6869 22.9497 92.5997C16.6324 87.2766 10.2249 82.0369 3.96996 76.6444C3.20547 75.9868 2.55877 75.1834 1.80813 74.505C0.42893 75.9631 3.26426 78.2333 4.36238 79.2025C5.98873 80.6424 7.92692 81.7352 9.60868 83.0918C19.2058 90.8092 28.477 98.8115 38.2612 106.3C45.1476 111.567 52.2352 116.778 59.2949 121.808C62.1785 123.857 65.5892 125.634 68.5074 127.64C74.8442 131.986 79.2089 135.869 86.2733 139.43C92.2194 142.424 93.9711 144.141 100.707 141.371C103.468 140.237 105.687 138.625 108.093 136.93C119.098 129.19 129.705 120.583 140.049 111.907C149.02 104.385 158.882 98.0677 167.992 90.656C176.616 83.6402 185.345 76.5757 193.817 69.3105L193.831 69.3035ZM194.409 99.2921C188.731 94.4673 183.621 89.0247 178.075 84.0402C177.422 83.7014 176.723 85.0338 176.196 85.402C176.835 86.2956 177.884 86.8418 178.628 87.5342C180.366 89.1542 182.256 90.7255 184.008 92.3663C188.943 97.0049 193.178 102.428 198.14 106.99C198.731 107.53 200.677 109.247 201.247 109.544C202.087 109.973 203.939 108.584 203.084 107.69L194.409 99.2921ZM200.43 111.279C201.283 110.439 199.018 109.187 198.539 108.737C193.485 103.974 188.772 98.7941 184.01 93.7045L175.663 86.4706C174.045 86.1263 174.824 87.0959 175.401 87.8093C178.189 91.3138 181.921 94.5951 185.098 97.7316C189.769 102.35 194.427 106.815 199.486 111.024C199.653 111.259 200.333 111.383 200.437 111.279L200.43 111.279ZM189.563 103.605C184.864 98.6403 179.776 93.9117 174.986 89.0233C174.569 88.594 174.067 87.3882 173.249 87.7985C172.874 87.9863 172.223 88.9302 171.766 89.2915C170.22 90.5072 168.354 91.3905 167.086 92.9594C167.017 93.2784 167.281 93.4237 167.475 93.5967C169.06 95.0506 171.248 96.1846 172.971 97.5065C175.084 99.1259 177.238 100.794 179.316 102.448C181.151 103.915 182.868 105.799 184.633 107.357C185.474 107.709 187.208 107.18 188.131 106.929C188.665 106.782 189.116 106.359 189.602 106.247C190.427 106.065 192.177 106.514 191.141 105.128C190.765 104.63 190.084 104.138 189.577 103.605L189.563 103.605ZM165.185 94.1409C164.894 94.3979 166.034 95.4155 166.257 95.6232C168.522 97.7001 171.315 99.381 173.657 101.388C175.485 102.953 180.296 108.139 182.559 108.351C183.038 108.392 183.198 108.336 183.482 107.955C181.098 105.746 178.742 103.593 176.205 101.53C173.696 99.4955 169.533 96.0345 166.776 94.5754C166.282 94.3127 165.755 94.1193 165.185 94.1478L165.185 94.1409ZM172.909 102.27C170.358 100.055 167.294 98.0209 164.64 95.8891C163.882 95.4949 163.148 96.0715 162.572 96.4953C162.392 96.6273 162.107 96.4266 162.233 96.9604C164.075 99.024 166.188 100.72 168.293 102.457C170.552 104.319 172.776 106.244 175.021 108.085C176.126 108.991 179.064 110.846 180.418 111.017C181.64 111.168 185.491 110.08 186.635 109.469C186.989 109.281 187.259 109.038 187.516 108.739C185.662 108.555 183.77 110.18 181.86 109.566C180.679 109.186 177.941 107.082 176.899 106.196C175.537 105.04 174.195 103.385 172.902 102.263L172.909 102.27ZM195.599 116.119C195.662 116.043 195.73 115.634 195.987 115.307C196.596 114.544 197.693 114.376 197.476 113.44C196.352 113.407 195.767 112.27 194.878 111.599C194.134 111.039 192.793 110.139 191.898 110.002C191.238 109.899 189.212 110.13 188.531 110.277C186.464 110.724 184.314 112.044 182.003 112.353C177.443 112.963 173.361 107.768 170.178 105.138C168.302 103.587 166.058 102.114 164.112 100.452C163.333 99.7878 161.741 97.7238 160.748 97.7253C160.255 97.726 158.488 99.4828 157.905 99.8997C142.63 110.933 128.73 122.977 113.739 134.224C107.062 139.233 98.4874 147.255 89.6863 142.733C82.9413 139.262 76.9588 135.103 70.7609 130.757C66.8907 128.038 62.9028 125.541 59.0257 122.877C57.9279 122.122 54.7234 118.944 53.7794 119.001C52.898 119.058 52.3648 119.995 51.72 120.467C43.3994 126.609 35.3359 132.993 27.0082 139.037C24.3525 140.969 21.3288 142.776 18.7217 144.728C16.3295 146.514 18.8024 147.786 20.4634 149.136C21.4154 149.911 22.6728 150.603 23.5555 151.413C25.9604 153.621 28.6591 157.431 31.7916 158.758C33.5905 159.525 33.762 158.165 34.9892 157.179C43.42 150.406 52.644 144.95 61.4295 138.724C63.7802 137.057 65.97 134.543 68.3417 133.001C68.9381 132.611 69.5134 132.049 70.3048 132.145C70.3889 132.679 70.2781 132.866 69.9107 133.22C64.9824 138.012 58.6501 141.481 53.0333 145.372C47.4165 149.263 42.0778 153.473 36.8711 157.703C35.5676 158.766 33.0698 159.435 35.1202 161.332C40.7918 166.559 46.9831 171.113 52.8973 176.069C56.4764 179.066 59.6745 182.584 63.2605 185.588C69.7029 190.987 76.5058 196.06 83.0589 201.258C85.7691 203.404 89.0489 205.846 91.9045 207.728C92.4256 208.067 92.6001 208.747 93.3844 208.669C93.9882 208.606 94.7362 207.482 95.277 207.044C101.683 201.938 106.742 196.411 112.593 190.766C133.145 170.974 154.622 152.415 175.418 132.915L183.085 126.053C183.52 124.395 181.645 124.113 180.651 123.38C177.761 121.228 173.715 117.052 170.914 114.442C167.362 111.14 161.601 106.281 158.867 102.436C158.7 102.201 157.97 101.307 158.171 101.12C159.642 100.847 159.929 102.358 160.722 103.266C166.917 110.392 174.865 115.504 180.775 122.173C181.157 122.609 182.164 122.941 182.331 123.19C182.463 123.384 182.304 123.766 182.561 123.939C182.894 124.167 183.804 124.207 184.2 124.664C186.087 123.802 187.625 121.74 189.261 120.42C190.572 119.365 191.965 118.503 193.422 117.724C190.379 120.835 186.941 123.752 183.766 126.745C177.707 132.44 171.42 138.079 165.494 143.947C164.995 144.44 164.655 144.926 164.073 145.482C163.879 145.669 163.275 145.892 163.755 146.238C166.022 144.771 167.803 142.744 169.793 140.987C178.687 133.16 186.984 125.173 196.24 117.713C197.849 116.421 199.921 114.185 201.606 113.129C202.272 112.712 202.918 113.023 203.298 112.135C203.506 111.649 203.92 109.977 202.962 110.187C202.817 110.222 202.061 111.145 201.735 111.381C199.641 112.924 197.707 114.577 195.571 116.105L195.599 116.119ZM188.057 108.607L193.034 108.599C194.145 108.598 196.927 112.65 198.461 112.821C198.739 112.856 199.558 112.681 199.356 112.217L193.247 107.018L191.498 107.603L188.057 108.6L188.057 108.607ZM203.391 113.958C202.822 113.813 202.669 114.133 202.309 114.355C198.897 116.51 194.564 120.434 191.431 123.101C183.167 130.144 175.445 137.761 167.272 144.901C162.572 149.013 158.003 153.139 153.414 157.382C139.1 170.619 124.688 183.939 111.145 197.882C106.557 202.604 101.651 208.2 96.7912 212.554C95.3771 213.818 95.0721 214.138 93.8386 215.519C93.3049 216.116 92.2709 216.284 92.4879 217.525C92.9808 217.587 93.2862 217.538 93.7092 217.267C95.117 216.37 97.5213 213.385 99.213 212.024C117.752 197.137 132.644 180.01 149.939 163.849C157.946 156.37 165.611 148.454 173.562 140.982C182.261 132.808 191.67 125.16 200.418 117.041C201.444 116.09 203.019 115.512 203.377 113.958L203.391 113.958ZM52.5632 117.935C51.3202 117.618 51.1269 118.374 50.3919 118.854C41.1549 124.906 32.676 132.026 23.8006 138.494C21.8591 139.912 18.9528 141.4 17.2476 142.962C16.8108 143.365 16.4502 143.601 16.5762 144.302L20.259 142.209C29.3364 136.24 37.7534 129.495 46.3648 122.888C48.2577 121.436 49.9768 119.818 52.0296 118.595C52.3764 118.386 52.7099 118.642 52.5562 117.928L52.5632 117.935ZM10.9241 142.972C10.2547 145.677 12.2705 147.65 14.154 149.284C22.4453 156.469 31.1457 163.328 39.7143 170.215C48.9917 177.676 57.5068 185.964 66.5277 193.655C72.2961 198.576 78.1973 204.17 84.5058 208.19C85.3187 208.702 86.3677 209.324 87.0904 209.899C88.0216 210.646 90.3303 213.514 91.2882 213.498C92.482 213.469 92.3604 210.98 92.2135 210.148C92.0245 209.08 88.4954 207.033 87.5086 206.251C85.4794 204.638 83.6164 202.748 81.705 201.038C80.0022 199.515 77.4325 198.534 75.6674 197.136C74.493 196.202 73.4567 194.782 72.303 193.785C67.9454 190.026 63.1718 186.601 58.8349 182.8C45.0668 170.741 31.056 158.897 16.8514 147.401C15.8576 146.598 14.753 145.92 13.7592 145.124C12.8558 144.404 12.1876 143.108 10.931 142.985L10.9241 142.972ZM162.035 147.592C161.348 147.767 160.593 148.482 160.024 148.941C157.937 150.622 155.746 152.31 153.979 154.316C155.617 154.085 156.704 152.364 157.876 151.364C159.276 150.169 160.976 149.223 162.035 147.592ZM21.019 182.89C21.7697 183.575 23.013 184.156 23.7567 184.855C33.029 193.544 41.9477 202.559 51.7535 210.602C53.3797 211.938 56.737 215.206 58.7503 215.431C64.818 216.109 69.171 211.887 74.9033 211.123C78.6717 210.625 84.3609 213.543 87.2519 215.924C88.0233 216.554 89.442 218.403 90.0811 218.742C91.1717 219.316 90.9665 216.647 90.8754 216.064C90.6231 214.408 88.018 212.934 86.7185 211.889C85.8081 211.156 84.6188 209.521 83.4315 209.266C82.8343 209.135 82.2099 209.296 81.6266 209.192C76.0097 208.216 73.2176 206.986 67.4871 209.109C64.8648 210.077 60.4966 213.446 57.711 211.904C55.5783 210.728 53.617 208.047 51.8932 206.434C44.6436 199.663 37.2694 193.045 29.5348 186.871C28.1102 185.736 21.9366 179.012 21.3237 177.612C19.6314 173.732 19.6616 170.653 19.8152 166.458C19.9287 163.379 20.8118 159.682 19.683 156.66C19.4809 156.113 18.4581 154.478 18.0687 153.979C16.4901 151.971 13.5174 150.658 11.8347 148.642C11.425 148.553 10.9678 149.198 10.9198 149.58C10.5903 152.16 15.598 154.26 16.5181 156.88C17.3057 159.118 17.0618 163.265 16.8709 165.672C16.7073 167.724 16.4652 168.279 16.6142 170.505C16.9551 175.858 16.8 179.013 21.019 182.904L21.019 182.89ZM151.027 157.274C150.527 157.164 150.388 157.546 150.09 157.81C137.709 168.755 125.536 179.826 113.711 191.305C112.366 192.61 111.084 194.082 109.684 195.339C107.889 196.958 107.819 197.138 106.33 198.971C105.173 200.394 103.024 202.394 101.63 203.679C99.1625 205.957 96.4306 207.999 93.8168 210.111C93.3872 210.638 93.5 211.782 93.6952 212.42C94.0849 213.078 95.5893 211.821 95.9914 211.474C96.7748 210.8 97.204 209.96 97.8624 209.315C111.995 195.378 125.982 181.163 140.553 167.621C143.797 164.607 147.597 161.523 150.493 158.211C150.757 157.913 151.138 157.773 151.027 157.274ZM26.3049 180.552L23.946 176.596C21.6828 171.559 23.2782 166.023 22.7779 160.816C22.7004 160.026 22.4065 158.445 21.6979 157.996C21.1737 160.285 21.5104 162.76 21.4514 165.124C21.3594 168.737 20.7184 171.872 22.1327 175.448C22.9827 177.61 24.5327 179.099 26.3049 180.545L26.3049 180.552ZM24.393 159.337C23.9156 160.412 24.674 161.625 24.6477 162.665C24.6347 163.247 23.9045 167.083 24.8069 167.116C26.5687 166.226 27.6491 164.567 28.688 162.95C27.3124 162.127 26.408 160.742 25.1988 159.731C24.9278 159.51 24.851 159.218 24.393 159.33L24.393 159.337ZM29.9465 164.467C28.4628 165.655 26.8332 166.718 25.6067 168.19C25.3711 168.475 24.5188 169.509 24.4567 169.724C24.0906 170.952 24.9635 174.605 25.4097 175.928C27.4662 182.062 40.4461 191.425 45.423 196.223C47.0287 197.767 48.3431 199.526 49.9904 201.063C52.6734 203.562 55.9317 205.548 58.476 208.158C58.9974 208.691 59.3463 209.981 59.6798 210.181C60.84 210.901 63.5095 208.886 64.6472 208.413C68.4695 206.812 72.8898 205.939 77.0069 206.543C77.9302 206.681 79.0561 207.622 79.846 206.657C78.1357 204.767 75.9888 203.348 74.0637 201.694C72.8057 200.607 71.5617 199.548 70.2968 198.475C57.4605 187.573 45.4904 175.65 31.9057 165.657C31.4818 165.345 30.3559 164.369 29.9535 164.46L29.9465 164.467ZM27.6469 182.159C27.7155 181.597 27.0623 181.106 26.576 180.815C26.5074 181.377 27.1605 181.868 27.6469 182.159ZM32.2274 186.444C31.1077 184.969 29.6414 183.82 28.189 182.692L29.3857 184.583L32.2204 186.444L32.2274 186.444ZM55.1083 207.359C54.9133 206.922 54.517 206.472 54.0313 206.556C54.2263 206.992 54.6226 207.443 55.1083 207.359Z" fill="#010302"/>
<path d="M195.599 116.126C194.636 117.32 194.643 117.105 193.45 117.738C194.427 116.738 194.656 116.8 195.599 116.126Z" fill="#010302"/>
<path d="M7.96776 205.659C6.41781 204.247 4.87753 204.713 4.58234 202.19C4.16062 198.578 4.27613 192.067 5.12484 188.571C5.24906 188.071 5.76912 187.703 5.81033 187.405C5.86536 187.058 5.51075 186.643 5.63499 186.157C5.86969 185.255 8.53937 183.386 9.20476 182.72C10.889 181.025 12.2951 178.957 14.1115 177.415L15.5413 177.364C16.1947 177.987 13.5111 179.822 13.2131 180.141C12.7765 180.606 12.3473 181.453 11.8968 181.911C10.9819 182.849 7.73004 185.315 7.52342 186.432C7.4821 186.661 7.44768 186.855 7.61455 187.049C9.8173 188.682 11.9508 190.426 14.0843 192.143C19.4492 196.469 24.959 200.212 29.832 205.149C37.0685 212.474 43.5842 220.557 50.8346 227.952C55.5895 232.792 60.2126 237.715 65.1199 242.416C73.9128 250.842 82.4569 259.983 92.5525 266.846C93.0875 267.206 93.5957 268.239 94.2895 268.023C94.5462 267.946 94.9477 267.134 95.2526 266.822C100.34 261.538 105.642 256.399 110.827 251.218C120.697 241.365 130.95 231.927 141.035 222.302C144.674 218.829 148.487 215.613 152.182 212.217C166.358 199.168 178.852 184.332 192.465 170.805C196.61 166.687 201.04 162.846 204.948 158.562C206.556 156.799 208.08 154.89 209.646 153.05C209.91 152.737 210.908 151.592 211.262 151.675L212.04 152.235C211.09 153.193 211.917 153.4 212.057 154.128C212.273 155.286 212.04 157.373 212.063 158.691C212.1 160.369 212.47 161.595 212.008 163.461C211.283 166.423 208.918 167.709 207.387 169.854C205.198 172.922 202.598 175.006 199.985 177.77C187.371 191.052 174.055 203.456 160.517 215.7C153.709 221.86 147.721 228.123 141.317 234.665C134.22 241.914 127.115 249.122 120.115 256.461C115.818 260.967 111.438 265.349 107.217 269.897C105.616 271.626 104.537 274.262 103.206 275.554C98.763 279.866 94.6637 281.966 88.8903 278.314C86.9588 277.096 84.8254 275.435 82.9077 274.086C77.1197 270.003 71.9403 264.359 64.1949 265.126C60.7456 265.471 56.646 267.335 53.2027 266.994C45.8647 266.269 37.4095 256.213 32.0508 251.333C26.7128 246.473 21.0005 241.912 15.7527 236.996C13.8552 235.217 11.1847 231.768 10.6188 229.231C9.96906 226.34 10.4832 221.908 10.7565 218.871C10.9545 216.617 11.8383 213.35 11.5296 211.104C11.4243 210.32 10.9858 209.496 10.5823 208.824C10.123 208.055 8.60723 206.261 7.9539 205.673L7.96776 205.659ZM210.71 154.248C210.252 154.138 210.176 154.422 209.906 154.651C206.349 157.624 202.858 162.427 199.309 165.823C183.983 180.462 170.019 196.625 154.742 211.278C141.787 223.701 128.122 235.335 115.529 248.119C109.991 253.737 104.182 259.452 98.8946 265.346C97.8135 266.548 95.8791 268.055 95.3886 269.63C94.7875 271.544 95.9229 274.302 95.5441 276.362C93.49 276.733 94.3332 274.222 94.1645 272.766C94.0801 272.031 93.5764 269.258 93.2356 268.856C87.7259 265.161 82.8812 260.62 78.0297 256.113C64.9973 244.004 52.5748 231.271 40.4779 218.148C37.85 215.295 35.2082 212.429 32.6497 209.582C26.6079 202.851 20.014 198.25 13.0091 192.678C10.966 191.052 8.84672 189.508 6.81748 187.861C5.78434 188.625 6.43089 189.325 6.42512 190.136C6.42663 191.176 5.94311 192.806 5.88221 193.895C5.76741 196.1 5.79967 199.206 6.22621 201.355C6.65274 203.504 7.79106 203.475 9.1324 204.631C10.9116 206.168 12.5258 208.8 12.8346 211.15C13.0241 212.579 12.2208 213.911 12.098 215.374C11.9138 217.593 11.7297 219.875 11.5663 222.087C11.0901 228.731 13.018 232.292 17.6334 236.723C24.0004 242.829 31.2504 249.85 38.1022 255.221C43.3697 259.353 45.654 264.55 53.2423 265.607C55.4015 265.909 57.1075 264.838 59.1545 264.385C70.0141 261.998 75.095 266.684 83.523 272.393C88.9773 276.088 93.018 281.504 99.827 276.467C102.081 274.8 102.183 273.891 103.596 271.906C105.993 268.547 111.491 264.073 114.478 260.754C122.455 251.881 131.07 243.437 139.436 234.924C144.593 229.674 149.534 224.439 154.886 219.466C170.157 205.278 185.949 191.45 200.122 176.292C202.665 173.571 204.432 171.287 206.698 168.364C207.709 167.066 210.718 164.212 210.715 162.444L210.703 154.255L210.71 154.248Z" fill="#010302"/>
<path d="M68.0483 227.511C68.3672 227.184 72.4882 230.562 73.0234 230.998C76.7761 234.065 80.0089 237.631 83.526 240.919C83.8318 241.21 86.8194 243.196 87.0903 243.272C87.7291 243.444 89.2561 243.387 89.964 243.302C92.8511 242.958 95.257 241.076 98.3178 240.898C102.593 240.642 106.323 242.024 109.492 244.772C110.472 245.623 110.647 246.885 109.203 246.409C108.251 246.098 107.062 244.567 106.242 243.993C104.345 242.657 100.603 242.073 98.3197 242.243C95.3492 242.462 92.6522 244.602 89.6887 244.911C88.9669 244.989 86.607 245.082 86.086 244.82C85.7179 244.633 85.5086 243.94 85.1472 243.608C80.3235 239.156 75.1462 234.941 70.1977 230.607C69.871 230.316 67.9804 228.496 67.9038 228.322C67.848 228.198 68.0206 227.546 68.0484 227.518L68.0483 227.511Z" fill="#010302"/>
<path d="M127.959 194.12C129.659 194.145 130.217 195.864 131.988 196.403C135.085 197.348 135.66 196.453 138.241 195.638C141.911 194.474 147.554 194.536 150.903 196.555C152.216 197.344 156.893 200.79 157.692 201.857C158.325 202.695 158.125 203.5 157.083 203.002C154.964 201.487 153.191 199.506 151.065 198.004C148.327 196.067 143.759 195.838 140.484 196.272C138.957 196.476 137.557 197.83 136.099 198.075C134.538 198.34 132.629 198.17 131.212 197.451C130.747 197.216 127.342 194.669 127.959 194.127L127.959 194.12Z" fill="#010302"/>
<path d="M197.187 157.845C192.676 153.719 188.33 153.074 182.473 154.414C181.557 154.623 180.545 155.228 179.636 155.34C178.13 155.536 176.172 155.47 174.611 155.569C173.146 155.329 170.963 153.446 170.912 151.879C171.335 151.448 173.851 153.823 174.483 154.078C175.706 154.569 178.503 154.322 179.779 153.87C182.166 153.027 184.559 152.233 187.183 152.105C189.98 151.969 195.148 154.437 197.143 156.389C197.4 156.645 199.146 158.786 199.146 158.952C199.154 159.493 198.508 159.189 198.258 159.036C197.584 158.621 197.555 158.171 197.18 157.831L197.187 157.845Z" fill="#010302"/>
<path d="M107.8 212.157C108.057 212.926 108.052 213.807 108.643 214.409C109.331 215.109 112.415 216.276 113.414 216.378C114.893 216.529 118.576 214.915 120.332 214.794C123.483 214.589 125.799 217.616 127.863 219.36C128.781 220.135 131.886 221.601 131.471 222.96C131.036 224.403 129.943 222.463 129.624 222.173C128.567 221.21 127.122 220.283 125.982 219.363C124.419 218.103 123.389 216.413 121.105 216.18C120.036 216.071 117.246 216.72 116.157 217.096C115.456 217.339 114.86 218.054 114.145 218.062C113.583 218.063 109.166 216.1 108.429 215.692C107.318 215.077 106.968 213.309 107.008 212.144L107.793 212.157L107.8 212.157Z" fill="#010302"/>
<path d="M179.018 179.54C176.385 178.012 174.757 175.358 171.826 174.239C169.625 173.397 166.98 173.393 164.704 173.993C164.038 174.167 163.47 174.605 162.727 174.703C160.867 174.956 159.465 174.646 157.901 173.663C156.727 172.923 155.177 171.504 154.273 170.444C156.807 170.406 158.609 173.447 161.164 173.652C162.74 173.774 164.154 172.468 165.701 172.307C170.337 171.822 173.095 173.1 176.604 175.91C177.244 176.423 179.711 178.7 179.018 179.54Z" fill="#010302"/>
<path d="M201.371 142.619C203.533 144.509 205.951 146.225 208.14 148.073C208.911 148.724 209.509 149.576 210.44 150.074C211.156 150.836 210.012 151.302 209.359 150.887L200.609 143.244C196.938 139.27 192.733 135.712 188.917 131.827C188.527 131.433 188.61 131.134 188.63 130.635C190.609 130.618 190.98 132.76 192.127 133.993C192.961 134.886 194.149 135.474 194.962 136.263C197.11 138.347 199.133 140.646 201.378 142.612L201.371 142.619Z" fill="#010302"/>
<path d="M65.352 225.365C63.915 225.263 62.386 223.976 61.4752 222.93C61.2875 222.715 60.314 221.524 60.5081 221.344C61.0077 221.232 61.251 221.488 61.6192 221.703C62.2445 222.069 64.3014 223.661 64.788 224.173C65.0939 224.492 65.3999 224.887 65.345 225.358L65.352 225.365Z" fill="#010302"/>
<path d="M179.453 53.1128C178.947 53.5781 178.484 55.4163 177.422 55.1543C176.922 55.0302 173.99 52.7463 173.329 52.2341C171.578 50.8707 168.611 48.6353 167.123 47.1536C164.927 44.9726 167.028 43.9017 168.894 42.7272C169.705 42.2198 171.745 41.7384 171.168 40.6783C165.761 36.4773 160.161 32.533 154.741 28.3528C152.885 26.9201 151.126 25.0713 149.202 23.6804C148.076 22.8638 146.575 21.8605 145.325 21.37C143.792 22.1419 142.192 24.6058 140.262 24.0262L130.11 16.4413C127.178 14.3861 132.575 12.5685 132.789 11.5767C133.003 10.5848 129.344 10.1255 130.792 8.52862C132.019 7.17471 134.386 7.04647 136.018 7.57109C140.441 9.00001 144.133 12.7737 147.725 15.4796C158.684 23.7152 170.259 31.298 181.099 39.6031C183.476 41.4232 186.575 43.6862 188.778 45.6245C189.146 45.9498 191.337 48.637 191.413 48.9004C192.181 51.4579 190.08 53.2569 187.622 52.6988C186.699 52.4852 184.419 50.332 183.85 50.3814C182.837 50.8405 182.151 51.7568 181.229 52.3336C180.729 52.6464 179.848 52.7447 179.453 53.1128ZM154.231 21.2046C151.805 19.3221 148.804 17.4889 146.275 15.5927C143.745 13.6964 138.428 8.86425 135.325 8.54285C134.325 8.44029 133.243 8.46266 132.383 9.04636C132.036 9.51143 133.926 10.84 134.322 10.881C135.384 10.9904 135.785 9.54761 137.883 11.0839C139.982 12.6202 143.595 15.0419 145.319 16.8214C145.652 17.1607 146.967 18.816 147.03 19.1695C147.149 19.835 146.635 20.023 146.268 20.4673L146.386 20.8623C150.798 23.5949 154.559 27.2159 158.665 30.351C162.418 33.2162 166.455 35.8245 170.2 38.7036C170.721 39.105 171.438 40.0955 171.84 40.3029C172.82 40.8008 174.122 38.9891 175.087 39.2096C175.796 39.3681 178.999 41.8596 179.868 42.4686C181.021 43.2782 181.709 43.9428 182.731 44.711C183.752 45.4792 186.94 46.6326 186.651 48.2971C186.623 48.4566 184.778 49.2429 185.328 50.0464C185.418 50.178 187.905 51.6583 188.134 51.6926C189.252 51.8505 190.347 50.9475 190.02 49.8038C189.21 46.9898 185.167 44.5896 182.999 42.8246C173.589 35.1693 163.758 28.6032 154.238 21.2115L154.231 21.2046ZM145.447 19.5116C145.757 17.3755 143.75 16.8445 142.499 15.8755C141.464 15.0727 137.176 11.4316 136.148 11.551L135.483 12.1413C138.693 14.2377 141.459 16.9032 144.371 19.3744L145.44 19.5116L145.447 19.5116ZM144.102 20.0544L134.498 12.5796L133.339 12.9488C134.11 13.2874 134.263 13.5438 134.147 14.4246C133.723 14.4876 133.515 14.4255 133.181 14.1694C132.674 13.7749 133.381 13.2261 132.674 13.3519C132.098 13.4568 130.822 14.36 130.684 14.8803C130.525 15.4838 131.56 16.3282 131.998 16.7159C133.249 17.8304 136.126 19.9203 137.564 20.8196C139.002 21.719 138.467 21.1512 139.265 20.727C140.645 19.997 141.105 21.6189 139.808 22.3419C140.657 23.3461 141.468 22.8734 142.362 22.2064C142.702 21.9563 144.331 20.3869 144.109 20.0613L144.102 20.0544ZM174.146 40.9861C173.903 41.0627 173.64 41.3474 173.71 41.6246C173.828 42.1237 177.114 43.8732 177.733 44.323C178.754 45.0635 182.75 48.6564 183.542 48.7454C184.146 48.8139 184.659 48.2792 184.707 47.7383C184.754 47.135 182.85 45.8203 182.294 45.3981C180.814 44.27 176.749 41.329 175.132 41.0054C174.805 40.9366 174.479 40.8816 174.153 40.9791L174.146 40.9861ZM182.592 49.2738L172.981 42.0625C171.718 42.0782 167.939 44.5244 167.836 45.7103C167.949 46.5214 168.928 46.7765 169.435 47.2612C171.02 48.7774 172.758 50.4599 174.557 51.8094C175.259 52.3353 176.691 53.4774 177.482 53.1711C178.737 52.6839 181.317 50.7387 182.433 49.8218C182.689 49.6134 182.662 49.6204 182.606 49.2737L182.592 49.2738Z" fill="#010302"/>
<path d="M36.0793 61.5651C37.488 61.3204 37.9759 62.7203 38.7684 63.572C38.3944 64.1065 38.394 63.8499 38.026 63.7881C36.6374 63.5474 35.9843 63.0838 36.0793 61.5651Z" fill="#010302"/>
<path d="M100.046 82.7458C100.206 82.9813 100.061 83.4599 100.103 83.765L98.9368 83.725L97.1494 81.3493C97.3782 81.1479 99.9555 82.5933 100.053 82.7388L100.046 82.7458Z" fill="#010302"/>
<path d="M158.163 71.5949C158.322 71.4283 160.857 72.2983 160.581 73.3318C160.222 74.6845 157.727 72.7604 158.163 71.5949Z" fill="#010302"/>
<path d="M94.2096 40.4501C94.0427 40.2631 93.7224 39.591 93.8611 39.4591C94.8535 39.3744 96.659 39.878 96.2722 41.1821C96.21 41.3902 95.8772 41.6611 95.6134 41.6061C95.5231 41.5854 94.286 40.5401 94.2096 40.4571L94.2096 40.4501Z" fill="#010302"/>
<path d="M167.033 71.3186C167.762 71.2066 169.714 71.8139 169.451 72.792C169.106 74.0614 166.813 72.3798 167.033 71.3186Z" fill="#010302"/>
<path d="M163.286 81.5308C163.98 81.3772 165.911 82.4145 165.586 83.1431L164.99 83.6501C164.303 84.0533 163.106 81.7044 163.286 81.5308Z" fill="#010302"/>
<path d="M104.06 31.6505C102.714 31.8813 102.081 30.7242 102.176 29.5037C103.495 29.6613 104.322 30.194 104.06 31.6505Z" fill="#010302"/>
<path d="M29.0933 64.2656C30.1552 64.1878 30.7879 64.8872 31.2403 65.7394C29.9994 66.8368 28.7762 65.7499 29.0933 64.2656Z" fill="#010302"/>
<path d="M132.095 78.6152C133.004 78.3989 134.719 78.7847 134.124 79.9505C133.349 81.4563 131.832 78.8652 132.095 78.6152Z" fill="#010302"/>
<path d="M123.411 39.9293C122.176 40.8464 120.264 38.1796 122.201 38.3432C123.082 38.4182 123.652 39.0276 123.411 39.9293Z" fill="#010302"/>
<path d="M132.654 95.5402C133.293 95.7126 135.348 96.0355 135.072 97.0136C134.712 98.283 132.44 96.6014 132.654 95.5402Z" fill="#010302"/>
<path d="M116.445 42.3802C116.861 41.9566 119.217 43.7838 117.92 44.5276C116.754 44.5015 116.259 43.4275 116.445 42.3802Z" fill="#010302"/>
<path d="M155.747 75.8975L154.171 75.8651C153.913 75.2275 153.565 74.5138 154.272 74.0205C155.258 74.2479 155.94 74.8294 155.747 75.8975Z" fill="#010302"/>
<path d="M133.434 59.2467L132.869 57.4031C134.798 57.0675 135.787 59.4513 133.434 59.2467Z" fill="#010302"/>
<path d="M137.743 82.3721C138.028 82.0736 140.584 83.6993 139.218 84.5195C138.052 84.4935 137.558 83.4194 137.743 82.3721Z" fill="#010302"/>
<path d="M152.797 80.7347C153.428 80.4634 155.345 81.6047 155.214 82.2012C154.932 83.5191 152.652 81.7403 152.797 80.7347Z" fill="#010302"/>
<path d="M158.442 77.5022C159.573 77.1262 160.736 79.3503 159.646 79.6431C158.557 79.9359 158.256 78.2375 158.442 77.5022Z" fill="#010302"/>
<path d="M138.97 76.4765C140.365 76.0515 140.896 78.1032 140.014 78.3333C139.133 78.5634 137.881 76.804 138.97 76.4765Z" fill="#010302"/>
<path d="M137.178 61.155C138.108 60.9804 139.629 61.6507 138.937 62.775C138.313 63.7814 136.888 61.9113 137.178 61.155Z" fill="#010302"/>
<path d="M151.194 86.1109C150.153 86.3065 148.986 85.3097 149.04 84.2349C150.13 84.3096 151.484 84.793 151.194 86.1109Z" fill="#010302"/>
<path d="M106.307 97.1871C107.029 97.2137 108.994 97.6269 108.725 98.6605C108.046 99.9859 106.044 97.4371 106.307 97.1871Z" fill="#010302"/>
<path d="M126.39 65.234L126.427 66.8079C125.428 66.9758 124.942 66.4703 124.6 65.5972C125.05 64.7852 125.633 64.8537 126.39 65.234Z" fill="#010302"/>
<path d="M23.4657 79.8474C22.2165 80.0018 20.8201 79.144 21.9915 77.9704C22.9775 78.1978 23.6585 78.7793 23.4657 79.8474Z" fill="#010302"/>
<path d="M26.6825 72.3194C25.6138 72.5151 25.0298 71.8364 24.7993 70.8521C25.9776 69.6855 26.8403 71.078 26.6825 72.3194Z" fill="#010302"/>
<path d="M179.668 72.6316L178.628 72.8896L177.25 70.7629C178.02 70.5954 180.216 71.8472 179.668 72.6316Z" fill="#010302"/>
<path d="M106.472 24.401L108.236 24.9254C108.434 27.2203 106.183 26.0448 106.472 24.401Z" fill="#010302"/>
<path d="M120.247 70.0412C120.997 69.8598 122.691 70.107 122.394 71.2376C122.083 72.4515 120.103 71.0191 120.247 70.0412Z" fill="#010302"/>
<path d="M133.625 71.4294C133.82 71.6233 134.078 72.5312 133.953 72.6978C132.823 73.6148 131.335 71.4189 132.507 71.1121C132.771 71.0423 133.431 71.2355 133.625 71.4294Z" fill="#010302"/>
<path d="M127.198 43.169C128.496 42.6193 129.908 44.7113 128.68 45.0459C127.826 45.2829 127.296 43.8067 127.198 43.169Z" fill="#010302"/>
<path d="M126.439 74.5948C128.784 74.0366 128.781 76.9974 126.975 76.0779C126.441 75.8082 126.377 75.1357 126.439 74.5948Z" fill="#010302"/>
<path d="M35.0147 69.3535C33.7516 69.5286 32.9597 69.086 33.1313 67.7475C34.2626 67.6765 35.2488 68.0357 35.0147 69.3535Z" fill="#010302"/>
<path d="M151.971 66.237C153.795 65.6103 154.917 68.6319 153.209 68.0866C153.035 68.0314 151.783 66.4037 151.971 66.237Z" fill="#010302"/>
<path d="M143.37 66.2495C144.668 65.6998 146.08 67.7918 144.852 68.1264C143.998 68.3634 143.468 66.8872 143.37 66.2495Z" fill="#010302"/>
<path d="M85.4432 31.2129C86.8752 32.6531 83.6009 34.0239 84.1655 30.8819C84.2834 30.7639 85.2416 31.0121 85.4432 31.2129Z" fill="#010302"/>
<path d="M111.663 85.8977C110.657 85.9824 109.83 85.3041 109.78 84.2918C111.14 83.7767 111.897 84.4413 111.663 85.8977Z" fill="#010302"/>
<path d="M65.0401 86.7905C66.9551 86.2538 66.7224 88.5284 66.0909 88.6472C65.4731 88.6135 64.1381 87.0414 65.0401 86.7905Z" fill="#010302"/>
<path d="M134.277 90.1432L133.983 88.2853C135.843 88.137 136.422 90.4036 134.277 90.1432Z" fill="#010302"/>
<path d="M31.2585 59.1313C30.9919 57.1902 32.5336 57.708 33.382 58.7469C32.7793 59.6214 32.1406 59.5045 31.2585 59.1313Z" fill="#010302"/>
<path d="M121.358 94.2114C122.753 93.8765 123.622 94.8876 122.569 96.0887C121.591 96.3467 121.373 94.8493 121.358 94.2114Z" fill="#010302"/>
<path d="M99.3798 130.751C99.143 130.21 99.2742 129.731 99.3775 129.177L100.856 129.41L100.719 130.652L99.3798 130.757L99.3798 130.751Z" fill="#010302"/>
<path d="M172.954 75.6021C173.752 75.3721 175.654 76.0073 175.378 77.0686C175.061 78.2756 173.204 76.0317 172.954 75.6021Z" fill="#010302"/>
<path d="M107.031 88.9277C107.58 89.4816 107.38 90.4041 106.477 90.1627C106.012 90.0386 105.171 88.8818 105.225 88.327C105.399 88.1604 106.829 88.7199 107.038 88.9276L107.031 88.9277Z" fill="#010302"/>
<path d="M123.98 49.3518C122.738 49.7141 121.945 48.6752 121.825 47.4758C122.026 47.2744 124.464 48.4219 123.98 49.3518Z" fill="#010302"/>
<path d="M93.3889 87.2694C94.0759 87.1505 95.5272 87.5229 95.2717 88.4732C94.2945 89.5078 93.1547 88.504 93.3889 87.2694Z" fill="#010302"/>
<path d="M145.809 82.09C144.421 82.4665 143.982 81.4062 143.654 80.2141C144.661 80.3235 145.925 80.918 145.809 82.09Z" fill="#010302"/>
<path d="M59.651 89.7383C60.7751 89.4523 61.3054 91.3931 60.445 91.6162C59.321 91.9021 58.7906 89.9614 59.651 89.7383Z" fill="#010302"/>
<path d="M128.344 91.5178L129.844 91.7652C130.278 94.0875 127.924 93.5362 128.344 91.5178Z" fill="#010302"/>
<path d="M164.764 76.4253C166.27 76.0348 166.689 78.0381 165.537 78.2894C164.92 78.422 163.994 76.6275 164.764 76.4253Z" fill="#010302"/>
<path d="M31.2623 76.0779C29.9228 76.2532 29.4775 75.4634 29.6492 74.2011C30.9266 74.3518 31.4963 74.6977 31.2623 76.0779Z" fill="#010302"/>
<path d="M128.628 100.379C127.247 100.617 126.899 100.049 126.744 98.773C128.008 98.5979 128.8 99.0405 128.628 100.379Z" fill="#010302"/>
<path d="M80.2189 104.762L79.8321 106.087C79.0411 106.282 77.7201 104.814 78.7535 104.216L80.212 104.762L80.2189 104.762Z" fill="#010302"/>
<path d="M46.7952 70.1962C46.9274 70.3832 46.8871 71.3124 46.8528 71.6176C46.7567 72.3943 45.0192 70.8714 45.2332 70.0112C45.4612 69.3106 46.6144 69.9399 46.7952 70.1893L46.7952 70.1962Z" fill="#010302"/>
<path d="M89.0003 42.9816C89.4108 43.5981 88.6973 44.6185 87.85 44.3215L87.1396 42.7L89.0003 42.9885L89.0003 42.9816Z" fill="#010302"/>
<path d="M23.1864 69.1071C22.1523 69.2473 21.1802 68.9783 21.3034 67.7716C22.5451 67.222 23.3162 67.6855 23.1864 69.1071Z" fill="#010302"/>
<path d="M129.296 53.4421C129.97 54.1137 129.485 55.0227 128.458 54.6914C127.888 54.505 127.678 53.3889 127.747 52.841C127.851 52.7299 129.136 53.2897 129.289 53.4421L129.296 53.4421Z" fill="#010302"/>
<path d="M112.088 29.4616C111.083 30.1634 109.935 28.5772 110.767 28.0074C111.821 27.2917 112.851 28.9266 112.088 29.4616Z" fill="#010302"/>
<path d="M116.998 98.0383C117.422 98.5716 117.222 99.5357 116.417 99.5785C115.812 99.1564 115.374 98.4706 115.442 97.7147C115.56 97.5966 116.81 97.8097 116.991 98.0383L116.998 98.0383Z" fill="#010302"/>
<path d="M116.469 58.4947C115.962 58.5024 115.039 58.6354 114.878 58.074C114.39 56.4036 117.042 56.3651 116.469 58.4947Z" fill="#010302"/>
<path d="M32.3533 86.5466C31.3401 86.7214 30.3812 85.9878 30.4699 84.9407C31.7329 84.7655 32.5249 85.2081 32.3533 86.5466Z" fill="#010302"/>
<path d="M117.026 74.3449C117.436 74.3721 118.053 74.2255 118.387 74.4608C118.79 74.7445 119.145 75.8881 118.236 75.9726C117.327 76.0572 116.881 75.1841 117.033 74.3449L117.026 74.3449Z" fill="#010302"/>
<path d="M139.316 99.6216C139.935 100.134 139.36 101.286 138.742 101.162C138.284 101.065 137.63 99.8182 137.775 99.2979C137.851 99.2215 139.157 99.49 139.323 99.6285L139.316 99.6216Z" fill="#010302"/>
<path d="M122.427 103.862C121.672 104.397 120.601 103.123 120.836 102.276C121.412 102.255 122.043 102.157 122.474 102.662C122.759 102.995 122.587 103.751 122.427 103.862Z" fill="#010302"/>
<path d="M150.368 71.8766L149.063 71.8369L148.485 70.4024C148.894 69.8749 148.804 70.083 149.2 70.2142C150.103 70.511 150.533 70.8502 150.375 71.8697L150.368 71.8766Z" fill="#010302"/>
<path d="M67.2593 56.6869L68.8838 56.8024C69.8172 59.0546 67.3453 58.5035 67.2593 56.6869Z" fill="#010302"/>
<path d="M174.541 69.4078C173.813 69.8873 172.679 67.8087 172.942 67.5449L174.713 68.0623L174.541 69.4078Z" fill="#010302"/>
<path d="M150.085 77.5352C150.211 78.0412 150.142 78.8872 149.434 78.8674C148.733 78.6535 148.107 78.0165 148.224 77.2466L150.085 77.5352Z" fill="#010302"/>
<path d="M40.428 92.72C41.2192 92.6356 42.1355 92.6898 42.2965 93.6256C41.4031 95.0206 40.2356 94.0932 40.428 92.72Z" fill="#010302"/>
<path d="M86.1962 90.9756C85.9946 90.7748 85.7434 89.8183 85.8612 89.7003C88.7759 89.2939 87.6768 92.4296 86.1962 90.9756Z" fill="#010302"/>
<path d="M141.614 56.3156C142.578 56.0646 143.781 57.415 142.678 58.1932C142.234 58.2909 140.524 56.6015 141.614 56.3156Z" fill="#010302"/>
<path d="M112.672 39.4249L111.867 39.5786C111.269 39.0525 110.97 38.3595 111.066 37.555C112.1 37.4564 112.865 38.4192 112.672 39.4249Z" fill="#010302"/>
<path d="M128.642 85.8385L128.605 84.528C130.846 84.0047 130.795 86.9032 128.642 85.8385Z" fill="#010302"/>
<path d="M131.498 40.7428C130.146 41.1746 128.74 38.937 130.552 39.1285C131.344 39.2106 131.615 40.0145 131.498 40.7428Z" fill="#010302"/>
<path d="M50.7506 74.1775C51.6322 74.2664 52.572 76.1094 51.5589 76.3189C50.9551 76.4446 49.7864 74.6712 50.7506 74.1775Z" fill="#010302"/>
<path d="M111.238 46.4302C111.897 46.2837 113.004 48.0918 112.011 48.2944C111.165 48.4689 109.802 46.7513 111.238 46.4302Z" fill="#010302"/>
<path d="M70.91 51.599C72.2351 51.1741 72.4875 52.9003 71.6688 53.165C70.3437 53.5899 70.0913 51.8637 70.91 51.599Z" fill="#010302"/>
<path d="M38.4807 70.9918L38.7388 71.8581C38.3028 72.7533 37.7196 72.6432 37.0246 72.0478L37.162 71.0908L38.4807 70.9918Z" fill="#010302"/>
<path d="M80.5543 44.0409C81.4287 43.8802 82.4517 45.7092 81.626 45.9185C80.6199 46.1765 79.5689 44.2226 80.5543 44.0409Z" fill="#010302"/>
<path d="M111.333 54.4527L109.979 54.0872C109.583 53.7133 109.922 53.3245 110.019 52.8806L111.373 53.2461C111.769 53.62 111.43 54.0088 111.333 54.4527Z" fill="#010302"/>
<path d="M115.846 88.8455C117.012 88.5388 117.494 90.4657 116.349 90.71C115.572 90.8707 115 89.0687 115.846 88.8455Z" fill="#010302"/>
<path d="M90.6459 52.8948C91.4091 52.6926 92.7841 53.1067 92.5287 54.0986C92.2457 55.1946 90.2655 53.8245 90.6459 52.8948Z" fill="#010302"/>
<path d="M111.412 94.7597C110.24 94.9209 109.642 94.2977 109.8 93.1534L111.16 93.2693L111.412 94.7597Z" fill="#010302"/>
<path d="M94.6659 125.418C95.6719 125.119 96.7079 126.31 95.5912 126.887C94.5439 127.429 93.8333 125.662 94.6659 125.418Z" fill="#010302"/>
<path d="M138.563 92.3073C139.091 92.6047 140.021 92.534 140.32 93.1022C140.536 93.511 140.454 94.0727 140.044 94.1843C139.184 94.4143 138.334 92.5642 138.57 92.3073L138.563 92.3073Z" fill="#010302"/>
<path d="M110.346 62.7402C110.005 62.4148 110.164 61.8737 110.302 61.4783L111.892 61.8643C111.991 62.8002 111.027 63.391 110.339 62.7402L110.346 62.7402Z" fill="#010302"/>
<path d="M83.3728 39.4743C83.7476 39.446 84.0947 39.4385 84.4489 39.6044C86.2688 40.4824 83.0442 42.602 83.3728 39.4743Z" fill="#010302"/>
<path d="M38.772 80.3869C39.4043 80.8228 38.9558 82.6748 37.7052 81.8584C36.8228 81.2772 37.9174 79.8057 38.772 80.3869Z" fill="#010302"/>
<path d="M42.8244 74.716L42.7916 76.0265C41.6611 76.6661 41.0838 75.8695 41.2071 74.7252L42.8244 74.7229L42.8244 74.716Z" fill="#010302"/>
<path d="M46.5231 54.8656C46.6862 57.2229 44.6716 56.1095 44.9397 54.3062L46.5231 54.8656Z" fill="#010302"/>
<path d="M123.761 80.2429C123.865 80.1318 125.267 80.5943 125.365 80.927L124.666 82.1068C123.728 81.9487 123.672 81.0335 123.754 80.2429L123.761 80.2429Z" fill="#010302"/>
<path d="M73.2445 100.993C73.9384 100.881 75.3758 101.247 75.1273 102.197C74.4072 103.439 72.8147 101.424 73.2445 100.993Z" fill="#010302"/>
<path d="M91.7014 115.493C93.1099 115.054 93.1958 116.892 92.4812 117.08C91.5514 117.324 90.7509 115.786 91.7014 115.493Z" fill="#010302"/>
<path d="M143.917 74.5694C141.745 74.9747 142.164 72.0272 143.665 73.079C144.047 73.3489 143.902 74.1465 143.917 74.5694Z" fill="#010302"/>
<path d="M114.945 113.553L114.394 111.952C116.282 111.623 117.11 113.383 114.945 113.553Z" fill="#010302"/>
<path d="M149.523 91.8199C150.093 92.3808 149.74 93.2619 148.928 93.3671C148.365 92.8964 148.177 92.2033 148.245 91.489C148.634 91.4676 149.245 91.5499 149.523 91.8199Z" fill="#010302"/>
<path d="M51.1298 81.9915C52.1603 84.195 49.5779 84.0254 49.8248 81.9587L51.1298 81.9915Z" fill="#010302"/>
<path d="M52.1906 52.4166C53.2069 54.4121 50.5628 54.7765 50.8791 52.7028L52.1906 52.4166Z" fill="#010302"/>
<path d="M117.75 51.8293C117.91 52.0717 117.772 52.5365 117.807 52.8485C116.731 53.065 116.029 52.2686 115.924 51.2425C116.152 51.0273 117.583 51.5868 117.75 51.8293Z" fill="#010302"/>
<path d="M84.2499 108.258C84.7438 108.971 83.6694 110.048 82.9538 109.556C82.8287 109.466 82.5775 108.545 82.7853 108.232C83.0762 107.809 84.1317 108.092 84.2499 108.258Z" fill="#010302"/>
<path d="M134.502 44.462L134.459 43.4289C135.701 43.1982 137.133 44.0421 135.676 44.9664L134.502 44.462Z" fill="#010302"/>
<path d="M85.0295 71.4374C87.7984 70.9411 86.4634 74.1951 85.3297 72.6158C85.0863 72.2833 84.9954 71.8466 85.0295 71.4374Z" fill="#010302"/>
<path d="M56.8057 80.6034C56.8057 80.6034 56.1397 80.8055 56.0008 80.7502C55.4451 80.5222 55.0412 79.6006 55.193 78.9971C56.0464 78.7324 57.3322 79.9023 56.7988 80.5965L56.8057 80.6034Z" fill="#010302"/>
<path d="M120.258 63.0309L119.964 61.4435C121.699 61.1636 122.41 63.2844 120.258 63.0309Z" fill="#010302"/>
<path d="M180.177 64.6013C180.389 66.7574 178.493 66.0737 178.587 64.3124L180.177 64.6013Z" fill="#010302"/>
<path d="M134.007 104.663L133.104 104.644C132.5 104.437 132.672 103.59 132.672 103.064C133.879 102.875 134.429 103.602 134.007 104.663Z" fill="#010302"/>
<path d="M120.586 117.039C119.768 117.852 118.433 115.704 118.703 115.433C119.397 115.12 121.127 116.504 120.586 117.039Z" fill="#010302"/>
<path d="M40.4118 67.1753C40.0783 66.94 39.8538 65.3247 41.0204 65.6212C42.43 65.9797 41.4193 67.8811 40.4118 67.1753Z" fill="#010302"/>
<path d="M92.0525 94.2538C92.5174 94.1769 93.5174 94.5083 93.65 94.9519L92.9922 96.1246C92.3668 95.5916 91.8802 95.1555 92.0525 94.2538Z" fill="#010302"/>
<path d="M64.2311 93.7533C65.2859 93.5438 65.9481 95.4427 65.0321 95.6313C64.3867 95.7639 63.336 93.928 64.2311 93.7533Z" fill="#010302"/>
<path d="M55.2043 86.7908L56.5576 86.6363L56.6913 87.8634C56.1996 88.6477 54.9278 87.6094 55.2043 86.7839L55.2043 86.7908Z" fill="#010302"/>
<path d="M151.461 59.7475L151.425 58.7144C153.806 58.4128 153.969 60.7979 151.461 59.7475Z" fill="#010302"/>
<path d="M138.485 52.5758C139.085 54.7592 137.141 54.4846 136.895 52.5573L138.485 52.5758Z" fill="#010302"/>
<path d="M99.7865 37.8141L99.4927 36.2266C101.249 36.127 101.939 38.019 99.7865 37.8141Z" fill="#010302"/>
<path d="M80.9263 37.3075C80.5315 37.8489 79.087 37.3934 79.3355 36.3945C79.5839 35.3957 81.6676 36.2802 80.9263 37.3075Z" fill="#010302"/>
<path d="M108.634 35.6794C107.114 35.9035 107.21 35.0228 107.291 33.8023C108.472 34.1334 108.826 34.3548 108.634 35.6794Z" fill="#010302"/>
<path d="M70.2551 97.8009C70.3319 98.1475 70.3394 98.5497 70.1525 98.862C69.3769 100.153 67.3034 96.6889 70.2551 97.8009Z" fill="#010302"/>
<path d="M104.521 71.9431C105.507 71.6504 106.155 73.383 105.058 73.8145C104.51 73.5171 103.564 72.2218 104.521 71.9431Z" fill="#010302"/>
<path d="M55.995 72.0204C56.453 71.9157 56.7026 71.735 57.1612 72.0325C58.7592 73.0772 55.6515 74.4755 55.995 72.0204Z" fill="#010302"/>
<path d="M116.151 26.2661C115.728 26.343 115.533 26.2323 115.2 26.0109C113.289 24.7586 116.633 23.5265 116.151 26.2661Z" fill="#010302"/>
<path d="M99.1031 26.0412C100.588 25.5814 100.535 27.419 99.5913 27.6145C98.9667 27.7471 98.1872 26.3268 99.1031 26.0412Z" fill="#010302"/>
<path d="M96.0534 72.2258C95.6925 72.2263 95.3108 72.3031 94.9704 72.1025C93.4906 71.2102 96.3961 69.209 96.0534 72.2258Z" fill="#010302"/>
<path d="M118.387 84.2793C119.365 84.1115 119.824 84.5477 119.999 85.4765C119.091 86.518 118.166 85.3197 118.387 84.2793Z" fill="#010302"/>
<path d="M122.108 55.5326C122.402 57.4321 120.188 57.4007 120.49 55.535L122.108 55.5326Z" fill="#010302"/>
<path d="M104.046 21.7142C103.067 21.882 102.609 21.4458 102.434 20.5169C103.342 19.4755 104.267 20.6738 104.046 21.7142Z" fill="#010302"/>
<path d="M90.7386 68.9398C89.9183 68.109 90.8818 67.2131 91.7572 67.7873C92.5424 68.3062 91.7396 69.9507 90.7386 68.9398Z" fill="#010302"/>
<path d="M127.712 28.9258C127.712 28.9258 127.011 29.1418 126.907 29.0796C126.456 28.8237 125.718 27.4726 126.509 27.3189C127.196 27.1862 128.128 28.3775 127.712 28.9258Z" fill="#010302"/>
<path d="M97.8999 58.0016C98.5398 58.8743 96.8896 60.1317 96.3391 58.6209C95.9558 57.5745 97.7122 57.7453 97.8999 58.0016Z" fill="#010302"/>
<path d="M92.6839 46.1937C93.3084 46.061 94.0879 47.4813 93.172 47.767C91.6873 48.2267 91.7401 46.3892 92.6839 46.1937Z" fill="#010302"/>
<path d="M161.655 67.0273C164.389 66.538 163.172 69.8819 161.913 67.9769C161.69 67.6444 161.579 67.4504 161.655 67.0273Z" fill="#010302"/>
<path d="M117.287 67.3551L115.926 67.2392L115.674 66.0192L117.035 66.1351L117.287 67.3551Z" fill="#010302"/>
<path d="M134.202 67.0394C133.238 67.2973 132.66 66.6602 132.611 65.7242L134.235 65.8467L134.202 67.0394Z" fill="#010302"/>
<path d="M101.507 123.515L100.147 123.399L99.8879 122.179L101.249 122.288L101.507 123.515Z" fill="#010302"/>
<path d="M119.112 28.6817C119.701 28.4867 121.146 28.873 120.994 29.6151C120.801 30.5237 118.704 29.868 119.112 28.6817Z" fill="#010302"/>
<path d="M131.215 32.152C132.256 31.9355 133.458 32.8491 132.425 33.7589C131.579 33.982 131.14 32.8108 131.215 32.152Z" fill="#010302"/>
<path d="M115.156 81.864L113.795 81.7481L113.544 80.5281L114.904 80.644L115.156 81.864Z" fill="#010302"/>
<path d="M86.0956 64.7169C85.7347 64.7174 85.353 64.7942 85.0126 64.5936C83.5328 63.7013 86.4383 61.7001 86.0956 64.7169Z" fill="#010302"/>
<path d="M89.0102 35.4374C89.9887 35.2696 90.4474 35.7058 90.6223 36.6347C89.7145 37.6761 88.7896 36.4779 89.0102 35.4374Z" fill="#010302"/>
<path d="M117.239 34.3218C116.142 34.6146 115.69 33.7277 115.626 32.7154C116.792 32.5543 117.397 33.1705 117.239 34.3218Z" fill="#010302"/>
<path d="M56.7083 56.5011C57.8558 57.9903 54.8997 58.6117 55.4306 56.1701C55.5346 56.066 56.5553 56.3003 56.7083 56.5011Z" fill="#010302"/>
<path d="M77.9903 42.1655C75.991 42.0644 76.508 39.5466 78.2454 40.9864L77.9903 42.1655Z" fill="#010302"/>
<path d="M25.3557 81.1898L26.4244 81.0358C28.051 82.649 25.3101 83.277 25.3557 81.1898Z" fill="#010302"/>
<path d="M104.89 125.417C105.987 125.083 106.086 126.823 105.399 127.004C104.31 127.29 103.912 125.717 104.89 125.417Z" fill="#010302"/>
<path d="M35.8479 88.698C36.2227 88.6975 36.8264 88.5856 37.0768 88.9459C37.995 90.2689 35.3865 91.2504 35.8479 88.698Z" fill="#010302"/>
<path d="M143.936 87.7301C144.581 87.6112 145.214 88.0264 145.284 88.6711C145.474 90.3211 143.404 89.2355 143.936 87.7301Z" fill="#010302"/>
<path d="M107.328 59.3123L105.752 59.0095L105.709 57.9764L107.07 58.0923L107.328 59.3123Z" fill="#010302"/>
<path d="M66.4413 47.8265C66.8161 47.826 67.4199 47.7141 67.6703 48.0743C68.5884 49.3974 65.9799 50.3789 66.4413 47.8265Z" fill="#010302"/>
<path d="M128.125 21.4296C128.506 21.3112 129.152 21.3865 129.298 21.837L128.918 23.0232C128.446 23.121 127.118 21.7361 128.125 21.4296Z" fill="#010302"/>
<path d="M87.5108 111.991C87.8856 111.99 88.4894 111.878 88.7398 112.238C89.658 113.561 87.0495 114.543 87.5108 111.991Z" fill="#010302"/>
<path d="M35.0056 77.4315C35.7706 78.4705 33.7104 79.4027 33.4308 78.0509C33.277 77.33 34.6578 76.9536 35.0056 77.4315Z" fill="#010302"/>
<path d="M52.21 61.0078L51.1757 60.9677L50.5973 59.4014C51.7632 59.2403 52.3679 59.8565 52.21 61.0078Z" fill="#010302"/>
<path d="M150.872 50.3876C148.318 50.8558 149.286 48.2542 150.62 49.1606C150.981 49.4097 150.864 50.0131 150.872 50.3876Z" fill="#010302"/>
<path d="M104.405 49.0473C104.301 48.9989 103.689 48.244 103.82 47.904C104.173 46.9883 105.68 47.7904 105.432 48.6991C105.335 49.0529 104.78 49.2201 104.405 49.0473Z" fill="#010302"/>
<path d="M57.9049 96.7164C56.3995 97.2525 55.3067 95.1877 56.959 95.3725C57.6046 95.4409 58.022 96.0713 57.9049 96.7164Z" fill="#010302"/>
<path d="M100.295 44.0331C100.629 44.4972 100.083 45.8293 99.2281 45.2342L98.6988 44.0146C99.0456 43.8615 100.094 43.7491 100.295 44.0261L100.295 44.0331Z" fill="#010302"/>
<path d="M61.673 52.8675C61.4088 52.5835 61.3246 51.9804 61.3449 51.5921C61.7891 51.5637 62.8163 51.4929 62.9558 51.9989C63.1512 52.6989 62.2639 53.4976 61.673 52.8744L61.673 52.8675Z" fill="#010302"/>
<path d="M42.8388 84.6592C43.8864 84.318 45.1239 85.6197 43.9169 86.1485C43.2925 86.4267 42.5552 85.3114 42.8388 84.6592Z" fill="#010302"/>
<path d="M159.26 86.0992C157.92 86.2883 157.795 85.6714 157.918 84.4924C158.966 84.3661 159.397 85.149 159.26 86.0992Z" fill="#010302"/>
<path d="M119.189 106.335L119.226 107.646L118.185 107.605L117.884 106.032L119.189 106.335Z" fill="#010302"/>
<path d="M139.066 70.5478C137.88 71.0072 137.31 70.9109 137.454 69.4823L138.808 69.6052L139.073 70.5478L139.066 70.5478Z" fill="#010302"/>
<path d="M89.3496 82.9762C89.6375 85.2571 87.9086 84.9198 88.003 82.9782L89.3496 82.9762Z" fill="#010302"/>
<path d="M141.987 41.2684C142.337 42.9667 140.227 43.2471 140.496 41.5341L141.987 41.2684Z" fill="#010302"/>
<path d="M99.5181 68.1644C99.4835 68.2061 98.6441 68.5401 98.4564 68.3462L97.9271 67.1197C98.87 66.3556 100.1 67.3592 99.5181 68.1644Z" fill="#010302"/>
<path d="M73.2961 45.667C74.4063 45.3603 74.5198 47.0798 73.8329 47.2749C72.7228 47.5816 72.6092 45.8622 73.2961 45.667Z" fill="#010302"/>
<path d="M105.859 65.4995C107.219 65.1439 107.978 67.0219 106.395 66.8509C105.722 66.7756 105.192 65.6738 105.859 65.4995Z" fill="#010302"/>
<path d="M48.2183 89.4844C46.8789 89.6736 46.7531 89.0566 46.8763 87.8777C47.9243 87.7513 48.3558 88.5343 48.2183 89.4844Z" fill="#010302"/>
<path d="M133.392 49.3381L132.087 49.3054L131.787 48.4252C132.702 47.4115 133.647 48.1521 133.392 49.3381Z" fill="#010302"/>
<path d="M123.138 24.3769L121.778 24.2609L121.526 23.0409C122.477 22.9009 123.262 23.3296 123.138 24.3769Z" fill="#010302"/>
<path d="M50.337 66.6478C49.3863 66.7878 48.6013 66.3591 48.7247 65.3119L50.0854 65.4278L50.337 66.6478Z" fill="#010302"/>
<path d="M76.1352 55.3289C76.4231 57.6097 74.6943 57.2725 74.7886 55.3308L76.1352 55.3289Z" fill="#010302"/>
<path d="M101.711 77.0506L100.364 77.0525C100.076 74.7647 101.805 75.1158 101.711 77.0506Z" fill="#010302"/>
<path d="M102.478 55.5611C101.138 55.7503 101.012 55.1333 101.136 53.9544C102.184 53.828 102.615 54.611 102.478 55.5611Z" fill="#010302"/>
<path d="M86.4753 48.8722C87.5855 48.5655 87.699 50.285 87.0121 50.4801C85.902 50.7868 85.7884 49.0674 86.4753 48.8722Z" fill="#010302"/>
<path d="M68.3726 82.4658C67.6372 82.7581 66.6296 81.9621 66.7605 81.2685C66.85 80.79 67.2182 80.9905 67.496 81.0594C68.3917 81.28 68.4545 81.5365 68.3726 82.4727L68.3726 82.4658Z" fill="#010302"/>
<path d="M45.9388 77.9565C46.9657 77.6361 47.5572 78.71 46.8637 79.1478C45.7333 79.8637 44.9467 78.2631 45.9388 77.9565Z" fill="#010302"/>
<path d="M101.285 61.2071C102.395 60.9004 102.509 62.6198 101.822 62.815C100.712 63.1217 100.598 61.4022 101.285 61.2071Z" fill="#010302"/>
<path d="M144.902 35.6546C145.833 36.312 144.135 38.2629 143.716 36.4537C143.541 35.6843 144.387 35.2948 144.902 35.6546Z" fill="#010302"/>
<path d="M17.281 75.0234C17.6558 74.9951 18.0028 74.9808 18.3501 75.1605C20.0381 75.9902 16.9862 77.5478 17.281 75.0234Z" fill="#010302"/>
<path d="M72.128 92.154L72.4214 93.471C71.7354 94.3249 69.4552 91.8875 72.128 92.154Z" fill="#010302"/>
<path d="M102.554 103.371C103.213 103.273 104.442 103.306 104.166 104.304C103.889 105.303 102.187 104.363 102.554 103.371Z" fill="#010302"/>
<path d="M81.5529 86.4753C80.5606 86.6709 79.9976 86.117 79.9406 85.1394L81.3013 85.2553L81.5529 86.4753Z" fill="#010302"/>
<path d="M74.2783 71.9869L72.9594 71.968C72.7366 71.4899 72.7847 71.1362 72.9436 70.6506C74.0609 70.4826 74.4294 70.8634 74.2852 71.9869L74.2783 71.9869Z" fill="#010302"/>
<path d="M78.1825 74.1863C78.7309 74.2271 79.184 75.5369 78.4416 75.7391C77.2134 76.0737 76.8566 74.0911 78.1825 74.1863Z" fill="#010302"/>
<path d="M67.8712 105.3C67.4964 105.328 67.1494 105.343 66.802 105.163C65.1141 104.333 68.166 102.776 67.8712 105.3Z" fill="#010302"/>
<path d="M143.817 96.5988C144.948 96.2851 145.374 98.0804 144.361 98.1512C143.569 98.2078 142.984 96.8288 143.817 96.5988Z" fill="#010302"/>
<path d="M128.038 62.243C128.697 62.145 129.926 62.1779 129.65 63.1768C129.388 64.1341 127.672 63.2351 128.038 62.243Z" fill="#010302"/>
<path d="M57.2887 64.2594C57.72 64.9175 57.041 65.7644 56.2423 65.4466L55.9764 63.9562L57.2818 64.2594L57.2887 64.2594Z" fill="#010302"/>
<path d="M169.688 64.0826C170.586 65.3294 167.789 66.1378 168.377 64.2093C168.549 63.6405 169.542 63.8817 169.688 64.0826Z" fill="#010302"/>
<path d="M123.774 89.6384L123.516 88.46C124.832 87.0158 125.676 89.8228 123.774 89.6384Z" fill="#010302"/>
<path d="M146.526 45.3251L146.576 46.1987L145.889 46.5741L144.957 45.4245C145.394 44.7582 145.95 45.1041 146.526 45.3251Z" fill="#010302"/>
<path d="M82.9255 123.563C83.7532 124.727 81.3321 125.68 81.6062 123.274L82.9255 123.563Z" fill="#010302"/>
<path d="M74.2577 62.5845C73.4943 62.7035 72.6401 62.4135 72.6458 61.519C73.839 61.0666 74.4014 61.1559 74.2577 62.5845Z" fill="#010302"/>
<path d="M105.957 42.3954C104.909 42.5217 104.478 41.7388 104.615 40.7887C105.663 40.6623 106.094 41.4452 105.957 42.3954Z" fill="#010302"/>
<path d="M124.284 58.4972C124.43 58.289 125.881 58.4325 125.612 59.4175C125.467 59.9447 124.044 60.0993 124.119 59.281C124.133 59.1562 124.264 58.5319 124.284 58.4972Z" fill="#010302"/>
<path d="M116.017 120.27C115.066 120.41 114.281 119.981 114.404 118.934C115.355 118.794 116.14 119.223 116.017 120.27Z" fill="#010302"/>
<path d="M101.465 94.5036L101.193 93.1727L102.102 92.9079C102.984 93.5515 102.569 94.7239 101.458 94.5036L101.465 94.5036Z" fill="#010302"/>
<path d="M110.235 115.716C111.033 115.5 111.944 116.76 111.028 117.046C109.752 117.436 109.479 115.925 110.235 115.716Z" fill="#010302"/>
<path d="M95.7192 23.6053L95.4461 21.997C96.1332 21.892 96.6612 22.2657 96.801 22.9312L95.7192 23.6053Z" fill="#010302"/>
<path d="M79.3286 50.7825C79.4816 50.9903 79.3856 51.7809 79.0874 51.9824C78.3662 52.4827 77.4134 51.2082 78.2663 50.6176C78.516 50.4439 79.2799 50.7202 79.3286 50.7825Z" fill="#010302"/>
<path d="M80.4498 67.6789C79.4367 67.9439 79.0262 67.265 78.8375 66.343L80.1981 66.4589L80.4498 67.6789Z" fill="#010302"/>
<path d="M79.1489 113.632C79.5176 114.145 78.9292 115.283 78.1027 114.951L77.8303 113.759C77.9752 113.197 79.0029 113.424 79.1489 113.625L79.1489 113.632Z" fill="#010302"/>
<path d="M82.4641 54.2588C83.7407 53.8686 84.0136 55.3798 83.2573 55.589C82.501 55.7981 81.5483 54.5444 82.4641 54.2588Z" fill="#010302"/>
<path d="M159.092 56.2972C160.368 55.9071 160.641 57.4183 159.885 57.6274C159.129 57.8365 158.176 56.5829 159.092 56.2972Z" fill="#010302"/>
<path d="M72.7136 108.247L72.7155 109.592L71.6256 109.476C71.2643 109.234 71.3745 108.651 71.367 108.256L72.7136 108.254L72.7136 108.247Z" fill="#010302"/>
<path d="M112.715 69.2408L112.717 70.586L111.37 70.588L111.487 69.4992C111.729 69.1382 112.312 69.2483 112.708 69.2408L112.715 69.2408Z" fill="#010302"/>
<path d="M125.804 33.8101L125.846 34.7115C125.757 35.3634 123.805 34.0626 124.234 33.2369L125.804 33.8101Z" fill="#010302"/>
<path d="M155.231 88.525C155.369 88.3722 156.314 88.8493 156.453 89.0502C157.26 90.1862 154.713 90.9041 155.231 88.525Z" fill="#010302"/>
<path d="M79.9527 93.467C79.0158 93.614 78.7308 93.3093 78.3479 92.5264C79.2974 91.5612 80.2008 92.2671 79.9527 93.467Z" fill="#010302"/>
<path d="M106.277 81.3361C106.166 81.4957 105.056 81.4973 104.944 81.338C104.791 81.1233 104.957 80.1107 105.345 79.9992C106.199 79.7622 106.554 80.9404 106.284 81.336L106.277 81.3361Z" fill="#010302"/>
<path d="M143.613 51.7433C144.959 51.4709 146.46 52.2037 144.677 52.976C144.211 52.6923 143.531 52.4021 143.613 51.7433Z" fill="#010302"/>
<path d="M135.916 28.1166C137.047 27.789 137.119 29.5917 136.452 29.7245C135.786 29.8572 135.062 28.3605 135.916 28.1166Z" fill="#010302"/>
<path d="M108.429 76.2365L109.755 76.9349C109.105 78.5514 108.181 77.7762 108.429 76.2365Z" fill="#010302"/>
<path d="M38.8962 55.9237C39.944 55.7003 40.1912 58.6538 38.5161 57.1099C38.3768 56.7496 38.5353 56.0005 38.8962 55.9237Z" fill="#010302"/>
<path d="M66.4689 66.8948L66.467 65.5497L67.8072 65.9568C67.9336 66.9066 67.2187 66.977 66.4689 66.8948Z" fill="#010302"/>
<path d="M85.0677 97.7518L83.9777 97.6354L83.7191 96.4155L84.8091 96.5317L85.0677 97.7518Z" fill="#010302"/>
<path d="M156.804 63.0057C157.359 62.8177 158.54 63.3014 158.416 63.9395C158.236 64.8689 156.41 64.0325 156.804 63.0057Z" fill="#010302"/>
<path d="M87.0292 57.4626C87.8687 57.2256 88.544 58.6184 87.8293 58.7997C86.4971 59.1414 86.2867 57.6648 87.0292 57.4626Z" fill="#010302"/>
<path d="M110.229 20.6304C109.945 20.9498 108.541 19.6136 108.887 19.0237C110.226 18.8345 110.345 19.4515 110.229 20.6304Z" fill="#010302"/>
<path d="M83.2146 117.1C83.3048 117.031 83.9295 117.064 84.117 117.127C85.3046 117.513 83.9538 119.429 83.0074 117.773C83.1599 117.613 83.1869 117.121 83.2146 117.1Z" fill="#010302"/>
<path d="M139.576 48.7953L139.574 47.4501L140.914 47.8572C141.04 48.807 140.326 48.8774 139.576 48.7953Z" fill="#010302"/>
<path d="M58.1052 48.109C58.1827 48.8578 58.1143 49.579 57.1701 49.4486L56.7586 48.111L58.1052 48.109Z" fill="#010302"/>
<path d="M66.6167 73.0728C67.9489 72.7311 68.1593 74.2077 67.4169 74.4099C66.5773 74.6469 65.902 73.2541 66.6167 73.0728Z" fill="#010302"/>
<path d="M72.3976 77.093L72.3996 78.4382L71.3653 78.3981L71.058 77.095L72.3976 77.093Z" fill="#010302"/>
<path d="M51.0656 99.9575C51.808 99.7831 52.4072 101.308 51.297 101.552C50.4088 101.747 50.2815 100.139 51.0656 99.9575Z" fill="#010302"/>
<path d="M132.008 23.5527L132.01 24.8979L130.67 24.4908C130.543 23.541 131.258 23.4706 132.008 23.5527Z" fill="#010302"/>
<path d="M92.0275 77.0646C92.5826 76.8766 93.7633 77.3602 93.6393 77.9983C93.4601 78.9278 91.6334 78.0914 92.0275 77.0646Z" fill="#010302"/>
<path d="M62.4298 62.6016L61.103 61.9032C61.7532 60.2867 62.6775 61.0619 62.4298 62.6016Z" fill="#010302"/>
<path d="M42.2612 59.677C43.8018 59.4321 44.5875 60.3462 42.9642 61.0004L42.2612 59.677Z" fill="#010302"/>
<path d="M105.253 112.499C103.512 112.945 103.585 110.816 104.849 111.161C105.293 111.285 105.301 112.11 105.253 112.499Z" fill="#010302"/>
<path d="M163.4 59.7857C164.76 59.3608 164.867 60.8792 163.895 61.0955C163.375 61.2141 162.526 60.0574 163.4 59.7857Z" fill="#010302"/>
<path d="M76.9793 82.1898C75.2377 82.6361 75.311 80.5073 76.5748 80.8521C77.0192 80.9763 77.0274 81.8014 76.9793 82.1898Z" fill="#010302"/>
<path d="M139.28 31.6064C139.669 31.5573 140.502 31.563 140.62 32.0066C140.969 33.2681 138.839 33.3475 139.28 31.6064Z" fill="#010302"/>
<path d="M52.1572 91.6421C52.6776 91.5235 53.5261 92.6802 52.6519 92.9519C51.292 93.3769 51.1857 91.8585 52.1572 91.6421Z" fill="#010302"/>
<path d="M81.8116 78.1542C83.5532 77.7079 83.4799 79.8367 82.2161 79.4918C81.7717 79.3677 81.7636 78.5425 81.8116 78.1542Z" fill="#010302"/>
<path d="M124.612 111.93L123.571 111.897L123.263 110.594L124.353 110.71L124.612 111.93Z" fill="#010302"/>
<path d="M61.3263 43.5348C59.5847 43.9811 59.6579 41.8523 60.9217 42.1972C61.3662 42.3213 61.3743 43.1465 61.3263 43.5348Z" fill="#010302"/>
<path d="M61.3629 68.7814C63.1045 68.3351 63.0312 70.4639 61.7674 70.119C61.323 69.9949 61.3148 69.1697 61.3629 68.7814Z" fill="#010302"/>
<path d="M109.824 110.072L109.551 108.464C111.023 108.392 111.393 109.82 109.824 110.072Z" fill="#010302"/>
<path d="M135.796 36.4444C136.184 36.3953 137.017 36.401 137.136 36.8446C137.485 38.1061 135.354 38.1855 135.796 36.4444Z" fill="#010302"/>
<path d="M112.769 102.011C114.511 101.564 114.438 103.693 113.174 103.348C112.73 103.224 112.721 102.399 112.769 102.011Z" fill="#010302"/>
<path d="M104.727 118.407C106.469 117.961 106.396 120.09 105.132 119.745C104.688 119.621 104.679 118.796 104.727 118.407Z" fill="#010302"/>
<path d="M125.281 18.1956L125.283 19.2704C123.11 19.5162 123.143 17.9491 125.281 18.1956Z" fill="#010302"/>
<path d="M97.6334 51.2691L96.2868 51.271L96.2848 49.9328C97.1245 49.8067 97.7501 50.4229 97.6264 51.2691L97.6334 51.2691Z" fill="#010302"/>
<path d="M97.4408 119.513C97.8786 119.853 97.5121 120.852 96.8249 120.818L96.1219 119.494L97.4408 119.513Z" fill="#010302"/>
<path d="M77.8079 98.3031C77.7455 98.3726 77.1141 98.5537 76.8639 98.3322C76.426 97.9446 76.4185 97.5008 76.4663 96.9668C77.1807 96.6329 78.196 97.9073 77.8079 98.3101L77.8079 98.3031Z" fill="#010302"/>
<path d="M89.1352 121.654C90.8768 121.208 90.8035 123.337 89.5397 122.992C89.0953 122.868 89.0872 122.043 89.1352 121.654Z" fill="#010302"/>
<path d="M56.8412 105.046L55.5009 104.645L55.9091 103.709L57.097 104.373L56.8412 105.046Z" fill="#010302"/>
<path d="M109.302 123.504L109.03 122.166L110.113 122.289C110.773 122.975 110.191 123.669 109.302 123.504Z" fill="#010302"/>
<path d="M94.0867 104.187C94.9402 103.957 95.6016 105.357 94.8869 105.524C94.0959 105.747 93.1778 104.431 94.0867 104.187Z" fill="#010302"/>
<path d="M95.5476 111.188L95.8262 111.84L94.765 112.396L94.2288 111.17L95.5476 111.188Z" fill="#010302"/>
<path d="M120.307 14.9785C122.375 15.1142 121.177 17.2585 120.204 15.8801C119.898 15.4437 119.835 15.319 120.307 14.9785Z" fill="#010302"/>
<path d="M74.2924 86.4927C74.2929 86.8533 74.3767 87.2346 74.169 87.5746C73.435 88.7753 71.8902 86.1842 74.2924 86.4927Z" fill="#010302"/>
<path d="M147.397 61.9446C148.59 61.5268 148.822 63.3709 148.066 63.5523C147.309 63.7337 147.314 62.3399 147.397 61.9446Z" fill="#010302"/>
<path d="M175.621 62.708L174.587 62.6748C173.703 60.8871 175.966 60.87 175.621 62.708Z" fill="#010302"/>
<path d="M71.9351 35.7326C73.1701 35.3772 73.1731 37.4227 71.9371 37.0709C71.3954 36.9191 71.3939 35.886 71.9351 35.7326Z" fill="#010302"/>
<path d="M127.526 106.593L127.563 107.627L126.222 107.226C126.158 106.179 126.776 106.185 127.526 106.593Z" fill="#010302"/>
<path d="M100.558 115.189C101.801 115.25 101.989 116.054 101.095 116.797C100.713 116.395 99.7883 115.675 100.558 115.189Z" fill="#010302"/>
<path d="M70.7099 114.698C71.9449 114.343 71.9479 116.388 70.7118 116.037C70.1702 115.885 70.1687 114.852 70.7099 114.698Z" fill="#010302"/>
<path d="M81.8435 100.176L81.7066 101.522L80.5048 100.851L81.8435 100.176Z" fill="#010302"/>
<path d="M47.8885 48.6577C47.889 49.0183 47.9729 49.3995 47.7651 49.7396C47.0311 50.9402 45.4864 48.3492 47.8885 48.6577Z" fill="#010302"/>
<path d="M171.047 57.8817C171.265 59.7951 169.703 59.4715 169.7 57.8836L171.047 57.8817Z" fill="#010302"/>
<path d="M13.7771 71.2703C13.8901 72.5806 13.5987 72.6851 12.4668 72.3123L12.4305 71.2722L13.7771 71.2703Z" fill="#010302"/>
<path d="M86.6886 105.002L85.8836 105.149L85.3475 104.068C85.5546 103.25 87.104 104.253 86.6886 105.002Z" fill="#010302"/>
<path d="M147.921 54.9613C148.31 54.9122 149.143 54.9179 149.262 55.3615C149.624 56.6785 147.687 56.4455 147.921 54.9613Z" fill="#010302"/>
<path d="M119.069 13.3924C119.785 14.3275 117.684 15.8144 118.02 13.1027L119.069 13.3924Z" fill="#010302"/>
<path d="M62.1695 84.1112C62.6142 84.4434 62.1716 85.5396 61.5536 85.4157C60.3663 85.1816 61.2106 83.3914 62.1695 84.1112Z" fill="#010302"/>
<path d="M159.733 48.766L159.88 49.5702C159.23 51.0897 157.22 48.4438 159.733 48.766Z" fill="#010302"/>
<path d="M95.4617 32.7447C96.9468 32.5068 97.1856 34.441 95.8662 34.0823C95.4218 33.9582 95.4136 33.133 95.4617 32.7447Z" fill="#010302"/>
<path d="M166.683 54.7192C167.191 55.2454 166.761 55.9256 166.074 56.0028C165.136 55.3801 165.856 53.8536 166.683 54.7192Z" fill="#010302"/>
<path d="M183.943 67.0089C184.722 68.2004 182.939 68.4318 182.625 67.6626C182.249 66.7409 183.291 66.9613 183.943 67.0089Z" fill="#010302"/>
<path d="M46.8834 97.5436L45.8075 97.5452L45.8056 96.2069C46.8257 96.046 46.9793 96.6629 46.8834 97.5436Z" fill="#010302"/>
<path d="M63.2895 100.203C63.6381 101.271 62.1741 101.668 61.9439 100.871C61.6439 99.8382 62.6507 100.045 63.2895 100.203Z" fill="#010302"/>
<path d="M155.168 45.278C155.613 45.6725 154.67 46.8319 153.822 46.0842C153.378 45.6896 154.32 44.5303 155.168 45.278Z" fill="#010302"/>
<path d="M79.6387 58.8185C81.4499 58.483 81.265 60.2653 79.7721 59.8861C79.168 59.7344 79.6391 59.1097 79.6387 58.8185Z" fill="#010302"/>
<path d="M77.5691 120.326L76.4932 120.327C76.2963 118.539 77.7539 118.536 77.5691 120.326Z" fill="#010302"/>
<path d="M118.021 18.74L118.023 20.0783C116.545 20.2468 116.543 18.5688 118.021 18.74Z" fill="#010302"/>
<path d="M68.856 42.4492L67.7805 42.7212L67.5224 41.8062L68.4449 41.375L68.856 42.4492Z" fill="#010302"/>
<path d="M99.0154 99.6522C99.1545 99.8531 99.0095 100.387 99.0516 100.685L97.9757 100.687L97.9738 99.3487C98.0569 99.2584 98.9528 99.5761 99.0085 99.6523L99.0154 99.6522Z" fill="#010302"/>
<path d="M92.8117 62.5576C93.339 62.3904 94.2561 62.9785 94.1527 63.4918C93.9667 64.4489 92.4311 63.3694 92.8117 62.5576Z" fill="#010302"/>
<path d="M150.318 41.7903L149.235 41.667L148.977 40.7244L150.06 40.8476L150.318 41.7903Z" fill="#010302"/>
<path d="M89.8899 101.219L88.8418 101.241L88.8402 100.166C89.8188 100.082 90.3951 100.185 89.8899 101.219Z" fill="#010302"/>
<path d="M90.5885 27.6691L90.6108 28.7161L89.5349 28.7177C89.4502 27.7401 89.5535 27.1645 90.5885 27.6691Z" fill="#010302"/>
<path d="M61.4189 107.459L61.2882 108.27L60.3446 108.535L60.3427 107.19L61.4189 107.459Z" fill="#010302"/>
<path d="M62.9869 78.1815C61.5922 78.5302 61.6866 76.6579 62.5823 76.8438C62.9989 76.9264 63.0488 77.7861 62.9869 78.1815Z" fill="#010302"/>
<path d="M89.9154 128.407C89.9919 128.462 90.3124 129.356 90.2223 129.439C89.3826 129.579 88.5076 129.248 89.013 128.366C89.2838 128.408 89.7278 128.268 89.9154 128.4L89.9154 128.407Z" fill="#010302"/>
<path d="M65.5961 111.218C66.4911 110.967 66.8468 112.083 66.1321 112.285C65.237 112.536 64.8814 111.42 65.5961 111.218Z" fill="#010302"/>
<path d="M90.7265 108.491L89.6714 108.472C89.5456 107.91 89.2123 107.793 89.7809 107.418L90.3154 107.417C90.7392 107.701 90.7813 107.992 90.7196 108.484L90.7265 108.491Z" fill="#010302"/>
<path d="M154.105 53.8706L154.103 52.7959C154.735 52.684 155.068 53.0094 155.444 53.4665C155.111 53.9732 154.674 53.8976 154.105 53.8706Z" fill="#010302"/>
<path d="M113.449 14.9885L112.373 14.99L112.374 16.0648L113.45 16.0632L113.449 14.9885Z" fill="#010302"/>
<path d="M99.5966 107.944L99.5982 109.019L98.5223 109.021L98.646 108.209C98.8607 107.862 99.2079 107.931 99.5897 107.944L99.5966 107.944Z" fill="#010302"/>
<path d="M162.973 52.5195L161.897 52.5211L161.896 51.4463C162.708 51.3273 163.09 51.6804 162.973 52.5195Z" fill="#010302"/>
<path d="M93.7169 131.584C93.7795 131.646 93.6765 132.395 93.7185 132.659L92.9133 132.66C92.2736 131.884 93.3694 131.238 93.7169 131.584Z" fill="#010302"/>
<path d="M72.8198 181.573C72.3548 181.609 71.9105 181.595 71.4661 181.457C70.6814 181.209 66.942 177.817 66.2259 177.027C62.8818 173.316 64.898 170.768 65.5168 166.655C66.1355 162.542 66.1048 160.525 64.1424 157.061C63.5857 156.077 62.342 155.295 62.5691 153.929C64.5774 155.458 66.8581 158.215 67.1187 160.801C67.2172 161.736 66.9988 164.316 66.8823 165.343C66.574 168.117 65.1359 172.092 66.1462 174.684C66.6269 175.917 69.5182 178.458 70.6786 179.288C71.6166 179.959 73.1021 179.978 72.8198 181.58L72.8198 181.573Z" fill="#010302"/>
<path d="M88.896 143.413C89.9993 147.953 86.3818 151.987 87.978 156.568C88.4729 157.989 90.9137 161.002 92.0052 162.221C92.3528 162.608 92.8597 162.732 93.1935 163.183C93.8543 164.09 92.8135 164.348 92.0075 163.829C90.5346 162.881 89.6218 160.456 88.1209 159.383C84.7419 155.561 86.5393 150.482 87.7616 146.161C88.0171 145.252 87.7237 143.914 88.896 143.406L88.896 143.413Z" fill="#010302"/>
<path d="M161.488 143.301C159.711 143.241 158.674 141.495 157.458 140.485C154.407 137.945 151.245 135.578 148.16 133.121C146.137 131.508 142.677 129.232 141.154 127.23C140.876 126.863 140.647 126.704 140.757 126.149C141.187 126.086 141.493 126.349 141.813 126.57C142.639 127.138 143.738 128.037 144.53 128.688C149.123 132.481 153.773 136.302 158.394 140.081C159.534 141.016 161.7 141.588 161.488 143.301Z" fill="#010302"/>
<path d="M79.2833 187.201C79.7893 186.687 81.6876 188.973 82.1115 189.34C86.5804 193.196 91.7778 196.891 96.5308 200.448C97.1145 200.884 98.1145 201.264 98.5385 201.665C99.2545 202.344 98.9641 203.135 97.9991 203.032C97.3812 202.964 95.1844 200.623 94.4895 200.076C91.1817 197.481 87.562 195.233 84.2749 192.561C83.2812 191.751 80.0984 189.26 79.5904 188.373C79.3747 187.992 79.2146 187.659 79.2833 187.201Z" fill="#010302"/>
<path d="M116.915 184.463C116.499 184.88 113.629 182.624 113.143 182.194C112.656 181.765 112.398 181.128 112.072 180.844C109.153 178.303 105.741 176.193 102.913 173.611C102.412 173.154 101.71 172.656 101.841 171.865C102.286 172.08 102.744 172.287 103.168 172.557C107.142 175.096 110.965 178.793 114.634 181.783C115.593 182.565 117.176 182.937 116.922 184.47L116.915 184.463Z" fill="#010302"/>
<path d="M128.154 147.115C129.785 147.064 130.85 149.052 132.059 150.056C135.507 152.928 139.654 155.391 142.963 158.499C143.672 159.164 143.624 159.865 142.61 159.672C141.86 159.527 138.642 156.19 137.711 155.428C135.306 153.477 132.444 151.747 130.178 149.532C129.524 148.895 128.87 147.793 128.161 147.115L128.154 147.115Z" fill="#010302"/>
<path d="M117.654 133.969C118.375 133.15 118.789 136.679 118.859 136.928C119.557 139.333 121.292 139.698 121.969 141.881C121.969 142.138 121.275 142.042 121.074 141.973C120.706 141.842 117.66 138.136 117.66 137.866L117.654 133.969Z" fill="#010302"/>
<path d="M135.646 119.437C135.147 120.353 137.053 123.207 135.512 123.203C134.416 123.204 133.417 119.059 135.646 119.437Z" fill="#010302"/>
<path d="M33.9576 173.309C34.3255 173.322 35.9603 175.795 36.3774 176.259C38.199 178.295 40.575 179.762 40.8363 182.819C40.9493 184.164 40.6182 185.6 40.6547 186.814C40.691 187.958 41.2273 189.177 41.3189 190.155C41.3612 190.619 41.3683 190.73 40.9662 191.022C39.8906 191.252 39.303 188.091 39.2464 187.37C39.1405 186.129 39.5347 185.137 39.4912 183.896C39.3606 179.951 35.8668 178.361 34.1409 175.264C34.0017 175.015 33.0482 173.276 33.9506 173.309L33.9576 173.309Z" fill="#010302"/>
<path d="M46.9554 238.157C48.3366 238.121 50.2598 238.451 51.4894 239.121C52.719 239.792 54.9785 242.251 54.8835 243.742C54.4283 250.579 49.0139 255.233 42.3592 251.768C35.4265 248.159 40.417 238.34 46.9623 238.157L46.9554 238.157ZM46.4856 239.683C42.0927 240.355 37.9444 246.879 42.2802 249.959C47.6999 253.806 53.3649 249.617 53.4741 243.542C53.3896 242.738 52.6051 242.628 52.1949 242.171C51.6735 241.597 51.4573 240.924 50.6792 240.461C49.8178 239.956 47.4502 239.53 46.4786 239.677L46.4856 239.683Z" fill="#010302"/>
<path d="M19.0783 203.944C18.6347 204.402 15.8689 202.194 16.1174 201.265C17.6652 201.172 19.1939 202.307 19.0783 203.944Z" fill="#010302"/>
<path d="M58.1239 257.32C56.84 257.503 55.4856 256.929 55.7195 255.459C56.0938 255.084 58.0322 256.308 58.4006 256.661L58.1308 257.32L58.1239 257.32Z" fill="#010302"/>
<path d="M23.117 207.967C22.2082 208.356 20.5319 205.973 20.9617 205.557C22.3427 205.347 23.2331 206.705 23.117 207.967Z" fill="#010302"/>
<path d="M63.9569 254.143C64.6576 253.92 65.9353 254.224 66.4706 254.777C66.0066 255.541 64.7573 255.654 63.9587 255.412C63.3268 255.219 63.3325 254.345 63.9569 254.15L63.9569 254.143Z" fill="#010302"/>
<path d="M26.0809 212.795L26.3405 214.66C24.3841 215.384 24.0679 212.771 26.0809 212.795Z" fill="#010302"/>
<path d="M25.2726 210.647C24.9469 211.001 23.1673 209.215 23.6591 208.5C25.1998 208.31 25.4234 209.322 25.2726 210.647Z" fill="#010302"/>
<path d="M61.9042 255.45C61.649 256.587 60.9837 257.33 59.7547 257.062C59.4196 255.738 60.7726 255.361 61.9042 255.45Z" fill="#010302"/>
<path d="M25.5555 223.807C23.4802 223.928 23.9823 220.766 25.7062 222.469L25.5555 223.807Z" fill="#010302"/>
<path d="M69.6772 254.655L69.9072 255.313C69.1801 256.486 67.2223 256.205 68.1224 254.671L69.6703 254.655L69.6772 254.655Z" fill="#010302"/>
<path d="M52.2191 254.119C51.1851 254.259 50.2199 253.99 50.3361 252.783L51.9675 252.899L52.2191 254.119Z" fill="#010302"/>
<path d="M25.1505 217.366C26.0664 217.129 26.1811 219.632 24.8825 219.246C24.1046 218.942 24.7203 217.478 25.1505 217.366Z" fill="#010302"/>
<path d="M54.644 255.731C54.2692 255.759 53.9222 255.773 53.5749 255.594C51.8869 254.764 54.9388 253.206 54.644 255.731Z" fill="#010302"/>
<path d="M25.9685 226.227C26.8081 226.004 27.6499 227.334 26.7687 227.571C25.8875 227.808 25.0873 226.464 25.9685 226.227Z" fill="#010302"/>
<path d="M73.2011 257.853L72.118 257.723L71.8529 256.781L72.9359 256.904L73.2011 257.853Z" fill="#010302"/>
<path d="M176.38 49.8444C177.194 51.0289 173.96 51.5537 174.804 49.2781C175.012 49.1253 176.31 49.7405 176.38 49.8444Z" fill="#010302"/>
<path d="M179.877 49.035L180.178 50.6086C178.38 50.944 177.94 48.6634 179.877 49.035Z" fill="#010302"/>
<path d="M171.029 45.7889C170.37 45.8869 169.141 45.854 169.418 44.8551C169.68 43.8978 171.396 44.7968 171.029 45.7889Z" fill="#010302"/>
<path d="M173.984 44.4463L173.32 45.7855L172.645 44.8504L173.984 44.4463Z" fill="#010302"/>
<path d="M140.878 18.173L140.345 19.3941C139.443 19.4162 139.415 19.021 139.552 18.1957L140.878 18.173Z" fill="#010302"/>
<path d="M133.879 16.5745L132.935 16.3123C132.246 15.5991 133.661 14.8968 134.016 15.4995L133.879 16.5745Z" fill="#010302"/>
</g>
<defs>
<clipPath id="clip0_2_129">
<rect width="212" height="280" fill="white" transform="translate(0 0.307281) rotate(-0.0830468)"/>
</clipPath>
</defs>
</svg>
