<svg width="388" height="306" viewBox="0 0 388 306" fill="none" xmlns="http://www.w3.org/2000/svg">
<path d="M51.53 28.4676C50.62 27.8976 49.72 27.3276 48.81 26.7676C48.74 26.8376 48.67 26.8976 48.6 26.9676C48.75 27.5476 48.93 28.1276 49.03 28.7276C49.06 28.9176 48.88 29.1376 48.8 29.3476C48.63 29.2476 48.35 29.1776 48.3 29.0276C47.91 27.8976 47.55 26.7476 47.22 25.5976C47.19 25.4776 47.32 25.2276 47.44 25.1676C47.56 25.1076 47.85 25.1676 47.9 25.2576C48.72 26.6676 50.26 27.0476 51.54 27.7076C59.93 32.0176 68.36 36.2476 76.8 40.4676C87.09 45.6176 97.4 50.7376 107.71 55.8476C108.49 56.2376 109.33 56.4976 110.13 56.8276C110.52 56.9876 110.89 57.1776 111.27 57.3576C111.24 57.4576 111.21 57.5676 111.18 57.6676C110.73 57.5676 110.23 57.5576 109.83 57.3576C105.7 55.3676 101.56 53.3776 97.45 51.3476C94.22 49.7476 91.02 48.0976 87.52 46.5876C87.92 48.2176 88.27 49.8576 88.74 51.4676C90.32 56.7776 91.94 62.0676 93.56 67.3576C96.07 75.5776 98.59 83.7976 101.12 92.0076C101.7 93.8876 102.41 95.7176 102.9 97.6176C103.28 99.0776 102.85 99.7476 101.38 100.118C98.49 100.858 95.59 101.558 92.66 102.158C87.24 103.258 81.79 104.258 76.36 105.318C69.6 106.628 62.84 107.948 56.09 109.288C48.2 110.858 40.31 112.488 32.41 114.028C28.98 114.698 25.51 115.158 22.08 115.838C20.89 116.068 19.71 116.558 18.66 117.168C18.08 117.498 17.56 118.268 17.4 118.928C16.56 122.388 15.86 125.888 15.07 129.368C13.92 134.448 12.71 139.518 11.59 144.608C11.1 146.808 10.74 149.048 10.41 151.278C10.36 151.648 10.67 152.278 11 152.458C14.15 154.218 17.36 155.848 20.5 157.628C28.96 162.428 37.37 167.308 45.84 172.088C48.79 173.748 51.89 175.128 54.87 176.738C64.37 181.898 73.84 187.108 83.32 192.308C92.42 197.298 101.52 202.298 110.61 207.298C114.09 209.208 117.52 211.198 121.01 213.088C124.44 214.948 127.93 216.678 131.35 218.538C135.44 220.768 139.47 223.128 143.56 225.358C150.02 228.878 156.53 232.298 162.97 235.858C169.47 239.458 175.89 243.198 182.38 246.818C188.64 250.318 194.93 253.778 201.23 257.208C206.96 260.318 212.75 263.308 218.47 266.428C224.48 269.698 230.45 273.058 236.42 276.398C236.9 276.668 237.32 277.028 237.76 277.348C237.7 277.428 237.64 277.518 237.58 277.608C236.47 276.978 235.38 276.328 234.26 275.728C230.6 273.778 226.9 271.888 223.25 269.898C216.73 266.328 210.26 262.688 203.75 259.108C196.28 254.998 188.78 250.968 181.32 246.838C175.11 243.398 168.97 239.818 162.75 236.388C156.82 233.118 150.8 230.008 144.86 226.758C137.67 222.828 130.53 218.788 123.34 214.878C116.56 211.188 109.69 207.668 102.93 203.948C94.28 199.188 85.74 194.228 77.09 189.468C70.77 185.988 64.31 182.778 57.99 179.288C47.54 173.518 37.17 167.608 26.74 161.798C21.36 158.798 15.94 155.898 10.53 152.958C10.3 152.828 9.96001 152.768 9.71001 152.818C8.32001 153.108 6.95001 153.438 5.47001 154.008C6.27001 154.448 7.05001 154.898 7.86001 155.308C12.12 157.458 16.42 159.528 20.63 161.758C22.87 162.938 24.93 164.458 27.15 165.698C30.02 167.288 32.97 168.708 35.86 170.258C41.41 173.238 46.95 176.248 52.47 179.278C60.6 183.758 68.74 188.228 76.83 192.778C82.61 196.028 88.28 199.458 94.05 202.728C98.17 205.058 102.41 207.178 106.53 209.508C111.7 212.428 116.78 215.508 121.94 218.438C123.8 219.498 125.79 220.318 127.72 221.268C129.06 221.928 130.39 222.598 131.7 223.318C141.49 228.638 151.3 233.938 161.07 239.308C169.69 244.038 178.25 248.868 186.87 253.608C190.67 255.698 194.55 257.628 198.36 259.698C200.41 260.808 202.34 262.128 204.38 263.238C209.72 266.148 215.1 268.958 220.43 271.878C224.46 274.078 228.43 276.378 232.42 278.648C232.64 278.768 232.79 278.998 232.84 279.368C232.53 279.218 232.2 279.088 231.9 278.918C228.88 277.228 225.89 275.488 222.84 273.858C218.83 271.708 214.75 269.698 210.76 267.508C207.25 265.588 203.82 263.508 200.36 261.498C199.38 260.938 198.41 260.368 197.42 259.828C190.28 255.888 183.14 251.928 175.99 248.008C171.68 245.648 167.34 243.338 163.01 241.008C160.41 239.608 157.79 238.258 155.21 236.828C149.37 233.608 143.57 230.318 137.72 227.138C134.04 225.138 130.26 223.328 126.57 221.358C122.46 219.168 118.4 216.878 114.32 214.638C108.03 211.178 101.71 207.788 95.46 204.258C89.5 200.888 83.67 197.278 77.69 193.938C70.15 189.738 62.49 185.748 54.93 181.588C49.25 178.468 43.66 175.198 38 172.038C35.43 170.598 32.78 169.278 30.2 167.868C27.01 166.118 23.88 164.248 20.66 162.558C16.53 160.388 12.34 158.348 8.18001 156.248C7.09001 155.698 6.01001 155.108 4.75001 154.448C4.50001 155.598 4.26001 156.578 4.08001 157.568C3.53001 160.688 2.99001 163.808 2.46001 166.928C1.95001 169.908 1.43001 172.888 0.990014 175.868C0.930014 176.268 1.21001 176.898 1.54001 177.128C3.13001 178.268 4.74001 179.408 6.44001 180.368C10.78 182.828 15.19 185.168 19.54 187.598C25.71 191.038 31.86 194.508 38.02 197.968C43.25 200.908 48.46 203.898 53.72 206.788C59.62 210.028 65.61 213.128 71.49 216.408C75.27 218.518 78.89 220.928 82.67 223.048C87.04 225.498 91.53 227.748 95.94 230.138C97.57 231.018 99.12 232.058 100.73 232.978C104.39 235.068 108.07 237.128 111.73 239.218C113.47 240.208 115.16 241.288 116.92 242.248C122.7 245.408 128.41 248.728 134.33 251.608C138.44 253.608 142.5 255.638 146.22 258.268C150.46 261.268 155.17 263.448 159.53 266.208C165.38 269.918 171.63 272.878 177.57 276.428C182.25 279.218 187.25 281.478 192.07 284.038C194.83 285.508 197.51 287.128 200.24 288.668C205.44 291.588 210.66 294.498 215.87 297.418C219.68 299.558 223.47 301.738 227.3 303.838C227.77 304.098 228.49 304.208 229 304.048C235.21 302.188 241.41 300.308 247.58 298.348C253.31 296.538 259 294.638 264.71 292.768C271.77 290.458 278.82 288.138 285.88 285.838C287.13 285.438 288.43 285.188 289.67 284.778C292.95 283.688 296.2 282.528 299.47 281.418C302.64 280.348 305.81 279.288 309 278.248C311.35 277.478 313.72 276.748 316.08 276.008C318.96 275.108 321.94 274.428 324.72 273.278C328.74 271.598 332.93 270.548 337.08 269.288C343.52 267.328 349.87 265.078 356.27 262.998C360.42 261.638 364.59 260.338 368.77 259.048C369.65 258.778 370.13 258.368 370.38 257.398C372.41 249.538 374.53 241.708 376.57 233.848C378.11 227.928 379.55 221.988 381.05 216.058C381.13 215.748 381.28 215.448 381.4 215.148L381.74 215.208C381.74 215.568 381.82 215.938 381.74 216.268C380.57 221.118 379.4 225.968 378.19 230.808C377.34 234.198 376.42 237.568 375.52 240.948C373.99 246.678 372.46 252.408 370.87 258.128C370.74 258.588 370.22 259.118 369.76 259.278C364.43 261.118 359.08 262.938 353.71 264.668C350.49 265.708 347.2 266.528 343.96 267.518C339.3 268.948 334.64 270.398 330 271.918C328.59 272.378 327.29 273.188 325.87 273.628C320.04 275.458 314.17 277.178 308.33 279.008C305.69 279.838 303.11 280.848 300.49 281.748C296.77 283.018 293.05 284.278 289.33 285.518C284.6 287.088 279.86 288.668 275.11 290.198C269.26 292.088 263.38 293.898 257.53 295.798C253.65 297.058 249.82 298.468 245.94 299.708C240.63 301.398 235.26 302.888 229.99 304.678C228.6 305.148 227.69 304.878 226.57 304.248C221.42 301.358 216.22 298.568 211.08 295.678C206.9 293.318 202.79 290.838 198.62 288.438C196.44 287.188 194.25 285.948 192.02 284.788C188.27 282.848 184.44 281.058 180.72 279.048C176.66 276.848 172.71 274.448 168.69 272.178C167.11 271.288 165.41 270.578 163.83 269.688C161.65 268.448 159.53 267.108 157.39 265.808C152.55 262.848 147.75 259.818 142.85 256.948C139.87 255.208 136.72 253.768 133.68 252.128C129.42 249.818 125.21 247.428 120.96 245.098C117.48 243.188 113.95 241.378 110.51 239.418C106.87 237.348 103.32 235.148 99.7 233.038C98 232.048 96.25 231.148 94.54 230.198C92.83 229.248 91.14 228.238 89.41 227.308C88.1 226.608 86.71 226.058 85.43 225.318C81.04 222.798 76.71 220.188 72.31 217.688C68.42 215.468 64.46 213.368 60.55 211.188C54.67 207.908 48.81 204.588 42.92 201.318C40.82 200.158 38.65 199.118 36.55 197.958C31.32 195.078 26.12 192.138 20.89 189.248C15.25 186.128 9.58001 183.048 3.97001 179.878C2.68001 179.148 1.55001 178.128 0.400014 177.188C0.190014 177.018 0.100014 176.538 0.150014 176.218C0.510014 173.728 0.890014 171.248 1.32001 168.778C2.11001 164.148 2.94001 159.528 3.74001 154.908C3.91001 153.898 4.33001 153.268 5.47001 153.158C6.52001 153.058 7.54001 152.758 8.58001 152.558C9.32001 152.418 9.69001 152.008 9.82001 151.248C10.34 148.088 10.8 144.908 11.47 141.778C12.18 138.468 13.16 135.218 13.91 131.918C14.54 129.148 14.98 126.338 15.59 123.568C16.01 121.648 16.5 119.738 17.08 117.868C17.53 116.418 18.97 116.078 20.18 115.758C21.86 115.308 23.64 115.248 25.34 114.888C32.08 113.488 38.8 111.988 45.55 110.638C50.34 109.678 55.17 108.958 59.96 108.038C68.62 106.378 77.27 104.668 85.91 102.938C90.91 101.938 95.89 100.888 100.87 99.7876C102.42 99.4476 102.55 99.2376 102.1 97.7476C100.88 93.6776 99.53 89.6476 98.3 85.5776C95.81 77.3076 93.38 69.0276 90.92 60.7476C89.79 56.9376 88.37 53.1976 87.61 49.3176C87.11 46.7776 85.9 45.5076 83.69 44.4776C77.88 41.7776 72.15 38.9076 66.41 36.0476C61.62 33.6576 56.87 31.1876 52.1 28.7576C51.88 28.6476 51.63 28.5776 51.39 28.4876L51.53 28.4676Z" fill="black" stroke="#1D1D1B" stroke-width="0.5" stroke-miterlimit="10"/>
<path d="M312.33 112.978C311.87 112.798 311.4 112.638 310.95 112.418C296.03 105.288 281.12 98.1476 266.2 91.0076C235.02 76.0976 203.84 61.1876 172.66 46.2676C148.84 34.8776 125.02 23.4776 101.2 12.0776C93.68 8.4776 86.14 4.9076 78.64 1.2576C77.48 0.697599 76.65 1.0776 75.9 1.7776C71.08 6.2776 66.35 10.8676 61.48 15.3076C59.36 17.2476 56.98 18.8876 54.75 20.7076C53.12 22.0476 51.55 23.4676 49.94 24.8376C49.61 25.1176 49.23 25.3276 48.87 25.5676C48.79 25.4776 48.71 25.3876 48.63 25.2976C48.86 25.0176 49.06 24.6976 49.33 24.4676C53.52 21.0176 57.82 17.6976 61.89 14.1076C66.48 10.0676 70.85 5.7776 75.33 1.6076C75.86 1.1176 76.43 0.607599 77.07 0.317599C77.43 0.157599 78.04 0.307599 78.45 0.497599C85.06 3.6376 91.66 6.7976 98.27 9.9576C122.25 21.4376 146.24 32.9176 170.22 44.3876C193.84 55.6876 217.47 66.9876 241.09 78.2876C264.32 89.3976 287.55 100.518 310.78 111.638C311.38 111.928 311.94 112.268 312.52 112.588C312.45 112.708 312.38 112.838 312.31 112.958L312.33 112.978Z" fill="black" stroke="#1D1D1B" stroke-width="0.5" stroke-miterlimit="10"/>
<path d="M381.35 214.238C381.17 214.358 381 214.568 380.82 214.578C378.63 214.738 376.42 212.248 376.84 210.098C377.17 208.418 377.91 206.928 379.1 205.688C380.4 204.338 381.24 204.148 382.94 204.868C383.6 205.148 383.95 205.038 384.14 204.308C384.77 201.838 385.42 199.378 386.08 196.918C386.28 196.188 385.88 195.898 385.33 195.558C382.37 193.718 379.06 192.658 375.94 191.188C372.22 189.438 368.66 187.358 364.99 185.488C360.77 183.338 356.53 181.238 352.27 179.168C346.6 176.408 340.9 173.728 335.24 170.968C331.52 169.158 327.84 167.278 323.8 165.258C326.88 180.518 329.01 195.718 333.21 210.528C333.13 210.478 333.01 210.448 332.99 210.378C330.61 203.428 329.18 196.258 327.87 189.058C326.89 183.648 325.67 178.278 324.62 172.878C322.03 159.508 319.48 146.128 316.9 132.748C315.76 126.848 314.59 120.958 313.43 115.058C313.41 114.958 313.34 114.868 313.16 114.488C303.6 123.538 294.31 132.718 284.75 141.598C294.13 132.128 303.52 122.678 313.59 113.468C313.9 114.898 314.17 116.008 314.38 117.128C316.52 128.398 318.62 139.678 320.82 150.938C321.68 155.338 322.74 159.688 323.73 164.058C323.78 164.268 323.94 164.528 324.12 164.608C334.23 169.538 344.37 174.408 354.44 179.398C360.77 182.528 366.99 185.888 373.3 189.078C375.47 190.178 377.78 190.988 379.98 192.038C382.08 193.038 384.13 194.148 386.18 195.258C386.78 195.588 386.91 196.168 386.73 196.868C386.1 199.228 385.5 201.588 384.93 203.958C384.76 204.648 384.71 205.368 384.57 206.328C383.93 206.048 383.27 205.778 382.63 205.478C381.11 204.768 380.64 204.838 379.54 206.118C378.23 207.638 377.52 209.418 377.73 211.438C377.78 211.958 378.21 212.578 378.65 212.878C379.49 213.448 380.46 213.808 381.37 214.258H381.36L381.35 214.238Z" fill="black" stroke="#1D1D1B" stroke-width="0.5" stroke-miterlimit="10"/>
<path d="M32.83 128.008C32.77 128.668 32.78 129.338 32.65 129.988C31.51 135.738 30.31 141.478 29.2 147.228C28.87 148.938 28.64 150.688 28.6 152.428C28.53 155.658 29.7 158.418 32.53 160.138C36.01 162.258 39.59 164.218 43.16 166.178C50.53 170.238 57.9 174.288 65.3 178.278C69.85 180.728 74.51 182.988 79.06 185.448C83.67 187.938 88.2 190.598 92.78 193.138C101.73 198.098 110.7 203.028 119.66 207.978C124.57 210.688 129.48 213.408 134.38 216.128C139.22 218.818 144.04 221.528 148.88 224.218C157.73 229.138 166.59 234.028 175.42 238.958C181.78 242.508 188.09 246.128 194.44 249.698C199.11 252.318 203.79 254.908 208.47 257.498C210.25 258.488 212.06 259.438 213.85 260.408C214.18 260.588 214.49 260.838 214.8 261.058L214.67 261.348C214.34 261.218 213.99 261.118 213.68 260.948C209.86 258.828 206.04 256.698 202.23 254.568C200.99 253.878 199.77 253.158 198.53 252.468C193.44 249.638 188.34 246.808 183.24 243.998C177.79 240.988 172.32 238.018 166.89 234.988C162.85 232.728 158.86 230.388 154.84 228.108C149.11 224.858 143.4 221.558 137.62 218.388C129.48 213.918 121.25 209.608 113.12 205.108C103.24 199.648 93.47 193.988 83.58 188.548C78.13 185.548 72.51 182.848 67 179.948C64.68 178.728 62.48 177.298 60.18 176.048C52.11 171.668 44.02 167.338 35.94 162.978C34.63 162.268 33.27 161.628 32.03 160.798C28.51 158.418 27.46 154.948 28.14 150.948C29.09 145.388 30.24 139.858 31.26 134.308C31.56 132.668 31.73 130.998 31.99 129.348C32.07 128.858 32.27 128.388 32.41 127.918C32.55 127.948 32.69 127.978 32.83 128.008Z" fill="black" stroke="#1D1D1B" stroke-width="0.5" stroke-miterlimit="10"/>
<path d="M306.34 198.288C306.09 197.098 305.87 195.908 305.59 194.718C303.94 187.698 302.13 180.708 300.67 173.648C299.34 167.188 298.48 160.638 297.25 154.168C296.27 148.978 295.06 143.838 293.94 138.668C293.93 138.598 293.87 138.538 293.71 138.258C291.03 140.768 288.4 143.228 285.77 145.688C285.68 145.588 285.6 145.498 285.51 145.398C287.51 143.458 289.46 141.468 291.52 139.588C296.85 134.728 302.22 129.908 307.57 125.078C308.21 124.498 308.85 123.908 309.51 123.338C310.35 122.608 311.51 122.948 312.17 124.218C312.6 125.048 312.96 125.958 313.15 126.868C315.91 140.728 318.62 154.598 321.36 168.458C322.66 174.998 324.05 181.518 325.32 188.058C326.51 194.208 327.55 200.388 328.73 206.538C329.09 208.398 329.69 210.208 330.14 212.038C330.26 212.528 330.27 213.048 330.32 213.548C330.2 213.568 330.08 213.578 329.96 213.598C329.2 210.468 328.32 207.358 327.71 204.198C325.79 194.368 323.99 184.518 322.12 174.678C319.94 163.228 317.77 151.768 315.53 140.328C314.66 135.868 313.62 131.428 312.61 126.988C312.37 125.948 312.24 124.758 311.12 124.198C310.73 124.008 310.14 123.978 309.73 124.118C309.21 124.308 308.73 124.708 308.31 125.098C305.19 127.948 302.11 130.838 298.98 133.678C298.38 134.228 298.45 134.798 298.57 135.458C299.96 142.758 301.35 150.058 302.72 157.358C303.92 163.728 304.94 170.138 306.31 176.478C307.37 181.388 308.85 186.198 310.14 191.058C310.3 191.668 310.41 192.288 310.54 192.908C310.44 192.928 310.35 192.958 310.25 192.978C309.73 191.258 309.24 189.538 308.69 187.828C306.17 179.958 304.86 171.828 303.38 163.728C301.68 154.408 299.87 145.108 298.11 135.808C298.06 135.528 297.97 135.258 297.8 134.648C296.6 135.738 295.52 136.668 294.52 137.678C294.34 137.858 294.44 138.378 294.51 138.718C295.29 142.388 296.19 146.038 296.87 149.718C298.26 157.168 299.39 164.668 300.9 172.088C302.4 179.478 304.23 186.798 305.9 194.148C306.2 195.478 306.45 196.818 306.72 198.158C306.59 198.188 306.46 198.218 306.33 198.248L306.34 198.288Z" fill="black" stroke="#1D1D1B" stroke-width="0.5" stroke-miterlimit="10"/>
<path d="M284.54 142.698C283.94 142.568 283.57 142.718 283.76 143.408C284.01 144.288 284.31 145.148 284.58 145.958C284.08 145.971 283.643 145.264 283.27 143.838L282.12 143.588C282.52 143.168 282.81 142.868 283.2 142.458C282.8 142.198 282.46 141.988 281.93 141.638C281.89 142.148 281.84 142.448 281.85 142.738C281.9 144.468 281.11 145.028 279.5 144.288C277.22 143.238 274.93 142.198 272.7 141.038C270.05 139.668 267.52 138.028 264.8 136.818C263.27 136.138 263.08 135.008 262.99 133.758C262.93 132.938 262.62 132.458 261.97 132.128C259.58 130.888 257.18 129.658 254.78 128.448C251.1 126.598 247.26 125.018 243.77 122.878C238.16 119.448 231.89 117.518 226.06 114.618C222.7 112.948 219.35 111.248 216.12 109.358C211.7 106.768 206.99 104.838 202.35 102.718C197.18 100.358 192.14 97.7176 187.07 95.1576C179.4 91.2876 171.75 87.3576 164.07 83.4876C156.63 79.7276 149.05 76.2676 141.72 72.2476C133.94 67.9776 125.73 64.5076 117.71 60.6776C116.82 60.2476 115.98 59.6976 115.12 59.2076C115.17 59.1176 115.22 59.0276 115.28 58.9376C116.62 59.6076 117.93 60.3276 119.29 60.9576C123.23 62.7576 127.24 64.4276 131.13 66.3176C135.78 68.5876 140.31 71.0776 144.93 73.3976C151.67 76.7776 158.45 80.0676 165.19 83.4476C172.48 87.1076 179.76 90.7876 187 94.5576C194.21 98.3076 201.54 101.788 208.97 105.078C213.12 106.918 216.95 109.458 221.04 111.458C225.61 113.698 230.32 115.668 234.94 117.808C237.12 118.818 239.26 119.908 241.4 120.998C245.16 122.918 248.91 124.868 252.67 126.788C255.84 128.418 259.03 130.028 262.19 131.668C262.92 132.048 263.37 132.558 263.41 133.528C263.46 134.848 263.99 135.888 265.41 136.578C270.06 138.838 274.62 141.278 279.22 143.648C279.5 143.798 279.81 143.898 280.28 144.098C280.23 143.168 280.19 142.358 280.14 141.558C280.24 141.538 280.34 141.528 280.43 141.508C280.62 142.308 280.81 143.108 281.05 144.108C281.77 142.588 281.43 141.418 280.29 140.838C275.41 138.378 270.53 135.918 265.66 133.448C265.15 133.188 264.68 132.868 264.18 132.578C264.21 132.498 264.24 132.408 264.27 132.328C264.54 132.418 264.82 132.478 265.07 132.598C271.38 135.778 277.69 138.958 283.99 142.148C284.2 142.258 284.34 142.498 284.51 142.678H284.52L284.54 142.698Z" fill="black" stroke="#1D1D1B" stroke-width="0.5" stroke-miterlimit="10"/>
<path d="M188.66 161.758C189.02 162.158 189.4 162.538 189.75 162.948C191.3 164.728 193.37 165.728 195.47 166.688C195.97 166.918 196.3 166.788 196.41 166.198C196.98 163.198 197.58 160.198 198.09 157.188C198.14 156.878 197.76 156.318 197.43 156.138C192.15 153.188 186.77 150.468 181.26 147.948C175.54 145.328 170.08 142.138 164.49 139.228C162.37 138.128 160.19 137.118 157.79 135.948L156.59 141.508C156.43 141.468 156.27 141.438 156.1 141.398C156.38 139.858 156.54 138.288 156.99 136.798C157.29 135.808 157 135.448 156.18 135.058C151.28 132.728 146.36 130.448 141.53 127.978C137.32 125.818 133.25 123.378 129.08 121.128C124.76 118.788 120.39 116.538 116.04 114.238C115.89 114.158 115.76 114.038 115.7 113.718C116.16 113.908 116.64 114.058 117.08 114.288C123.7 117.898 130.29 121.558 136.94 125.108C139.99 126.738 143.17 128.108 146.27 129.638C150.12 131.538 153.98 133.438 157.8 135.408C165.31 139.268 172.65 143.518 180.34 146.988C189.66 151.188 198.46 156.328 207.5 161.048C208.22 161.418 208.87 161.918 209.56 162.358C209.51 162.428 209.46 162.508 209.42 162.578C205.92 160.698 202.41 158.808 198.7 156.818C198.58 157.708 198.51 158.378 198.39 159.038C197.16 165.548 195.93 172.068 194.67 178.568C194.28 180.598 194.21 180.638 196.08 181.568C199.53 183.278 203.05 184.878 206.49 186.618C211.95 189.378 217.37 192.208 222.8 195.028C223.53 195.408 224.35 195.648 224.37 196.818C224.37 197.318 225.11 197.808 225.44 198.528C225.13 198.418 224.73 198.398 224.54 198.178C223.91 197.478 223.37 196.698 222.77 195.968C222.45 195.598 222.12 195.178 221.7 194.958C215.75 191.878 209.79 188.808 203.82 185.778C200.97 184.328 198.04 183.028 195.19 181.568C193.67 180.788 193.71 180.698 194.08 179.068C194.427 177.534 193.93 176.371 192.59 175.578C191.97 175.208 191.32 174.838 190.77 174.378C187.87 171.978 184.45 170.548 181.02 169.138C180.71 169.008 180.48 168.678 180.21 168.438C180.29 168.318 180.36 168.198 180.44 168.068C182.76 169.188 185.07 170.298 187.56 171.498C187.23 170.888 186.98 170.428 186.73 169.978C186.8 169.918 186.86 169.848 186.93 169.788C188.97 172.488 191.42 174.628 194.56 175.818C194.65 175.708 194.75 175.608 194.84 175.498C194.54 175.208 194.26 174.888 193.95 174.618C192.57 173.428 191.17 172.268 189.81 171.068C189.48 170.778 189.26 170.368 189.15 169.948C190.93 171.458 192.7 172.958 194.51 174.488C195.63 172.778 195.58 171.578 194.39 170.458C193.17 169.308 191.86 168.268 190.61 167.148C189.88 166.498 189.13 165.848 188.49 165.108C186.66 162.998 187.38 161.128 188.46 159.408C188.54 159.278 188.72 159.198 189.04 158.938C188.9 160.028 188.78 160.898 188.66 161.768C188.48 161.688 188.3 161.618 188.05 161.508C187.9 163.088 188.28 164.358 189.4 165.348C190.95 166.718 192.54 168.028 194.1 169.398C194.59 169.828 195.02 170.338 195.48 170.808C195.56 170.748 195.64 170.678 195.72 170.618C195.53 170.318 195.37 169.978 195.13 169.738C194.64 169.248 194.09 168.828 193.61 168.338C193.52 168.248 193.62 167.958 193.64 167.758C194.33 168.358 195.02 168.968 195.72 169.568C195.82 169.418 195.92 169.268 196.03 169.118C195.23 168.668 194.44 168.218 193.64 167.768C193.55 167.128 193.9 167.318 194.21 167.478C194.75 167.748 195.3 168.028 195.84 168.308C195.92 168.188 195.99 168.058 196.07 167.938C195.75 167.708 195.46 167.458 195.12 167.268C194.01 166.648 192.82 166.148 191.78 165.418C190.45 164.488 189.09 163.508 188.67 161.768L188.66 161.758Z" fill="black" stroke="#1D1D1B" stroke-width="0.5" stroke-miterlimit="10"/>
<path d="M35.75 159.228C37.16 160.018 38.58 160.808 39.99 161.598C45.91 164.898 51.82 168.208 57.74 171.498C68.41 177.418 79.08 183.328 89.75 189.258C96.4 192.958 103.02 196.728 109.67 200.418C115.97 203.908 122.32 207.328 128.64 210.798C135.37 214.498 142.09 218.218 148.82 221.938C156.54 226.198 164.25 230.468 171.97 234.718C180.13 239.218 188.31 243.668 196.46 248.188C202.19 251.368 207.87 254.628 213.6 257.808C214.77 258.458 216.03 258.978 217.3 259.428C219.25 260.118 220.31 259.648 221.4 257.838C221.62 257.468 221.89 257.128 222.27 256.568C222.38 259.158 218.01 262.028 215.58 261.218C216.47 261.008 217.33 260.808 218.19 260.608C214.66 258.768 211.17 257.068 207.78 255.178C200.11 250.908 192.51 246.528 184.84 242.258C181.76 240.538 178.57 239.018 175.47 237.328C172.12 235.498 168.82 233.548 165.48 231.678C161.76 229.588 158.02 227.558 154.31 225.458C148.73 222.308 143.2 219.058 137.59 215.958C133.48 213.678 129.28 211.578 125.14 209.358C119.97 206.588 114.8 203.828 109.68 200.978C102.26 196.858 94.91 192.618 87.49 188.498C78.48 183.488 69.41 178.578 60.4 173.588C53.81 169.938 47.25 166.208 40.68 162.508C39.28 161.718 37.9 160.918 36.51 160.108C36.19 159.918 35.9 159.678 35.6 159.468C35.65 159.388 35.71 159.298 35.76 159.218L35.75 159.228Z" fill="black" stroke="#1D1D1B" stroke-width="0.5" stroke-miterlimit="10"/>
<path d="M264.12 220.398C267.52 219.468 270.92 218.538 274.32 217.618L274.42 217.208C264.64 212.098 254.86 206.978 245.09 201.868C245.14 201.758 245.2 201.648 245.25 201.538C245.62 201.708 246 201.848 246.36 202.038C252.23 205.118 258.11 208.188 263.97 211.278C267.57 213.178 271.15 215.138 274.76 217.028C275.09 217.198 275.61 217.138 276 217.028C282.09 215.278 288.17 213.488 294.25 211.738C296.49 211.098 298.74 210.508 301.1 209.628C293.03 205.478 284.96 201.338 276.89 197.188C276.93 197.078 276.98 196.968 277.02 196.858C277.14 196.858 277.28 196.828 277.37 196.878C281.72 199.088 286.06 201.318 290.41 203.518C292.52 204.588 294.67 205.568 296.78 206.638C298.33 207.428 299.82 208.358 301.38 209.128C301.92 209.388 302.63 209.488 303.23 209.418C304.2 209.298 305.16 209.018 306.09 208.708C306.45 208.588 306.72 208.188 307.04 207.938C307.24 207.778 307.47 207.648 307.68 207.508C307.73 207.828 307.92 208.318 307.79 208.428C307.39 208.768 306.89 209.058 306.38 209.198C303.95 209.828 301.48 210.328 299.06 211.018C295.42 212.048 291.82 213.248 288.18 214.278C282.85 215.788 277.5 217.188 272.16 218.678C268.97 219.568 265.81 220.578 262.62 221.468C257.96 222.778 253.28 224.048 248.6 225.298C244.59 226.368 240.56 227.348 236.55 228.438C235.08 228.838 233.6 229.288 232.24 229.948C230.57 230.758 229.74 232.388 229.23 234.078C227.85 238.678 226.59 243.308 225.25 247.918C224.49 250.538 223.66 253.138 222.84 255.748C222.77 255.968 222.58 256.158 222.2 256.308C222.24 255.948 222.23 255.578 222.33 255.238C223.93 249.758 225.54 244.278 227.15 238.798C227.56 237.398 227.85 235.958 228.38 234.608C228.87 233.368 229.53 232.188 230.24 231.058C230.9 230.008 231.95 229.438 233.16 229.098C239.89 227.238 246.62 225.338 253.34 223.438C255.08 222.948 256.8 222.388 258.8 221.778C251.22 217.928 243.84 214.188 236.47 210.448C236.51 210.358 236.55 210.258 236.59 210.168C236.82 210.258 237.07 210.328 237.29 210.438C244.52 214.068 251.74 217.698 258.97 221.318C259.3 221.488 259.76 221.588 260.1 221.508C261.44 221.188 262.76 220.788 264.09 220.408L264.12 220.398Z" fill="black" stroke="#1D1D1B" stroke-width="0.5" stroke-miterlimit="10"/>
<path d="M276.73 184.948C268.39 180.898 260.03 176.888 251.72 172.778C243.07 168.498 234.45 164.158 225.84 159.778C217.08 155.318 208.35 150.778 199.62 146.248C197.26 145.028 195.01 143.598 192.63 142.418C190.88 141.548 188.95 141.028 187.21 140.138C181.01 136.988 174.86 133.738 168.68 130.548C160.2 126.178 151.72 121.798 143.22 117.468C134.62 113.078 126 108.748 117.4 104.378C116.8 104.078 116.27 103.638 115.7 103.268L115.92 102.928C116.56 103.278 117.19 103.648 117.84 103.978C126.96 108.608 136.1 113.228 145.21 117.878C149.13 119.878 153.01 121.978 156.93 123.988C165.67 128.488 174.4 133.008 183.18 137.448C186.51 139.138 189.99 140.548 193.34 142.198C195.69 143.358 197.92 144.748 200.24 145.958C208.35 150.178 216.46 154.398 224.6 158.558C232.65 162.658 240.72 166.718 248.81 170.738C255.99 174.298 263.21 177.768 270.41 181.288C271.98 182.058 273.53 182.868 275.06 183.708C275.68 184.048 276.22 184.518 276.79 184.938C276.76 184.948 276.74 184.958 276.71 184.968L276.73 184.948Z" fill="black" stroke="#1D1D1B" stroke-width="0.5" stroke-miterlimit="10"/>
<path d="M306.45 207.378C305.03 206.688 303.59 206.018 302.19 205.298C295.61 201.928 289.03 198.578 282.47 195.158C277.47 192.548 272.52 189.828 267.52 187.208C265.46 186.128 263.28 185.268 261.22 184.208C249.57 178.208 237.94 172.158 226.28 166.158C222.14 164.028 217.88 162.108 213.79 159.888C204.77 154.998 195.57 150.448 186.44 145.778C180.77 142.878 175.14 139.898 169.46 137.008C163 133.728 156.51 130.518 150.04 127.268C149.71 127.098 149.4 126.878 149.18 126.488C149.31 126.518 149.44 126.538 149.56 126.588C154.56 128.958 159.61 131.228 164.54 133.738C168.53 135.768 172.32 138.188 176.3 140.238C181.61 142.978 187.03 145.488 192.37 148.168C197.25 150.618 202.09 153.158 206.94 155.648C217.45 161.058 227.96 166.458 238.47 171.868C243.07 174.238 247.66 176.608 252.26 178.988C255.36 180.598 258.45 182.238 261.56 183.828C265.38 185.778 269.23 187.678 273.05 189.638C276.36 191.328 279.63 193.078 282.93 194.778C289.08 197.948 295.24 201.098 301.4 204.248C302.86 204.998 304.33 205.718 305.79 206.468C306.1 206.628 306.35 206.898 306.64 207.118C306.59 207.198 306.53 207.288 306.48 207.368L306.45 207.378Z" fill="black" stroke="#1D1D1B" stroke-width="0.5" stroke-miterlimit="10"/>
<path d="M210.37 162.658C212.62 162.918 275.74 195.548 276.48 196.728C263.89 190.238 251.35 183.778 238.53 177.178L237.42 182.278C237.29 182.248 237.15 182.218 237.02 182.188C237.3 180.898 237.52 179.588 237.88 178.328C238.15 177.378 237.91 176.818 237.02 176.418C236.13 176.018 235.29 175.518 234.35 175.028C233.96 176.468 233.61 177.778 233.26 179.088C233.13 179.068 233 179.048 232.87 179.028C232.98 178.518 233.05 177.998 233.21 177.508C233.803 175.708 233.26 174.404 231.58 173.598C230.13 172.898 229.89 173.018 229.55 174.598C229.43 175.168 229.35 175.748 229.29 176.328C229.13 177.978 229.14 177.968 230.71 178.688C231.19 178.908 231.63 179.198 232.1 179.448C232.05 179.558 232 179.668 231.96 179.778C231.01 179.378 230.05 178.978 228.95 178.518C228.74 179.498 228.53 180.378 228.36 181.258C227.5 185.798 226.66 190.348 225.79 194.888C225.65 195.618 225.61 196.168 226.35 196.678C226.72 196.928 226.84 197.598 226.98 198.108C227.02 198.238 226.72 198.518 226.52 198.628C226.43 198.678 226.17 198.478 226.04 198.338C225.75 198.058 225.44 197.768 225.23 197.428C225.04 197.138 224.82 196.738 224.88 196.438C225.81 191.988 226.78 187.548 227.59 183.068C226.69 187.198 225.8 191.328 224.9 195.468C224.81 195.468 224.71 195.458 224.62 195.448C224.67 194.838 224.67 194.218 224.78 193.618C225.13 191.798 225.55 189.978 225.9 188.158C226.88 183.118 227.86 178.078 228.79 173.028C228.85 172.728 228.59 172.168 228.33 172.028C222.75 169.108 217.14 166.238 211.54 163.348C211.24 163.188 210.95 163.008 210.39 162.678L210.37 162.658ZM227.9 180.268L228.01 180.288C228.29 178.988 228.57 177.688 228.85 176.388C228.88 176.258 228.87 176.128 228.88 175.998C228.51 177.288 228.23 178.578 227.95 179.878C227.92 180.008 227.91 180.138 227.89 180.268H227.9Z" fill="black" stroke="#1D1D1B" stroke-width="0.5" stroke-miterlimit="10"/>
<path d="M248.57 243.428C247.81 241.158 248.47 240.008 250.52 239.008C256.49 236.108 262.9 234.538 269.19 232.588C272.03 231.708 275.03 231.358 277.91 230.578C281.24 229.668 284.58 228.708 287.79 227.458C292.5 225.638 297.33 224.318 302.23 223.198C302.49 223.138 302.78 223.168 302.96 223.158C296.72 225.128 290.42 227.108 284.11 229.098C284.16 229.248 284.2 229.398 284.25 229.548C291.78 227.758 298.82 224.178 306.64 223.428C305.89 223.618 305.14 223.798 304.39 224.018C300.55 225.138 296.71 226.268 292.87 227.418C290.15 228.228 287.45 229.098 284.72 229.878C279.61 231.358 274.54 232.968 269.37 234.198C263.53 235.588 257.99 237.778 252.42 239.948C250.93 240.528 249.48 241.118 249.1 242.928C249.06 243.108 248.78 243.238 248.58 243.428H248.57ZM248.99 240.808C257.98 236.368 267.63 234.248 277.1 231.538C276.93 231.408 276.8 231.398 276.68 231.428C273.26 232.268 269.79 232.968 266.42 233.978C261.16 235.548 255.83 236.938 250.93 239.498C250.25 239.858 249.64 240.368 249 240.798L248.99 240.808Z" fill="black" stroke="#1D1D1B" stroke-width="0.5" stroke-miterlimit="10"/>
<path d="M195.13 137.488C195.29 137.538 195.47 137.558 195.62 137.638C200.18 139.918 204.75 142.168 209.29 144.488C222.24 151.088 235.15 157.748 248.11 164.328C258.31 169.508 268.53 174.628 278.79 179.708C283.46 182.018 288.23 184.118 292.94 186.348C296 187.788 299.04 189.288 302.08 190.768C302.32 190.888 302.52 191.068 302.91 191.348C298.72 190.818 198.46 139.878 195.15 137.498L195.13 137.488Z" fill="black" stroke="#1D1D1B" stroke-width="0.5" stroke-miterlimit="10"/>
<path d="M263.91 127.898C262.9 127.428 261.87 126.988 260.87 126.488C253.64 122.878 246.42 119.238 239.17 115.658C236.17 114.178 233.06 112.898 230.06 111.398C224.78 108.768 219.59 105.948 214.29 103.368C206.43 99.5376 198.49 95.8776 190.62 92.0976C187.67 90.6776 184.81 89.0576 181.86 87.6276C177.47 85.4976 173.02 83.4876 168.62 81.3776C167.64 80.9076 166.73 80.2676 165.79 79.7076C165.87 79.5676 165.95 79.4276 166.03 79.2776C198.71 95.3576 231.39 111.448 264.08 127.528C264.02 127.648 263.96 127.768 263.91 127.888V127.898Z" fill="black" stroke="#1D1D1B" stroke-width="0.5" stroke-miterlimit="10"/>
<path d="M34.57 152.128C35.38 151.978 36.19 151.838 36.99 151.668C43.76 150.238 50.51 148.698 57.3 147.398C69.39 145.068 81.48 142.788 93.68 141.048C100.77 140.038 107.78 138.408 114.82 137.038C118.39 136.338 121.95 135.588 125.52 134.858C127.27 134.498 129.01 134.148 130.76 133.798C131.1 133.728 131.45 133.738 131.86 133.918C131.66 134.008 131.48 134.138 131.27 134.178C128.06 134.828 124.84 135.448 121.64 136.108C115.11 137.458 108.62 138.958 102.07 140.158C95.84 141.298 89.54 142.058 83.3 143.138C76.09 144.378 68.88 145.708 61.7 147.128C54.84 148.478 48.02 150.018 41.17 151.438C39.46 151.798 37.73 152.038 36 152.318C35.55 152.388 35.08 152.408 34.63 152.448L34.57 152.128Z" fill="black" stroke="#1D1D1B" stroke-width="0.5" stroke-miterlimit="10"/>
<path d="M36.6 154.668C47.52 152.528 58.38 150.058 69.37 148.338C78.7 146.878 87.98 145.168 97.16 143.048C106.89 140.808 116.7 138.978 126.49 137.098C126.92 137.018 127.38 137.018 127.82 136.988L127.88 137.288C127.64 137.378 127.41 137.488 127.16 137.538C117.31 139.558 107.48 141.608 97.62 143.568C88.66 145.358 79.74 147.318 70.68 148.668C62.22 149.928 53.88 151.938 45.48 153.568C43.02 154.048 40.52 154.368 38.03 154.738C37.55 154.808 37.05 154.748 36.56 154.748L36.59 154.668H36.6Z" fill="black" stroke="#1D1D1B" stroke-width="0.5" stroke-miterlimit="10"/>
<path d="M164.99 79.1576C164.25 78.8476 163.48 78.5876 162.76 78.2376C156.26 75.0376 149.77 71.8176 143.28 68.5976C134.31 64.1576 125.34 59.7076 116.37 55.2676C112.81 53.5076 109.32 51.5876 105.67 50.0476C100.28 47.7776 95.23 44.8876 90.1 42.1376C88.53 41.2976 86.87 40.6276 85.26 39.8476C84.79 39.6176 84.35 39.3176 83.9 39.0476C83.96 38.9476 84.01 38.8376 84.07 38.7376C111.1 52.0776 138.14 65.4076 165.17 78.7476C165.11 78.8876 165.05 79.0276 164.99 79.1676V79.1576Z" fill="black" stroke="#1D1D1B" stroke-width="0.5" stroke-miterlimit="10"/>
<path d="M43.81 162.168C44.06 162.068 44.31 161.908 44.56 161.878C50.82 161.178 56.76 159.078 62.87 157.748C72.12 155.748 81.41 153.908 90.7 152.058C99.7 150.258 108.71 148.508 117.72 146.798C121.65 146.048 125.62 145.448 129.57 144.788C129.88 144.738 130.19 144.728 130.5 144.708C130.53 144.818 130.55 144.938 130.58 145.048C130 145.208 129.42 145.408 128.83 145.508C122.73 146.558 116.61 147.498 110.53 148.658C101.48 150.378 92.46 152.238 83.43 154.068C76.04 155.568 68.66 157.068 61.29 158.668C57.7 159.448 54.17 160.508 50.59 161.328C48.61 161.788 46.57 162.018 44.56 162.348C44.33 162.388 44.09 162.348 43.85 162.348C43.84 162.288 43.83 162.228 43.82 162.168H43.81Z" fill="black" stroke="#1D1D1B" stroke-width="0.5" stroke-miterlimit="10"/>
<path d="M103.65 99.4076L189.92 143.478C189.9 143.538 189.88 143.598 189.85 143.668C189.34 143.468 188.82 143.298 188.33 143.058C180.82 139.268 173.33 135.438 165.8 131.668C157.99 127.758 150.14 123.928 142.33 119.998C136.41 117.018 130.51 114.008 124.65 110.908C119.53 108.198 114.5 105.338 109.41 102.568C107.81 101.698 106.16 100.938 104.53 100.118C104.19 99.9476 103.88 99.7276 103.56 99.5376C103.59 99.4976 103.61 99.4576 103.64 99.4176L103.65 99.4076Z" fill="black" stroke="#1D1D1B" stroke-width="0.5" stroke-miterlimit="10"/>
<path d="M43.84 155.758C44.85 155.548 45.86 155.318 46.88 155.118C52.99 153.918 59.08 152.608 65.21 151.558C78.38 149.318 91.6 147.338 104.76 145.008C111.89 143.748 118.93 141.978 126.02 140.468C127.71 140.108 129.42 139.888 131.13 139.608C131.16 139.738 131.19 139.858 131.22 139.988C130.99 140.068 130.77 140.188 130.53 140.238C122.65 141.888 114.78 143.548 106.9 145.148C104.08 145.718 101.24 146.198 98.41 146.658C87.13 148.498 75.83 150.258 64.56 152.168C59.07 153.098 53.63 154.298 48.16 155.368C46.75 155.638 45.33 155.848 43.91 156.078C43.89 155.968 43.87 155.858 43.85 155.738L43.84 155.758Z" fill="black" stroke="#1D1D1B" stroke-width="0.5" stroke-miterlimit="10"/>
<path d="M50.64 166.388C51.25 166.228 51.85 166.028 52.46 165.908C60.46 164.298 68.45 162.658 76.46 161.098C91.15 158.228 105.88 155.578 120.36 151.708C123.9 150.758 127.58 150.298 131.19 149.628C131.45 149.578 131.74 149.628 132.04 149.628C105.15 156.518 77.86 161.248 50.72 166.658C50.69 166.568 50.67 166.478 50.64 166.378V166.388Z" fill="black" stroke="#1D1D1B" stroke-width="0.5" stroke-miterlimit="10"/>
<path d="M193.04 136.188C192.52 136.008 191.99 135.868 191.49 135.648C184.31 132.498 177.39 128.878 170.65 124.868C165.56 121.838 160.18 119.278 154.94 116.508C145.47 111.508 136.01 106.508 126.54 101.528C124.99 100.718 123.41 99.9776 121.85 99.1776C121.43 98.9576 121.04 98.6676 120.64 98.4076C120.69 98.3176 120.74 98.2376 120.79 98.1476C121.03 98.2376 121.29 98.3176 121.51 98.4376C126.66 101.158 131.79 103.918 136.97 106.588C146.84 111.688 156.74 116.718 166.6 121.828C168.63 122.878 170.59 124.098 172.53 125.318C178.96 129.358 185.8 132.618 192.73 135.678C192.88 135.748 193.01 135.858 193.15 135.948C193.12 136.028 193.08 136.108 193.05 136.178L193.04 136.188Z" fill="black" stroke="#1D1D1B" stroke-width="0.5" stroke-miterlimit="10"/>
<path d="M136.64 155.328C136.31 155.428 135.99 155.558 135.66 155.628C129.82 156.868 123.99 158.178 118.13 159.328C111.16 160.698 104.15 161.878 97.18 163.228C85.23 165.538 73.3 167.908 61.37 170.278C60.58 170.438 59.81 170.738 59.03 170.978C58.99 170.878 58.95 170.768 58.9 170.668C59.53 170.418 60.15 170.078 60.8 169.938C66.21 168.758 71.61 167.538 77.05 166.498C85.35 164.898 93.69 163.498 101.98 161.878C111.52 160.008 121.03 157.978 130.56 156.038C132.54 155.638 134.54 155.328 136.54 154.968C136.57 155.088 136.61 155.218 136.64 155.338V155.328Z" fill="black" stroke="#1D1D1B" stroke-width="0.5" stroke-miterlimit="10"/>
<path d="M35.93 124.208C36.22 124.068 36.5 123.868 36.8 123.808C46.7 121.898 56.61 119.998 66.51 118.098C70.26 117.378 74.03 116.698 77.77 115.908C80.94 115.238 84.05 114.308 87.23 113.698C91.77 112.828 96.34 112.118 100.9 111.368C101.96 111.198 103.04 111.118 104.11 110.998V110.988C103.41 111.258 102.73 111.638 102 111.768C95.84 112.888 89.65 113.888 83.5 115.068C79.79 115.778 76.14 116.858 72.43 117.568C65.71 118.858 58.94 119.958 52.21 121.228C47.66 122.078 43.15 123.098 38.61 123.998C37.73 124.168 36.81 124.128 35.91 124.188V124.198L35.93 124.208Z" fill="black" stroke="#1D1D1B" stroke-width="0.5" stroke-miterlimit="10"/>
<path d="M67.68 173.988C68.34 173.858 69.01 173.768 69.65 173.588C83.12 169.818 96.94 167.838 110.71 165.618C114.23 165.048 117.69 164.148 121.17 163.358C128.13 161.798 135.09 160.208 142.05 158.638C142.34 158.568 142.66 158.588 143.03 158.808C142.84 158.908 142.67 159.058 142.46 159.108C132.37 161.378 122.3 163.748 112.18 165.858C106.62 167.008 100.97 167.738 95.36 168.588C86.92 169.868 78.62 171.788 70.35 173.848C69.49 174.058 68.6 174.158 67.73 174.308C67.71 174.208 67.69 174.098 67.67 173.998L67.68 173.988Z" fill="black" stroke="#1D1D1B" stroke-width="0.5" stroke-miterlimit="10"/>
<path d="M148.57 163.368C148.41 163.368 148.23 163.438 148.1 163.388C145.39 162.348 142.66 162.568 139.93 163.248C135.12 164.438 130.36 165.818 125.51 166.848C119.38 168.148 113.19 169.108 107.04 170.348C97.83 172.198 88.63 174.158 79.43 176.068C79.09 176.138 78.75 176.168 78.34 175.978C78.98 175.778 79.61 175.518 80.26 175.378C87.03 173.938 93.79 172.458 100.58 171.118C107.8 169.698 115.07 168.508 122.28 167.038C126.59 166.158 130.83 164.918 135.11 163.858C137.69 163.218 140.25 162.318 142.87 162.088C144.74 161.928 146.84 162.048 148.6 163.088C148.59 163.188 148.57 163.278 148.56 163.378L148.57 163.368Z" fill="black" stroke="#1D1D1B" stroke-width="0.5" stroke-miterlimit="10"/>
<path d="M73.32 122.008C72 122.238 70.67 122.468 69.35 122.698C65.58 123.338 61.81 124.008 58.03 124.598C56.99 124.758 56.65 125.168 56.55 126.248C56.06 131.538 55.45 136.818 54.87 142.098C54.82 142.588 54.67 143.078 54.32 143.548C54.29 143.338 54.21 143.118 54.24 142.908C54.69 138.488 55.14 134.068 55.61 129.658C55.74 128.428 55.93 127.208 56.12 125.978C56.23 125.248 56.01 124.938 55.24 125.098C50.07 126.158 44.89 127.168 39.73 128.278C38.37 128.568 37.08 129.138 35.6 129.448C36.06 129.128 36.47 128.648 36.98 128.498C39.22 127.868 41.46 127.218 43.75 126.788C52.74 125.108 61.74 123.548 70.73 121.868C75.88 120.908 81.01 119.818 86.16 118.788C86.56 118.708 86.98 118.708 87.39 118.678C87.41 118.778 87.42 118.878 87.44 118.978C87.08 119.068 86.72 119.158 86.35 119.238C82.49 120.008 78.63 120.768 74.78 121.548C74.28 121.648 73.81 121.848 73.32 121.998V122.008Z" fill="black" stroke="#1D1D1B" stroke-width="0.5" stroke-miterlimit="10"/>
<path d="M385.29 196.178C382.08 197.328 378.88 198.468 375.68 199.618C375.51 199.678 375.34 199.748 375.16 199.788C370.73 200.968 366.29 202.118 361.87 203.338C357.66 204.498 353.47 205.738 349.27 206.948C345.91 207.908 342.55 208.858 339.2 209.818C337.84 210.208 336.48 210.598 335.14 211.048C334.94 211.118 334.79 211.538 334.74 211.818C334.6 212.568 334.62 213.358 334.4 214.068C334.3 214.368 333.75 214.528 333.4 214.748C333.24 214.418 332.94 214.078 332.94 213.748C332.94 213.098 333.08 212.448 333.21 211.808C333.43 210.768 334.43 210.828 335.13 210.618C339.44 209.288 343.77 208.028 348.1 206.768C352.78 205.398 357.46 204.018 362.16 202.708C366.12 201.608 370.11 200.608 374.07 199.518C374.98 199.268 375.82 198.798 376.72 198.518C379.21 197.728 381.71 196.968 384.22 196.228C384.58 196.128 384.98 196.188 385.29 196.168V196.178Z" fill="black" stroke="#1D1D1B" stroke-width="0.5" stroke-miterlimit="10"/>
<path d="M114.21 113.648C113.66 113.768 113.11 113.898 112.56 113.998C111.53 114.188 110.97 114.718 110.67 115.798C109.37 120.448 109.2 125.268 108.28 129.978C108.09 130.938 107.87 131.888 107.48 132.808C108.48 126.728 108.59 120.518 110.61 114.298C108.5 114.698 106.76 115.008 105.03 115.368C102.07 115.968 99.11 116.628 96.15 117.188C95.26 117.358 95.01 117.708 94.97 118.628C94.88 120.698 94.67 122.768 94.37 124.818C93.88 128.168 93.29 131.498 92.7 134.828C92.56 135.628 92.21 136.398 91.95 137.188C91.84 137.168 91.73 137.148 91.62 137.128C91.66 136.778 91.7 136.438 91.75 136.088C92.64 130.848 93.59 125.618 94.41 120.368C94.84 117.618 94.6 117.478 91.94 118.068C90.72 118.338 89.5 118.598 88.24 118.628C96.84 116.688 105.4 114.578 114.11 113.238C114.14 113.378 114.17 113.518 114.2 113.648H114.21Z" fill="black" stroke="#1D1D1B" stroke-width="0.5" stroke-miterlimit="10"/>
<path d="M251.69 175.338C231.44 164.968 211.2 154.608 190.72 144.118C192.18 144.198 250.69 173.968 251.82 175.068C251.78 175.158 251.73 175.248 251.69 175.328V175.338Z" fill="black" stroke="#1D1D1B" stroke-width="0.5" stroke-miterlimit="10"/>
<path d="M248.62 244.058C246.1 255.358 242.54 266.378 239.41 277.508C239.24 277.468 239.07 277.418 238.9 277.378C239.15 276.478 239.41 275.578 239.66 274.688C240.17 272.908 240.87 271.148 241.15 269.338C242.2 262.338 244.47 255.608 245.71 248.648C246.03 246.838 246.72 245.088 247.27 243.318C247.37 242.998 247.57 242.708 247.86 242.488C246.31 248.968 244.76 255.438 243.21 261.918C243.31 261.948 243.41 261.968 243.52 261.998C245.07 255.978 246.62 249.968 248.17 243.948C248.32 243.988 248.48 244.028 248.63 244.068L248.62 244.058Z" fill="black" stroke="#1D1D1B" stroke-width="0.5" stroke-miterlimit="10"/>
<path d="M217.4 284.688C217.19 285.228 217.07 285.818 216.76 286.298C215.38 288.478 213.4 288.378 211.02 286.338C209.31 284.878 209.38 282.888 209.89 280.888C209.95 280.648 210.09 280.418 210.16 280.178C210.61 278.758 211.39 277.628 213 277.558C214.69 277.478 215.91 278.418 216.71 279.818C217.57 281.328 217.79 282.968 217.4 284.698V284.688ZM215.36 285.998C215.36 285.808 215.33 285.688 215.36 285.608C216.68 282.928 216.16 281.038 213.63 279.408C213.51 279.328 213.29 279.248 213.29 279.178C213.31 278.348 212.69 278.368 212.25 278.548C211.69 278.778 211.23 279.228 210.73 279.578C210.77 279.628 210.81 279.678 210.85 279.728C211.39 279.388 211.92 279.058 212.46 278.718C212.56 278.818 212.67 278.918 212.77 279.018C211.01 279.998 210.46 281.518 210.93 283.298C211.4 285.108 212.7 286.068 214.76 286.008C214.53 286.408 214.39 286.638 214.22 286.938C216.41 286.668 217.36 285.198 216.92 282.868C216.48 283.938 216.73 285.318 215.37 285.998H215.36Z" fill="black" stroke="#1D1D1B" stroke-width="0.5" stroke-miterlimit="10"/>
<path d="M102.65 55.2176C107.07 70.9076 111.5 86.5876 115.94 102.358C115.56 102.158 115.23 101.978 114.98 101.848C115.02 101.338 115.17 100.878 115.06 100.498C113.57 95.2776 112.04 90.0776 110.54 84.8576C107.81 75.2976 105.1 65.7276 102.38 56.1576C102.3 55.8876 102.26 55.6176 102.2 55.3476C102.34 55.2976 102.49 55.2576 102.63 55.2076L102.65 55.2176Z" fill="black" stroke="#1D1D1B" stroke-width="0.5" stroke-miterlimit="10"/>
<path d="M152.31 149.978C157.87 152.818 163.44 155.628 168.99 158.498C174.51 161.348 180 164.268 185.56 167.188C185.96 165.868 186.36 164.568 186.76 163.268C186.78 163.298 186.8 163.318 186.82 163.348C186.61 165.178 186.39 167.008 186.19 168.688C183.15 165.948 179.09 164.568 175.4 162.568C168.32 158.738 161.14 155.108 154.01 151.368C153.36 151.028 152.78 150.568 152.17 150.168C152.22 150.108 152.27 150.048 152.32 149.978H152.31Z" fill="black" stroke="#1D1D1B" stroke-width="0.5" stroke-miterlimit="10"/>
<path d="M283.37 191.088C298.34 198.748 313.31 206.408 328.44 214.158C326.61 214.008 284.8 192.648 283.37 191.088Z" fill="black" stroke="#1D1D1B" stroke-width="0.5" stroke-miterlimit="10"/>
<path d="M234.07 195.018C233.6 197.178 233.12 199.328 232.68 201.488C232.56 202.098 232.35 203.128 232.61 203.288C233.45 203.828 234.25 204.658 235.44 204.408C237.54 203.968 239.65 203.558 241.76 203.148C242.08 203.088 242.41 203.068 242.73 203.018C242.76 203.148 242.78 203.278 242.81 203.408C241.53 203.708 240.26 204.018 238.95 204.328C239.44 204.908 239.44 204.888 241.26 204.498C242.05 204.328 242.85 204.208 243.64 204.068C243.66 204.188 243.69 204.298 243.71 204.418C240.74 205.278 237.76 206.128 234.79 206.988C234.74 206.858 234.7 206.728 234.65 206.598C235.9 206.138 237.15 205.688 238.41 205.228C238.41 205.148 238.42 205.058 238.43 204.978C237.94 204.868 237.46 204.698 236.97 204.678C236.43 204.658 235.89 204.828 235.34 204.858C234.8 204.888 234.52 205.028 234.39 205.628C234.13 206.798 233.72 206.988 232.58 206.628C232.06 206.468 231.55 206.258 231.05 206.038C229.72 205.448 229.47 204.478 230.49 202.788C229.84 205.308 231.65 205.318 232.91 205.818C233.18 205.928 233.57 205.718 233.91 205.648C233.72 205.308 233.6 204.858 233.32 204.658C232.88 204.348 232.32 204.228 231.82 204.008C231.51 203.868 231.22 203.688 230.72 203.418C232.26 202.758 232.22 201.508 232.45 200.368C232.83 198.548 233.23 196.728 233.63 194.898C233.78 194.928 233.92 194.968 234.07 194.998V195.018Z" fill="black" stroke="#1D1D1B" stroke-width="0.5" stroke-miterlimit="10"/>
<path d="M221.77 201.418C219.04 200.798 180.44 180.548 179.12 179.148C193.38 186.588 207.58 194.008 221.77 201.418Z" fill="black" stroke="#1D1D1B" stroke-width="0.5" stroke-miterlimit="10"/>
<path d="M109.12 59.3176C112.84 74.2876 117 89.1276 122.09 103.988C120.46 102.408 108.92 62.6676 109.12 59.3176Z" fill="black" stroke="#1D1D1B" stroke-width="0.5" stroke-miterlimit="10"/>
<path d="M115.21 109.388C115.52 109.428 115.87 109.388 116.14 109.528C121.33 112.158 126.52 114.788 131.7 117.438C135.81 119.548 139.9 121.688 144.01 123.798C144.82 124.208 145.68 124.518 146.5 124.898C146.89 125.078 147.24 125.338 147.61 125.568C147.53 125.718 147.44 125.858 147.36 126.008C136.91 120.648 126.46 115.288 115.88 109.848C115.53 111.018 115.23 112.058 114.92 113.088L114.44 112.978L115.22 109.368H115.21V109.388Z" fill="black" stroke="#1D1D1B" stroke-width="0.5" stroke-miterlimit="10"/>
<path d="M138.51 140.278C140 140.298 166.92 154.168 168.38 155.478C167.73 155.338 167.31 155.328 166.98 155.158C163.23 153.218 159.5 151.258 155.76 149.298C150.41 146.498 145.05 143.708 139.7 140.918C139.3 140.708 138.91 140.488 138.51 140.268V140.278Z" fill="black" stroke="#1D1D1B" stroke-width="0.5" stroke-miterlimit="10"/>
<path d="M82.45 38.2776C72.48 33.4376 62.15 29.3676 52.56 23.7776C62.41 28.8476 72.78 32.8576 82.45 38.2776Z" fill="black" stroke="#1D1D1B" stroke-width="0.5" stroke-miterlimit="10"/>
<path d="M279.79 215.358C278.98 214.978 278.16 214.638 277.37 214.218C270.94 210.798 264.54 207.328 258.09 203.948C255.13 202.398 252.09 200.998 249.09 199.518C248.77 199.358 248.49 199.108 248.19 198.888C248.27 198.748 248.35 198.618 248.43 198.478C258.94 203.978 269.45 209.468 279.96 214.968C279.9 215.098 279.84 215.228 279.78 215.358H279.79Z" fill="black" stroke="#1D1D1B" stroke-width="0.5" stroke-miterlimit="10"/>
<path d="M246.76 199.908C256.76 205.218 266.75 210.538 276.75 215.848C276.68 215.978 276.61 216.118 276.54 216.248L246.51 200.418C246.6 200.248 246.68 200.078 246.77 199.908H246.76Z" fill="black" stroke="#1D1D1B" stroke-width="0.5" stroke-miterlimit="10"/>
<path d="M265.58 128.998C273.34 120.398 282.14 112.928 290.61 105.108C290.7 105.198 290.79 105.298 290.87 105.388C282.44 113.258 274.01 121.128 265.58 128.998Z" fill="black" stroke="#1D1D1B" stroke-width="0.5" stroke-miterlimit="10"/>
<path d="M94.09 10.3776C86.03 17.3276 77.95 24.2876 69.95 31.1776C70.55 29.4576 91.68 11.2076 94.09 10.3776Z" fill="black" stroke="#1D1D1B" stroke-width="0.5" stroke-miterlimit="10"/>
<path d="M282.46 190.898C272.69 185.898 262.91 180.898 253.14 175.898C253.21 175.758 253.28 175.618 253.35 175.478C263.13 180.448 272.91 185.428 282.69 190.398C282.61 190.558 282.54 190.728 282.46 190.888V190.898Z" fill="black" stroke="#1D1D1B" stroke-width="0.5" stroke-miterlimit="10"/>
<path d="M184.26 158.208C181.92 157.848 158.77 145.438 158.2 144.358C166.89 148.978 175.57 153.588 184.26 158.208Z" fill="black" stroke="#1D1D1B" stroke-width="0.5" stroke-miterlimit="10"/>
<path d="M280.6 186.908C288.97 191.188 297.34 195.468 305.72 199.748C296.92 196.328 288.77 191.628 280.45 187.258C280.5 187.138 280.55 187.028 280.6 186.908Z" fill="black" stroke="#1D1D1B" stroke-width="0.5" stroke-miterlimit="10"/>
<path d="M332.27 215.688C329.51 216.338 326.73 216.908 324 217.668C318.14 219.288 312.31 221.018 306.46 222.688C305.96 222.828 305.43 222.898 304.91 222.998C304.83 222.848 304.75 222.688 304.67 222.538C304.87 222.518 305.08 222.538 305.28 222.478C313.31 220.238 321.34 217.978 329.37 215.738C330.04 215.548 330.72 215.398 331.4 215.328C331.67 215.298 331.97 215.558 332.25 215.688H332.26H332.27Z" fill="black" stroke="#1D1D1B" stroke-width="0.5" stroke-miterlimit="10"/>
<path d="M233.57 281.038C232.01 288.258 230.43 295.528 228.86 302.798C228.31 301.758 232.98 281.388 233.57 281.038Z" fill="black" stroke="#1D1D1B" stroke-width="0.5" stroke-miterlimit="10"/>
<path d="M327.84 212.098C320.79 208.448 313.74 204.788 306.69 201.138C306.76 201.018 306.82 200.888 306.89 200.768C314.05 204.218 321.16 207.748 327.98 211.838C327.93 211.928 327.89 212.008 327.84 212.098Z" fill="black" stroke="#1D1D1B" stroke-width="0.5" stroke-miterlimit="10"/>
<path d="M31.35 152.018C30.79 149.848 33.83 132.118 34.94 130.628C33.76 137.668 32.57 144.768 31.35 152.018Z" fill="black" stroke="#1D1D1B" stroke-width="0.5" stroke-miterlimit="10"/>
<path d="M192.88 190.558C200.5 194.278 208.12 197.998 215.74 201.718C215.68 201.848 215.61 201.988 215.55 202.118C207.92 198.408 200.3 194.698 192.67 190.988L192.88 190.558Z" fill="black" stroke="#1D1D1B" stroke-width="0.5" stroke-miterlimit="10"/>
<path d="M332.26 215.698C332.68 215.658 333.09 215.618 333.51 215.578C333.54 215.688 333.56 215.788 333.59 215.898C324.97 218.368 316.35 220.838 307.73 223.308C307.7 223.228 307.67 223.158 307.64 223.078C308.22 222.868 308.78 222.628 309.37 222.458C316.57 220.378 323.78 218.308 330.98 216.228C331.43 216.098 331.84 215.868 332.27 215.688H332.26V215.698Z" fill="black" stroke="#1D1D1B" stroke-width="0.5" stroke-miterlimit="10"/>
<path d="M264.12 220.398C262.19 219.468 260.24 218.578 258.33 217.598C252.6 214.648 246.89 211.658 241.17 208.678C240.98 208.578 240.81 208.448 240.71 208.098C241.04 208.218 241.38 208.298 241.69 208.458C248.92 212.228 256.15 216.008 263.38 219.798C263.66 219.948 263.88 220.198 264.12 220.408V220.398Z" fill="black" stroke="#1D1D1B" stroke-width="0.5" stroke-miterlimit="10"/>
<path d="M218.81 263.128C225.12 266.638 231.37 270.258 237.61 273.898C237.53 274.038 237.45 274.178 237.37 274.318C231.1 270.728 224.83 267.128 218.57 263.538C218.65 263.398 218.74 263.268 218.82 263.128H218.81Z" fill="black" stroke="#1D1D1B" stroke-width="0.5" stroke-miterlimit="10"/>
<path d="M144.02 158.018C144.85 158.128 145.76 158.048 146.49 158.368C150.61 160.188 154.71 162.068 158.78 163.998C161.47 165.278 164.11 166.688 166.76 168.038C167.04 168.188 167.31 168.378 167.49 168.768C166.87 168.498 166.24 168.258 165.64 167.958C161.02 165.648 156.41 163.318 151.78 161.038C150.22 160.268 148.6 159.608 146.97 158.988C146.31 158.738 145.56 158.718 144.85 158.608C144.56 158.568 144.26 158.558 143.96 158.538C143.98 158.358 143.99 158.188 144.01 158.008L144.02 158.018Z" fill="black" stroke="#1D1D1B" stroke-width="0.5" stroke-miterlimit="10"/>
<path d="M283.33 140.198C276.91 136.978 270.5 133.758 264.08 130.538C264.15 130.398 264.22 130.258 264.29 130.118C270.7 133.348 277.11 136.588 283.52 139.818C283.46 139.948 283.39 140.078 283.33 140.198Z" fill="black" stroke="#1D1D1B" stroke-width="0.5" stroke-miterlimit="10"/>
<path d="M309.6 199.068C316.08 201.518 322.04 205.088 328.14 208.358C328.26 208.428 328.24 208.768 328.25 208.848C322.03 205.588 315.81 202.328 309.6 199.068Z" fill="black" stroke="#1D1D1B" stroke-width="0.5" stroke-miterlimit="10"/>
<path d="M150.63 167.978C157.35 171.458 164.06 174.938 170.78 178.418C170.71 178.548 170.64 178.688 170.57 178.818C163.86 175.318 157.15 171.828 150.45 168.328C150.51 168.208 150.57 168.098 150.63 167.978Z" fill="black" stroke="#1D1D1B" stroke-width="0.5" stroke-miterlimit="10"/>
<path d="M230.72 232.738C233.22 232.948 245.75 239.608 246.46 240.828C241.19 238.118 235.95 235.428 230.72 232.738Z" fill="black" stroke="#1D1D1B" stroke-width="0.5" stroke-miterlimit="10"/>
<path d="M172.2 174.248C165.57 171.078 158.94 167.898 152.31 164.728C152.36 164.618 152.42 164.508 152.47 164.388C159.12 167.508 165.83 170.518 172.34 173.938C172.29 174.038 172.24 174.148 172.19 174.248H172.2Z" fill="black" stroke="#1D1D1B" stroke-width="0.5" stroke-miterlimit="10"/>
<path d="M73.32 122.018C73.41 122.298 73.6 122.598 73.57 122.868C73.37 124.378 73.1 125.888 72.87 127.398C72.44 130.208 72.04 133.018 71.57 135.818C71.3 137.408 70.9 138.968 70.56 140.538C70.46 140.528 70.36 140.508 70.26 140.498C70.35 139.668 70.41 138.828 70.54 138.008C71.36 132.978 72.19 127.958 73.03 122.938C73.08 122.628 73.23 122.328 73.33 122.028L73.32 122.018Z" fill="black" stroke="#1D1D1B" stroke-width="0.5" stroke-miterlimit="10"/>
<path d="M282.62 213.798C276.24 210.428 269.86 207.058 263.48 203.688C263.56 203.548 263.63 203.408 263.71 203.268C270.08 206.678 276.45 210.088 282.82 213.488C282.75 213.588 282.69 213.698 282.62 213.798Z" fill="black" stroke="#1D1D1B" stroke-width="0.5" stroke-miterlimit="10"/>
<path d="M248.2 238.938C243.17 236.138 238.15 233.338 233.06 230.498C234.36 230.328 247.13 237.298 248.2 238.938Z" fill="black" stroke="#1D1D1B" stroke-width="0.5" stroke-miterlimit="10"/>
<path d="M235.68 203.108C236.63 196.468 237.93 189.918 239.48 183.418C239.63 183.448 239.78 183.478 239.92 183.508L235.68 203.098V203.108Z" fill="black" stroke="#1D1D1B" stroke-width="0.5" stroke-miterlimit="10"/>
<path d="M172.1 163.988C167.16 160.808 161.54 158.798 156.69 155.438C161.85 158.248 167.44 160.268 172.1 163.988Z" fill="black" stroke="#1D1D1B" stroke-width="0.5" stroke-miterlimit="10"/>
<path d="M237.47 202.748C238.64 196.548 239.8 190.348 240.97 184.148C241.11 184.178 241.24 184.198 241.38 184.228C240.42 190.468 239.2 196.658 237.81 202.818L237.48 202.758L237.47 202.748Z" fill="black" stroke="#1D1D1B" stroke-width="0.5" stroke-miterlimit="10"/>
<path d="M170.68 155.738C175.57 158.408 180.46 161.088 185.35 163.758C185.27 163.908 185.18 164.068 185.1 164.218C180.22 161.538 175.33 158.858 170.45 156.178C170.53 156.028 170.61 155.888 170.68 155.738Z" fill="black" stroke="#1D1D1B" stroke-width="0.5" stroke-miterlimit="10"/>
<path d="M237.16 199.698C238.17 194.268 239.17 188.838 240.18 183.398C240.35 183.428 240.53 183.458 240.7 183.498C239.68 188.928 238.66 194.358 237.64 199.788C237.48 199.758 237.33 199.728 237.17 199.698H237.16Z" fill="black" stroke="#1D1D1B" stroke-width="0.5" stroke-miterlimit="10"/>
<path d="M179.14 168.168C179.11 168.438 179.19 168.858 179.02 169.018C178.8 169.218 178.25 169.378 178.07 169.238C177.28 168.658 176.87 169.118 176.34 169.628C175.4 170.528 174.33 170.608 173.24 169.968C172.11 169.308 171.28 167.848 171.47 166.808C171.49 166.678 171.61 166.578 171.84 166.208C172 166.668 172.14 166.918 172.15 167.168C172.18 168.158 172.54 168.948 173.46 169.388C174.46 169.868 175.22 169.348 175.91 168.698C176.46 168.178 176.98 167.898 177.75 168.328C178.02 168.478 178.49 168.258 179.14 168.168Z" fill="black" stroke="#1D1D1B" stroke-width="0.5" stroke-miterlimit="10"/>
<path d="M326.75 203.418C321.66 200.868 316.56 198.318 311.47 195.768C311.54 195.638 311.6 195.508 311.67 195.378C316.77 197.928 321.87 200.478 326.97 203.028C326.9 203.158 326.83 203.288 326.76 203.418H326.75Z" fill="black" stroke="#1D1D1B" stroke-width="0.5" stroke-miterlimit="10"/>
<path d="M147.06 166.498C146.86 166.548 146.67 166.658 146.55 166.608C145.02 165.898 143.46 166.208 141.94 166.518C138.8 167.148 135.69 167.858 132.56 168.538C132.36 168.578 132.16 168.578 131.85 168.618C133.89 166.848 145.83 165.198 147.06 166.508V166.498Z" fill="black" stroke="#1D1D1B" stroke-width="0.5" stroke-miterlimit="10"/>
<path d="M203.99 188.798C208.51 191.068 213.02 193.328 217.54 195.598C217.48 195.728 217.41 195.858 217.35 195.988C212.83 193.718 208.31 191.448 203.79 189.178C203.86 189.058 203.92 188.928 203.99 188.808V188.798Z" fill="black" stroke="#1D1D1B" stroke-width="0.5" stroke-miterlimit="10"/>
<path d="M381.36 214.258C380.35 211.828 381.23 209.708 382.56 207.718C383.14 206.858 383.99 206.698 384.76 206.978C384.1 207.478 383.19 207.908 382.7 208.618C382.19 209.358 381.92 210.358 381.84 211.278C381.76 212.178 382.05 213.108 382.21 214.208C382.13 214.208 381.74 214.228 381.36 214.238L381.37 214.248L381.36 214.258Z" fill="black" stroke="#1D1D1B" stroke-width="0.5" stroke-miterlimit="10"/>
<path d="M230.02 185.098C229.17 189.038 228.31 192.978 227.44 197.018C227.03 195.768 228.99 186.058 230.02 185.098Z" fill="black" stroke="#1D1D1B" stroke-width="0.5" stroke-miterlimit="10"/>
<path d="M232.87 184.498C232.04 188.318 231.22 192.138 230.39 195.948C230.3 195.928 230.2 195.908 230.11 195.888C230.29 191.928 231.83 188.268 232.58 184.428C232.68 184.448 232.77 184.468 232.87 184.488V184.498Z" fill="black" stroke="#1D1D1B" stroke-width="0.5" stroke-miterlimit="10"/>
<path d="M102.81 93.9676C106.37 95.8076 109.94 97.6476 113.5 99.4776C113.44 99.5976 113.37 99.7276 113.31 99.8476C109.73 98.0176 106.16 96.1876 102.58 94.3576C102.66 94.2276 102.74 94.0976 102.81 93.9676Z" fill="black" stroke="#1D1D1B" stroke-width="0.5" stroke-miterlimit="10"/>
<path d="M115.22 109.378C112.16 109.898 109.1 110.428 106.03 110.918C105.4 111.018 104.75 110.978 104.11 110.998V111.008C107.55 110.318 110.99 109.618 114.44 108.968C114.66 108.928 114.95 109.238 115.2 109.388H115.21L115.22 109.378Z" fill="black" stroke="#1D1D1B" stroke-width="0.5" stroke-miterlimit="10"/>
<path d="M104.61 98.3576C107.98 100.118 111.34 101.878 114.71 103.638C114.64 103.758 114.58 103.888 114.51 104.008C111.13 102.248 107.76 100.498 104.38 98.7376C104.46 98.6076 104.53 98.4876 104.61 98.3576Z" fill="black" stroke="#1D1D1B" stroke-width="0.5" stroke-miterlimit="10"/>
<path d="M242.6 201.948C243.32 198.618 244.04 195.298 244.76 191.968C244.82 191.968 244.89 191.988 244.95 191.998C244.23 195.328 243.51 198.648 242.79 201.978C242.73 201.968 242.67 201.958 242.6 201.948Z" fill="black" stroke="#1D1D1B" stroke-width="0.5" stroke-miterlimit="10"/>
<path d="M233.97 193.428C234.63 190.368 235.3 187.308 235.96 184.248C236.1 184.278 236.23 184.308 236.37 184.348C235.64 187.418 235.04 190.528 234.27 193.588C234.17 193.538 234.08 193.478 233.98 193.428H233.97Z" fill="black" stroke="#1D1D1B" stroke-width="0.5" stroke-miterlimit="10"/>
<path d="M383.12 213.658C383.37 213.378 383.63 213.098 383.87 212.808C385.02 211.408 385.74 209.878 385.4 207.988C385.36 207.758 385.51 207.488 385.57 207.228C385.78 207.428 386.17 207.658 386.16 207.838C386.05 208.868 386.04 209.968 385.63 210.888C385.13 211.998 384.27 212.948 383.56 213.968C383.42 213.858 383.27 213.758 383.13 213.648L383.12 213.658Z" fill="black" stroke="#1D1D1B" stroke-width="0.5" stroke-miterlimit="10"/>
<path d="M182.35 155.128C179.96 155.168 178.89 154.008 179.32 152.138C179.59 150.948 179.95 149.778 180.27 148.588C180.39 148.608 180.51 148.628 180.63 148.648C180.59 148.988 180.58 149.338 180.49 149.668C180.32 150.338 180.06 150.988 179.91 151.658C179.46 153.618 179.55 153.768 181.35 154.558C181.61 154.678 181.85 154.848 182.34 155.138L182.35 155.128Z" fill="black" stroke="#1D1D1B" stroke-width="0.5" stroke-miterlimit="10"/>
<path d="M233.76 184.418C233.13 187.318 232.5 190.228 231.87 193.128C231.79 193.108 231.71 193.098 231.64 193.078L233.53 184.378C233.61 184.388 233.69 184.408 233.77 184.418H233.76Z" fill="black" stroke="#1D1D1B" stroke-width="0.5" stroke-miterlimit="10"/>
<path d="M184.49 157.378C184.89 155.048 184.93 152.658 185.64 150.388C185.8 150.418 185.96 150.448 186.12 150.468C185.73 152.798 185.35 155.118 184.96 157.448C184.81 157.428 184.65 157.398 184.5 157.378H184.49Z" fill="black" stroke="#1D1D1B" stroke-width="0.5" stroke-miterlimit="10"/>
<path d="M31.35 152.578C31.92 154.898 33.01 156.928 34.92 158.778C33.08 158.538 30.98 154.668 31.35 152.578Z" fill="black" stroke="#1D1D1B" stroke-width="0.5" stroke-miterlimit="10"/>
<path d="M170.88 170.908C173.28 172.108 175.67 173.298 178.07 174.498C178.01 174.628 177.94 174.768 177.88 174.898C175.49 173.698 173.11 172.508 170.72 171.308C170.77 171.178 170.83 171.048 170.88 170.918V170.908Z" fill="black" stroke="#1D1D1B" stroke-width="0.5" stroke-miterlimit="10"/>
<path d="M243.5 202.288C244.01 199.918 244.53 197.548 245.04 195.178L245.24 195.218C244.73 197.588 244.21 199.958 243.7 202.328L243.5 202.288Z" fill="black" stroke="#1D1D1B" stroke-width="0.5" stroke-miterlimit="10"/>
<path d="M163.47 139.958C163.13 141.508 162.8 143.068 162.46 144.618C162.34 144.588 162.23 144.568 162.11 144.538L163.12 139.888C163.24 139.908 163.35 139.928 163.47 139.958Z" fill="black" stroke="#1D1D1B" stroke-width="0.5" stroke-miterlimit="10"/>
<path d="M233.79 279.788C235.47 279.148 237.14 278.518 238.89 277.858C238.5 278.808 235.52 280.018 233.79 279.788Z" fill="black" stroke="#1D1D1B" stroke-width="0.5" stroke-miterlimit="10"/>
<path d="M167.62 147.778C168.01 145.998 168.39 144.218 168.78 142.438C168.87 142.448 168.96 142.468 169.05 142.478L167.89 147.818C167.8 147.808 167.71 147.788 167.62 147.778Z" fill="black" stroke="#1D1D1B" stroke-width="0.5" stroke-miterlimit="10"/>
<path d="M173.47 150.898C173.86 149.088 174.25 147.278 174.65 145.468L174.82 145.518L173.64 150.948C173.58 150.928 173.53 150.918 173.47 150.908V150.898Z" fill="black" stroke="#1D1D1B" stroke-width="0.5" stroke-miterlimit="10"/>
<path d="M157.25 141.998C157.7 140.408 158.15 138.818 158.61 137.228C158.76 137.268 158.92 137.318 159.07 137.358C158.61 138.948 158.16 140.548 157.7 142.138C157.55 142.088 157.4 142.038 157.25 141.988V141.998Z" fill="black" stroke="#1D1D1B" stroke-width="0.5" stroke-miterlimit="10"/>
<path d="M232.56 183.848C231.31 183.178 230.06 182.518 228.81 181.848C228.88 181.718 228.95 181.588 229.02 181.468C230.29 182.118 231.55 182.758 232.82 183.408C232.73 183.558 232.65 183.698 232.56 183.848Z" fill="black" stroke="#1D1D1B" stroke-width="0.5" stroke-miterlimit="10"/>
<path d="M188.69 169.208C187.56 168.278 187.36 166.998 188.02 165.458C188.24 166.708 188.46 167.888 188.69 169.208Z" fill="black" stroke="#1D1D1B" stroke-width="0.5" stroke-miterlimit="10"/>
<path d="M35.92 124.198C34.87 125.118 33.83 126.048 32.83 126.928C32.72 125.788 34.37 124.258 35.92 124.218V124.208V124.198Z" fill="black" stroke="#1D1D1B" stroke-width="0.5" stroke-miterlimit="10"/>
<path d="M241.33 199.438C241.49 200.098 241.64 200.718 241.85 201.598C241.61 201.578 241.17 201.688 240.98 201.518C240.44 201.048 240.69 199.978 241.34 199.448L241.33 199.438Z" fill="black" stroke="#1D1D1B" stroke-width="0.5" stroke-miterlimit="10"/>
<path d="M245.41 193.588L246.46 188.728L246.63 188.758C246.28 190.378 245.93 191.998 245.58 193.618C245.52 193.618 245.47 193.598 245.41 193.588Z" fill="black" stroke="#1D1D1B" stroke-width="0.5" stroke-miterlimit="10"/>
<path d="M242.93 191.798C243.1 192.388 243.28 193.018 243.53 193.908C243.24 193.878 242.75 193.988 242.56 193.798C242.05 193.298 242.35 192.238 242.94 191.808L242.93 191.798Z" fill="black" stroke="#1D1D1B" stroke-width="0.5" stroke-miterlimit="10"/>
<path d="M246.83 183.018L245.94 187.148C245.88 187.148 245.83 187.128 245.77 187.118L246.66 182.998C246.72 182.998 246.77 183.018 246.83 183.028V183.018Z" fill="black" stroke="#1D1D1B" stroke-width="0.5" stroke-miterlimit="10"/>
<path d="M236.62 189.288C236.46 190.308 236.3 191.318 236.13 192.338C235.97 192.308 235.81 192.288 235.66 192.258C235.83 191.248 236.01 190.228 236.18 189.218L236.62 189.288Z" fill="black" stroke="#1D1D1B" stroke-width="0.5" stroke-miterlimit="10"/>
<path d="M174.82 180.818C175.94 181.368 177.06 181.918 178.17 182.468C178.12 182.568 178.08 182.668 178.03 182.758C176.9 182.238 175.77 181.718 174.64 181.208C174.7 181.078 174.76 180.948 174.82 180.818Z" fill="black" stroke="#1D1D1B" stroke-width="0.5" stroke-miterlimit="10"/>
<path d="M51.52 28.4576C51.17 29.3976 50.45 29.7276 49.5 29.6676C49.97 28.9176 50.62 28.4676 51.53 28.4676V28.4576H51.52Z" fill="black" stroke="#1D1D1B" stroke-width="0.5" stroke-miterlimit="10"/>
<path d="M306.38 199.868C307.06 199.298 307.74 198.728 308.42 198.158C308.53 198.288 308.64 198.408 308.74 198.538L306.72 200.278C306.61 200.138 306.49 199.998 306.38 199.858V199.868Z" fill="black" stroke="#1D1D1B" stroke-width="0.5" stroke-miterlimit="10"/>
<path d="M234.91 198.108C234.72 198.998 234.53 199.878 234.33 200.768C234.24 200.748 234.15 200.728 234.06 200.708L234.64 198.048C234.73 198.068 234.82 198.088 234.91 198.108Z" fill="black" stroke="#1D1D1B" stroke-width="0.5" stroke-miterlimit="10"/>
<path d="M163.38 144.818C164.02 145.238 164.66 145.648 165.29 146.068C165.2 146.208 165.11 146.338 165.02 146.478C164.38 146.058 163.74 145.648 163.11 145.228C163.2 145.088 163.29 144.958 163.38 144.818Z" fill="black" stroke="#1D1D1B" stroke-width="0.5" stroke-miterlimit="10"/>
<path d="M241.16 196.938L241.07 198.448C240.89 198.388 240.55 198.328 240.55 198.248C240.53 197.788 240.58 197.328 240.61 196.868C240.8 196.888 240.98 196.908 241.17 196.928L241.16 196.938Z" fill="black" stroke="#1D1D1B" stroke-width="0.5" stroke-miterlimit="10"/>
<path d="M168.91 148.068C169.48 148.448 170.06 148.838 170.63 149.218C170.56 149.338 170.48 149.458 170.41 149.578C169.81 149.238 169.21 148.908 168.61 148.568C168.71 148.408 168.81 148.238 168.91 148.078V148.068Z" fill="black" stroke="#1D1D1B" stroke-width="0.5" stroke-miterlimit="10"/>
<path d="M237.39 185.828C237.28 186.518 237.17 187.208 237.06 187.888C236.93 187.868 236.79 187.838 236.66 187.818L237.1 185.778C237.19 185.798 237.29 185.808 237.38 185.828H237.39Z" fill="black" stroke="#1D1D1B" stroke-width="0.5" stroke-miterlimit="10"/>
<path d="M174.28 150.878C174.82 151.198 175.37 151.518 175.91 151.838C175.82 151.978 175.74 152.118 175.65 152.268C175.11 151.928 174.58 151.598 174.04 151.258C174.12 151.128 174.19 151.008 174.27 150.878H174.28Z" fill="black" stroke="#1D1D1B" stroke-width="0.5" stroke-miterlimit="10"/>
<path d="M234.95 196.178L235.43 193.958C235.52 193.978 235.6 193.998 235.69 194.018L235.21 196.248C235.12 196.228 235.04 196.198 234.95 196.178Z" fill="black" stroke="#1D1D1B" stroke-width="0.5" stroke-miterlimit="10"/>
<path d="M235.97 182.088C235.24 181.668 234.52 181.248 233.79 180.828C233.85 180.718 233.92 180.608 233.98 180.498C234.73 180.918 235.47 181.338 236.22 181.768L235.97 182.088Z" fill="black" stroke="#1D1D1B" stroke-width="0.5" stroke-miterlimit="10"/>
<path d="M284.52 142.708C284.73 143.528 284.93 144.358 285.14 145.178L284.56 145.248C284.56 144.398 284.54 143.558 284.53 142.708H284.52Z" fill="black" stroke="#1D1D1B" stroke-width="0.5" stroke-miterlimit="10"/>
</svg>
