<svg width="47" height="48" viewBox="0 0 47 48" fill="none" xmlns="http://www.w3.org/2000/svg">
<g clip-path="url(#clip0_2_629)">
<path d="M47.0001 29.4626V28.6809C46.8335 26.0752 45.9079 24.9957 43.2978 24.3443C42.9646 24.2699 42.835 24.1582 42.835 24.1954C42.835 24.1954 42.835 24.0093 42.9461 23.8046C45.5747 20.5103 42.6129 17.8488 41.0209 16.4343C40.7803 16.2295 40.5396 16.0062 40.3916 15.8573C38.6885 14.052 36.5968 14.9825 35.4491 15.4851C35.2084 15.5967 34.8567 15.7456 34.6346 15.8201C34.579 15.7084 34.5235 15.5037 34.468 15.1873C33.8571 11.6138 30.3214 11.7255 28.4148 11.7813H27.8039C25.0272 11.9302 24.1017 12.6747 23.3057 15.5223C23.0836 15.4478 22.8059 15.3362 22.6208 15.2617C21.8803 14.9639 21.0658 14.6289 20.1958 14.7778H20.1588C18.104 15.2245 15.3829 16.9926 14.4203 19.4308C13.8465 20.8825 13.9945 22.3528 14.809 23.5254C14.9571 23.786 15.0497 23.9535 15.0867 24.0651C14.8831 24.1768 14.5129 24.3071 14.2537 24.4188C13.0134 24.8841 10.7181 25.7588 11.0327 28.4389V29.1834C10.9402 31.1563 10.8291 34.8042 14.4943 35.4184C14.735 35.5114 14.9016 35.5673 15.0312 35.6417C14.9756 35.7348 14.9201 35.8464 14.8831 35.9395C13.7354 38.1171 13.2541 40.5925 17.4191 43.7565C19.1407 45.748 21.3065 44.7615 22.4912 44.2218C22.7504 44.1101 23.0836 43.9426 23.3242 43.8682C23.3612 43.9612 23.4168 44.1287 23.4723 44.3521C23.8981 47.4789 26.4711 47.9814 28.5814 47.9814C29.1552 47.9814 29.6736 47.9442 30.1363 47.9069C30.4325 47.8883 30.7287 47.8697 30.9323 47.8511C33.3018 47.8883 34.0977 45.8224 34.579 44.594C34.6716 44.3521 34.8012 44.0357 34.9122 43.8123C35.0233 43.8682 35.1899 43.9612 35.3935 44.1287C38.2628 46.2133 40.6507 43.7565 41.928 42.435L42.2982 42.0628C44.7047 40.1644 43.7051 37.8193 43.1497 36.5537C43.0387 36.2931 42.8721 35.9209 42.8165 35.6976C42.9091 35.6417 43.0757 35.5673 43.3348 35.5114C47.1111 35.1392 47.0371 31.4168 47.0001 29.4067V29.4626ZM40.262 34.4692C39.6696 35.6231 40.1694 36.777 40.5767 37.7076C41.1875 39.1407 41.1875 39.4385 40.5211 39.9411L39.9288 40.5366C38.2072 42.3048 37.7074 42.435 37.0225 41.9325C36.6153 41.6347 35.375 40.7041 34.0792 41.0764C32.839 41.43 32.3577 42.6584 31.9875 43.6262C31.5062 44.8918 31.3025 45.0965 30.8953 45.0965C30.5991 45.0965 30.2844 45.1338 29.9512 45.1524C27.1005 45.3385 26.3786 45.1152 26.212 43.9054C26.1194 43.4215 25.8232 41.9325 24.62 41.3183C24.2498 41.1322 23.8795 41.0578 23.5278 41.0578C22.7504 41.0578 21.9914 41.4114 21.362 41.6906C19.9366 42.342 19.7886 42.2489 19.4924 41.8953L19.2332 41.6347C16.2344 39.3827 16.7527 38.3963 17.3636 37.261C17.7153 36.5723 18.2151 35.6417 17.7893 34.6181C17.3636 33.5572 16.2344 33.0733 15.2903 32.7569L15.0497 32.701C13.939 32.5521 13.7354 31.938 13.8094 29.2951V28.3086C13.7539 27.7689 13.8094 27.5828 15.2533 27.043C16.1974 26.6894 17.3636 26.2427 17.7893 25.033C18.0855 24.1768 17.9004 23.209 17.16 22.0178C16.9563 21.72 16.7157 21.2361 17.0304 20.473C17.5857 19.0772 19.3628 17.8488 20.6956 17.551C20.8807 17.551 21.325 17.7557 21.6027 17.8674C22.5097 18.2396 23.6204 18.7049 24.7125 18.128C25.3975 17.7743 25.8417 17.1043 26.0268 16.2295C26.323 15.1873 26.9586 14.6413 27.9335 14.5917H28.5444C30.9879 14.4986 31.6172 14.722 31.7838 15.6712C31.8764 16.1737 32.1541 17.7185 33.3758 18.3699C34.5235 18.9841 35.6897 18.463 36.6338 18.0349C37.9481 17.4393 38.1517 17.4951 38.4849 17.8302C38.7255 18.0535 38.9847 18.2768 39.2439 18.5188C41.3912 20.4358 41.6688 21.0314 40.7618 22.2039C39.9473 23.544 40.0769 24.5863 40.336 25.2191C40.5952 25.8519 41.206 26.6708 42.724 27.043C44.1678 27.3967 44.2234 27.4711 44.2974 28.7553V29.5184C44.353 32.2171 44.0568 32.701 42.9831 32.8127C41.6318 33.1105 40.7803 33.6502 40.3545 34.4692H40.262Z" fill="#F7F3E9"/>
<path d="M28.9516 22.2411H28.859C24.6755 22.297 21.3805 25.6471 21.399 29.872C21.399 34.0969 24.8051 37.5401 28.9516 37.5401H29.1182C33.2462 37.447 36.5967 34.0038 36.6152 29.872C36.6152 27.8433 35.8378 25.9263 34.4124 24.4932C32.9685 23.0415 31.0248 22.2411 28.9701 22.2411H28.9516ZM29.0441 34.7483C29.0441 34.7483 28.9701 34.7483 28.9331 34.7483C26.286 34.7483 24.1572 32.5893 24.1572 29.872C24.1572 27.1733 26.1934 25.0702 28.8775 25.0329C28.896 25.0329 28.9146 25.0329 28.9331 25.0329C31.6357 25.0329 33.82 27.1919 33.8015 29.872C33.8015 32.4777 31.6357 34.6925 29.0256 34.7483H29.0441Z" fill="#F7F3E9"/>
<path d="M7.53413 5.71385C7.66371 5.71385 7.99691 5.82552 8.21904 5.89997C8.978 6.16054 10.0146 6.49555 10.9772 5.89997C11.5696 5.52773 11.9398 4.91354 12.0509 4.13184C12.2175 3.33153 12.3285 3.1268 12.347 3.08958C12.3841 3.05236 12.5692 2.97791 13.2726 2.90346L13.7724 2.84763C15.8086 2.64289 16.0678 2.84763 16.1789 3.36876C16.2899 3.81544 16.6231 5.13688 17.7523 5.65802C18.826 6.14192 19.8626 5.60218 20.6031 5.19272C21.5286 4.70881 21.6397 4.72742 21.8063 4.89493C22.0099 5.06244 22.232 5.22994 22.4542 5.41606C24.3979 6.92362 24.3423 7.22141 23.8981 7.85422C23.4538 8.48702 23.6204 9.36178 24.2498 9.78985C24.8791 10.2365 25.7492 10.069 26.1749 9.43622C28.2667 6.40249 25.5826 4.31796 24.1387 3.20125C23.9351 3.05236 23.7315 2.88485 23.6019 2.79179C21.9914 1.28423 20.2143 2.21482 19.2702 2.73595C19.1592 2.79179 19.0111 2.86624 18.8815 2.94068C18.863 2.88485 18.8445 2.8104 18.826 2.71734C18.1596 -0.372227 15.0312 -0.055826 13.5133 0.093069L13.0135 0.148905C10.7366 0.409471 9.90357 1.13533 9.38525 3.36876C9.27419 3.33153 9.18163 3.29431 9.08907 3.2757C8.44118 3.05236 7.71924 2.8104 6.90475 3.01513C5.1832 3.49904 2.99888 5.1555 2.31396 7.27725C1.90672 8.58008 2.11034 9.84569 2.88781 10.8135C2.94334 10.888 2.98037 10.9438 2.99888 10.9996C2.8693 11.0741 2.7027 11.1485 2.59163 11.2044C1.62905 11.651 -0.388676 12.563 0.0370823 14.9081V15.5223C0.111127 17.1974 0.222195 20.3242 3.44315 20.6406C3.49868 20.6406 3.55422 20.6778 3.59124 20.6778C2.75823 22.539 2.44354 24.791 6.29388 27.285C6.53452 27.4339 6.79368 27.5083 7.05284 27.5083C7.51562 27.5083 7.95989 27.285 8.21904 26.8755C8.62629 26.2241 8.44118 25.368 7.8118 24.9399C5.44236 23.3951 5.73854 22.7251 6.14579 21.7945C6.42346 21.1803 6.79368 20.3242 6.34941 19.3936C5.90514 18.463 4.88702 18.0907 4.03551 17.886L3.79486 17.8488C3.14697 17.793 2.92483 17.5882 2.85079 15.4106L2.79525 14.5731C2.73972 14.2753 2.72121 14.2009 3.73933 13.7356C4.49829 13.3819 5.51641 12.9166 5.8311 11.7999C6.14579 10.6274 5.40534 9.56651 5.10916 9.15705C4.94256 8.95232 4.79447 8.67314 4.96107 8.15201C5.27576 7.16558 6.53452 6.03025 7.51562 5.75108L7.53413 5.71385Z" fill="#F7F3E9"/>
<path d="M12.0508 19.2447C12.4025 19.2447 12.7542 19.1144 13.0134 18.8538C13.5687 18.3141 13.5687 17.4393 13.0504 16.881C12.5876 16.3971 12.3284 15.7643 12.347 15.0756C12.347 14.3684 12.6617 13.7169 13.18 13.233C14.2166 12.2652 15.7345 12.3024 16.7156 13.3261C17.2524 13.8845 18.1225 13.9031 18.6778 13.3819C19.2331 12.8422 19.2516 11.9674 18.7333 11.4091C16.7156 9.26871 13.4391 9.19427 11.2918 11.2043C10.2182 12.2094 9.6073 13.5681 9.57028 15.0198C9.53325 16.4529 10.0701 17.8116 11.0512 18.8352C11.3288 19.1144 11.6806 19.2633 12.0508 19.2633V19.2447Z" fill="#F7F3E9"/>
</g>
<defs>
<clipPath id="clip0_2_629">
<rect width="47" height="48" fill="white"/>
</clipPath>
</defs>
</svg>
