<svg width="31" height="31" viewBox="0 0 31 31" fill="none" xmlns="http://www.w3.org/2000/svg">
<g clip-path="url(#clip0_26_16)">
<path d="M15.5 2.99541C19.5727 2.99541 20.0551 3.01097 21.6636 3.08436C23.1508 3.15223 23.9584 3.40065 24.4959 3.60954C25.1584 3.85406 25.7577 4.24395 26.2497 4.75055C26.7563 5.24255 27.1462 5.84184 27.3907 6.50435C27.5996 7.04182 27.8481 7.84946 27.9159 9.33661C27.9893 10.945 28.0048 11.4274 28.0048 15.5003C28.0048 19.5731 27.9893 20.0554 27.9159 21.664C27.848 23.1511 27.5995 23.9587 27.3907 24.4962C27.137 25.154 26.7483 25.7515 26.2497 26.25C25.7512 26.7486 25.1537 27.1373 24.4959 27.391C23.9584 27.5999 23.1508 27.8484 21.6636 27.9162C20.0555 27.9896 19.5731 28.0051 15.5 28.0051C11.4268 28.0051 10.9446 27.9896 9.33631 27.9162C7.84915 27.8483 7.04158 27.5998 6.50404 27.391C5.84153 27.1465 5.24225 26.7566 4.75024 26.25C4.24365 25.758 3.85376 25.1587 3.60924 24.4962C3.40035 23.9587 3.15187 23.1511 3.08405 21.664C3.01067 20.0556 2.99511 19.5731 2.99511 15.5003C2.99511 11.4274 3.01067 10.9452 3.08405 9.33661C3.15193 7.84946 3.40035 7.04188 3.60924 6.50435C3.85378 5.84181 4.24372 5.2425 4.75036 4.75049C5.24237 4.24389 5.84166 3.854 6.50416 3.60948C7.04164 3.40059 7.84927 3.15211 9.33643 3.0843C10.9449 3.01091 11.4272 2.99535 15.5001 2.99535M15.5001 0.24707C11.3576 0.24707 10.838 0.264629 9.21134 0.338859C7.58777 0.412969 6.47904 0.670777 5.50883 1.04786C4.49108 1.43086 3.56911 2.03125 2.80723 2.80717C2.03114 3.56901 1.43058 4.49097 1.04744 5.50878C0.670655 6.47904 0.412847 7.58777 0.33904 9.21134C0.264507 10.838 0.246948 11.3576 0.246948 15.5001C0.246948 19.6426 0.264507 20.1622 0.33904 21.7889C0.413149 23.4124 0.670958 24.5212 1.04804 25.4914C1.43104 26.5091 2.03144 27.4311 2.80735 28.193C3.56923 28.9689 4.4912 29.5693 5.50896 29.9523C6.47922 30.3294 7.58795 30.5872 9.21146 30.6613C10.8384 30.7355 11.3578 30.7531 15.5002 30.7531C19.6427 30.7531 20.1623 30.7355 21.789 30.6613C23.4125 30.5872 24.5213 30.3294 25.4915 29.9523C26.5047 29.5604 27.4249 28.9612 28.1931 28.193C28.9613 27.4248 29.5605 26.5046 29.9524 25.4914C30.3295 24.5211 30.5873 23.4124 30.6614 21.7889C30.7356 20.162 30.7532 19.6425 30.7532 15.5001C30.7532 11.3577 30.7356 10.838 30.6614 9.21134C30.5873 7.58777 30.3295 6.47904 29.9524 5.50884C29.5694 4.49108 28.969 3.56911 28.1931 2.80723C27.4312 2.03116 26.5092 1.43064 25.4913 1.04756C24.521 0.670777 23.4123 0.412969 21.7887 0.339162C20.1621 0.264629 19.6425 0.24707 15.5 0.24707H15.5001Z" fill="#F7F3E9"/>
<path d="M15.5 7.66724C13.9509 7.66724 12.4365 8.12661 11.1484 8.98728C9.86035 9.84794 8.85642 11.0712 8.26359 12.5025C7.67075 13.9337 7.51564 15.5086 7.81786 17.028C8.12009 18.5473 8.86608 19.943 9.96149 21.0384C11.0569 22.1338 12.4526 22.8798 13.9719 23.182C15.4913 23.4843 17.0662 23.3291 18.4974 22.7363C19.9287 22.1435 21.152 21.1395 22.0126 19.8515C22.8733 18.5634 23.3327 17.049 23.3327 15.4999C23.3327 13.4225 22.5074 11.4303 21.0385 9.96137C19.5696 8.49246 17.5774 7.66724 15.5 7.66724ZM15.5 20.5842C14.4944 20.5842 13.5114 20.286 12.6753 19.7273C11.8392 19.1686 11.1876 18.3746 10.8028 17.4455C10.418 16.5165 10.3173 15.4942 10.5135 14.5079C10.7097 13.5217 11.1939 12.6158 11.9049 11.9047C12.616 11.1937 13.5219 10.7094 14.5082 10.5133C15.4944 10.3171 16.5167 10.4178 17.4458 10.8026C18.3748 11.1874 19.1688 11.8391 19.7275 12.6752C20.2862 13.5113 20.5844 14.4943 20.5844 15.4999C20.5844 16.8483 20.0487 18.1415 19.0952 19.095C18.1417 20.0485 16.8485 20.5842 15.5 20.5842Z" fill="#F7F3E9"/>
<path d="M23.6421 9.18825C24.653 9.18825 25.4724 8.36878 25.4724 7.35792C25.4724 6.34706 24.653 5.52759 23.6421 5.52759C22.6312 5.52759 21.8118 6.34706 21.8118 7.35792C21.8118 8.36878 22.6312 9.18825 23.6421 9.18825Z" fill="#F7F3E9"/>
</g>
<defs>
<clipPath id="clip0_26_16">
<rect width="31" height="31" fill="white"/>
</clipPath>
</defs>
</svg>
