<svg width="40" height="43" viewBox="0 0 40 43" fill="none" xmlns="http://www.w3.org/2000/svg">
<g clip-path="url(#clip0_2_622)">
<path d="M34.6729 5.15778C34.3387 2.38478 32.5568 0.406707 30.3852 0.406707C28.3805 0.406707 26.6729 2.14445 26.1717 4.64015H25.5777C25.2065 1.9411 23.4246 0 21.3086 0C19.1926 0 17.4107 1.9411 17.0394 4.64015H16.5012C16.1299 1.9411 14.348 0 12.232 0C10.116 0 8.2413 2.03353 7.92575 4.84351C4.17633 5.63843 1.48492 8.91058 1.48492 12.6819L0 34.9028C0 39.3581 3.63805 43 8.12993 43H30.4037C32.5754 43 34.5986 42.1681 36.1392 40.6337C37.6798 39.0993 38.5151 37.0843 38.5151 34.9583L40 12.7373C40 9.35426 37.8654 6.34093 34.6729 5.17627V5.15778ZM30.3852 3.21668C30.8678 3.21668 31.3875 3.78977 31.6845 4.64015H29.0858C29.3828 3.78977 29.884 3.21668 30.3852 3.21668ZM21.3086 2.80997C21.884 2.80997 22.4594 3.56793 22.7193 4.64015H19.9165C20.1578 3.58641 20.7332 2.80997 21.3271 2.80997H21.3086ZM12.2135 2.80997C12.7889 2.80997 13.3643 3.56793 13.6241 4.64015H10.8213C11.0626 3.58641 11.6381 2.80997 12.232 2.80997H12.2135ZM35.2668 34.7365V34.9028C35.2668 37.5834 33.0766 39.7463 30.3852 39.7463H8.12993C5.47564 39.7463 3.28538 37.6019 3.24826 34.9953L4.73318 12.8667V12.7003C4.73318 10.5189 6.18097 8.65176 8.25986 8.06019C8.94664 10.0937 10.4872 11.3878 12.2135 11.3878C12.993 11.3878 13.6241 10.7592 13.6241 9.9828C13.6241 9.20636 12.993 8.57782 12.2135 8.57782C11.8794 8.57782 11.5267 8.30052 11.2483 7.85684H17.2807C17.9304 10.0198 19.5081 11.4063 21.3086 11.4063C22.0882 11.4063 22.7193 10.7777 22.7193 10.0013C22.7193 9.22485 22.0882 8.5963 21.3086 8.5963C20.9745 8.5963 20.6218 8.319 20.3434 7.87532H26.2274C26.7842 10.2416 28.4362 11.8315 30.3852 11.8315C31.1647 11.8315 31.7958 11.2029 31.7958 10.4265C31.7958 9.65004 31.1647 9.0215 30.3852 9.0215C29.9582 9.0215 29.5128 8.57782 29.2158 7.89381H31.8886C34.5429 7.89381 36.7332 10.0383 36.7703 12.6449L35.2854 34.7549L35.2668 34.7365Z" fill="#F7F3E9"/>
<path d="M32.7796 15.0112L9.31791 14.5675C8.92812 14.5675 8.57545 14.6969 8.31559 14.9372C8.03717 15.1961 7.87012 15.5658 7.87012 15.9355C7.87012 16.712 8.48265 17.359 9.26223 17.359L32.7796 17.8027C33.5407 17.8027 34.1717 17.1926 34.1903 16.4162C34.1903 15.6397 33.5778 14.9927 32.7982 14.9927L32.7796 15.0112Z" fill="#F7F3E9"/>
<path d="M32.7796 20.3353L7.61024 19.8732C6.96059 19.9286 6.27381 20.4647 6.25525 21.2597C6.25525 21.6294 6.38518 21.9806 6.64504 22.2579C6.9049 22.5352 7.25757 22.6831 7.6288 22.6831L32.7425 23.1453C33.5035 23.1453 34.1346 22.5353 34.1532 21.7588C34.1532 21.3891 34.0232 21.0378 33.7634 20.7605C33.5035 20.4832 33.1508 20.3353 32.7796 20.3353Z" fill="#F7F3E9"/>
<path d="M29.5313 25.604L7.59167 25.1973C6.94202 25.2898 6.2738 25.7889 6.2738 26.5653C6.2738 26.9351 6.40373 27.2863 6.66359 27.5636C6.92346 27.8409 7.27612 27.9888 7.64735 27.9888L29.5128 28.3955C30.2738 28.3955 30.9049 27.7855 30.9235 27.009C30.9235 26.2326 30.3109 25.5855 29.5313 25.5855V25.604Z" fill="#F7F3E9"/>
</g>
<defs>
<clipPath id="clip0_2_622">
<rect width="40" height="43" fill="white"/>
</clipPath>
</defs>
</svg>
