<svg width="45" height="43" viewBox="0 0 45 43" fill="none" xmlns="http://www.w3.org/2000/svg">
<g clip-path="url(#clip0_2_611)">
<path d="M16.688 21.5193C16.9058 21.712 17.1803 21.818 17.4737 21.818C17.8145 21.818 18.1363 21.6735 18.3635 21.4133C18.7989 20.9218 18.7516 20.1508 18.2688 19.7172C18.0795 19.5437 13.6779 15.4577 14.8801 9.16474C16.0917 2.83327 19.7171 2.21651 23.1058 2.44779C23.4182 2.46707 23.7211 2.36106 23.9577 2.14905C24.1944 1.93704 24.3363 1.63829 24.3647 1.32027C24.4026 0.655324 23.9104 0.0867447 23.2572 0.0385601C17.1613 -0.375828 13.7631 2.38034 12.561 8.69253C11.0938 16.3635 16.4798 21.3073 16.707 21.5096L16.688 21.5193Z" fill="#F7F3E9"/>
<path d="M17.8997 26.7039C19.8023 26.2895 21.4777 24.9982 22.3864 23.2346C23.2951 21.4807 23.3898 19.3413 22.6514 17.5006C22.2444 16.4888 21.6291 15.6503 21.0423 14.8408C20.3513 13.8964 19.7076 13.0098 19.5372 12.0365C19.3006 10.6199 20.2377 9.02014 21.6859 8.3841C23.0963 7.76734 24.9137 7.96971 26.4283 8.92377C27.7913 9.77182 28.9745 11.2174 29.8454 13.0869C31.7291 17.1248 31.7196 22.1071 29.8265 26.4148C28.7758 28.7951 27.2707 30.7225 25.4722 31.9946C23.6737 33.2667 21.2978 34.0858 18.2026 34.5002C14.0187 35.0688 10.753 34.5002 8.49074 32.833C7.36432 32.0042 6.67332 30.9538 6.60706 29.9612C6.5692 29.4504 6.76798 28.8819 7.12767 28.4771C7.30752 28.2747 7.60096 28.0434 7.98905 28.0338C8.67058 28.0338 9.36158 28.6506 10.1283 29.3252C10.3176 29.489 10.5069 29.6625 10.6962 29.8166C13.3372 32.0042 17.0193 32.833 20.3134 31.9657C23.6075 31.0984 26.4377 28.5542 27.7061 25.3355C27.8197 25.0367 27.8197 24.7091 27.6967 24.4103C27.5736 24.1116 27.337 23.8899 27.0435 23.7647C26.4377 23.5237 25.7467 23.8225 25.5101 24.4392C24.5257 26.9545 22.3012 28.9493 19.7265 29.6239C17.1424 30.3081 14.2648 29.6625 12.1918 27.9471C12.0214 27.8025 11.8511 27.6483 11.6617 27.4845C10.7057 26.6365 9.5225 25.6053 7.93226 25.6246C6.97622 25.6439 6.07698 26.0775 5.37652 26.8485C4.5814 27.7351 4.15544 28.959 4.23116 30.125C4.39208 32.4572 6.08644 34.0376 7.08034 34.77C9.18173 36.3216 11.9079 37.1022 15.2019 37.1022C16.2337 37.1022 17.3412 37.0251 18.4865 36.8709C21.9604 36.3987 24.6771 35.4446 26.7974 33.9509C28.9556 32.4283 30.7446 30.1539 31.9657 27.3689C34.1428 22.4348 34.1428 16.7008 31.9657 12.0269C30.8961 9.73327 29.4005 7.9408 27.6493 6.84219C25.4817 5.49302 22.8313 5.22319 20.7299 6.14833C18.2877 7.21803 16.7543 9.91638 17.1803 12.422C17.4358 13.9543 18.2877 15.1203 19.1113 16.2478C19.6413 16.9706 20.143 17.6645 20.4365 18.3872C20.9098 19.5533 20.8435 20.9699 20.2661 22.0782C19.6887 23.1961 18.5812 24.0441 17.3696 24.314C14.8328 24.8729 12.4001 22.9841 11.2169 20.9988C9.797 18.6282 9.41838 15.6696 9.15334 12.8364C9.08708 12.1714 8.5286 11.6896 7.866 11.757C7.21286 11.8245 6.73958 12.4123 6.80584 13.0677C7.09928 16.1804 7.52523 19.4473 9.21013 22.2517C10.8193 24.9307 14.2175 27.4556 17.8807 26.6654L17.8997 26.7039Z" fill="#F7F3E9"/>
<path d="M26.8164 19.4569C26.8353 20.1026 27.3654 20.6327 27.9996 20.6327H28.028C28.6811 20.6134 29.2018 20.0641 29.1828 19.3991C29.0976 15.978 27.4601 12.6918 24.8002 10.6102C24.5541 10.4175 24.2417 10.3308 23.9294 10.3693C23.617 10.4079 23.333 10.5717 23.1437 10.8319C22.7461 11.3619 22.8408 12.1136 23.3614 12.5184C25.4344 14.1374 26.7596 16.7972 26.8259 19.4569H26.8164Z" fill="#F7F3E9"/>
<path d="M27.5831 2.72728C27.6588 2.77547 34.9758 7.6903 36.0928 12.1522C37.2381 16.7008 37.1529 23.0901 36.8216 26.0487C36.7838 26.3667 36.8784 26.6847 37.0772 26.9353C37.276 27.1858 37.5599 27.3496 37.8723 27.3786C37.9196 27.3786 37.9575 27.3786 38.0048 27.3786C38.6106 27.3786 39.1123 26.916 39.1786 26.3089C39.4247 24.0538 39.7655 17.0189 38.3835 11.5451C37.0393 6.19658 29.2112 0.925174 28.8799 0.703525C28.3309 0.346958 27.602 0.501149 27.2423 1.05045C27.0719 1.32029 27.0057 1.63831 27.0719 1.95633C27.1382 2.27434 27.318 2.54418 27.5831 2.71764V2.72728Z" fill="#F7F3E9"/>
<path d="M40.5984 8.99124C40.8066 9.38636 41.2042 9.62728 41.6396 9.62728C41.8289 9.62728 42.0277 9.5791 42.1981 9.48273C42.4726 9.32854 42.6809 9.07798 42.7755 8.7696C42.8702 8.46121 42.8323 8.13356 42.6903 7.85409C40.8256 4.29806 39.0933 2.69833 39.0176 2.63087C38.5254 2.18757 37.7776 2.23575 37.3517 2.72724C36.9162 3.21872 36.9636 3.98004 37.4463 4.42334C37.5126 4.48116 38.9892 5.88815 40.6079 8.98161L40.5984 8.99124Z" fill="#F7F3E9"/>
<path d="M35.9129 30.3852C35.345 30.0575 34.6256 30.2696 34.3038 30.8478C32.3065 34.4713 28.9935 37.372 24.98 39.0199C21.1653 40.5811 16.8584 40.9858 12.5231 40.186C10.1946 39.7619 8.29197 39.0584 6.7112 38.0562C4.91271 36.9094 3.55912 35.3289 2.88705 33.6039C2.21498 31.8693 2.19605 29.8648 2.83972 28.1205C3.48339 26.3762 4.78019 24.8729 6.4083 24.0055C6.9857 23.6972 7.21288 22.9648 6.90998 22.3769C6.60708 21.7891 5.88768 21.5578 5.31027 21.8661C3.17102 23.0033 1.46719 24.9789 0.624745 27.2725C-0.217703 29.5757 -0.189306 32.1969 0.691005 34.4809C1.54292 36.6878 3.23728 38.6826 5.46172 40.0992C7.29807 41.2749 9.47519 42.0748 12.1067 42.5566C13.678 42.8458 15.2777 42.9903 16.8395 42.9903C20.0105 42.9903 23.049 42.4025 25.8698 41.246C30.3849 39.3957 34.1144 36.1192 36.3767 32.0138C36.6986 31.4356 36.4903 30.7032 35.9224 30.3756L35.9129 30.3852Z" fill="#F7F3E9"/>
<path d="M44.9716 18.7631C44.9337 18.1077 44.4036 17.6066 43.7221 17.6259C43.069 17.6645 42.5673 18.233 42.6052 18.898C42.6052 19.0136 43.211 31.0502 36.2631 37.5262C36.0265 37.7478 35.894 38.0369 35.8845 38.3646C35.875 38.6826 35.9792 38.991 36.1969 39.2319C36.4241 39.4825 36.7364 39.627 37.0677 39.627C37.3612 39.627 37.6451 39.5114 37.8628 39.309C45.6247 32.0717 45 19.3124 44.9716 18.7727V18.7631Z" fill="#F7F3E9"/>
</g>
<defs>
<clipPath id="clip0_2_611">
<rect width="45" height="43" fill="white"/>
</clipPath>
</defs>
</svg>
