<svg width="37" height="26" viewBox="0 0 37 26" fill="none" xmlns="http://www.w3.org/2000/svg">
<path d="M36.2265 4.06021C35.8001 2.4612 34.5482 1.20461 32.9553 0.776576C30.071 2.32458e-07 18.5 0 18.5 0C18.5 0 6.92914 2.32458e-07 4.04479 0.776576C2.45186 1.20461 1.20004 2.4612 0.773628 4.06021C2.31576e-07 6.95555 0 13 0 13C0 13 2.31576e-07 19.0445 0.773628 21.9398C1.20004 23.5388 2.45186 24.7954 4.04479 25.2234C6.92914 26 18.5 26 18.5 26C18.5 26 30.071 26 32.9553 25.2234C34.5482 24.7954 35.8001 23.5388 36.2265 21.9398C37.0001 19.0445 37.0001 13 37.0001 13C37.0001 13 36.997 6.95555 36.2265 4.06021Z" fill="#F7F3E9"/>
<path d="M14.7965 18.571L24.409 13.0005L14.7965 7.42993V18.571Z" fill="#010302"/>
</svg>
