<svg width="31" height="31" viewBox="0 0 31 31" fill="none" xmlns="http://www.w3.org/2000/svg">
<path d="M15.2625 0C6.82917 0 0 6.82917 0 15.2625C0 21.725 4.01042 27.2479 9.69375 29.4708C9.55625 28.2563 9.44167 26.4229 9.73958 25.0938C10.0146 23.9021 11.5271 17.5083 11.5271 17.5083C11.5271 17.5083 11.0688 16.5917 11.0688 15.2396C11.0688 13.1083 12.3063 11.5271 13.8188 11.5271C15.125 11.5271 15.7437 12.5125 15.7437 13.6812C15.7437 14.9875 14.9188 16.9583 14.4833 18.7688C14.1167 20.2812 15.2396 21.5188 16.7521 21.5188C19.4562 21.5188 21.5417 18.6542 21.5417 14.5292C21.5417 10.8854 18.9062 8.31875 15.1708 8.31875C10.8396 8.31875 8.27292 11.5729 8.27292 14.9417C8.27292 16.2479 8.77708 17.6688 9.41875 18.425C9.53333 18.5854 9.55625 18.7 9.53333 18.8604C9.41875 19.3417 9.16667 20.3729 9.12083 20.5792C9.05208 20.8542 8.89167 20.9229 8.61667 20.7854C6.71458 19.8917 5.52292 17.1188 5.52292 14.8729C5.52292 10.0604 9.02917 5.6375 15.6062 5.6375C20.9 5.6375 25.0021 9.41875 25.0021 14.4375C25.0021 19.6854 21.6792 23.925 17.0958 23.925C15.5604 23.925 14.0938 23.1229 13.5896 22.1833C13.5896 22.1833 12.8333 25.0938 12.65 25.8042C12.3063 27.1333 11.3667 28.7833 10.7479 29.8146C12.1688 30.25 13.6812 30.5021 15.2625 30.5021C23.6958 30.5021 30.525 23.6729 30.525 15.2396C30.525 6.82917 23.6958 0 15.2625 0Z" fill="#F7F3E9"/>
</svg>
