<svg width="31" height="31" viewBox="0 0 31 31" fill="none" xmlns="http://www.w3.org/2000/svg">
<g clip-path="url(#clip0_28_16)">
<path d="M15.5 2.99529C19.5728 2.99529 20.0551 3.01085 21.6637 3.08424C23.1508 3.15211 23.9584 3.40053 24.4959 3.60942C25.1584 3.85394 25.7577 4.24383 26.2497 4.75042C26.7563 5.24243 27.1462 5.84172 27.3907 6.50423C27.5996 7.0417 27.8481 7.84934 27.9159 9.33649C27.9893 10.9449 28.0049 11.4273 28.0049 15.5002C28.0049 19.573 27.9893 20.0553 27.9159 21.6638C27.8481 23.151 27.5996 23.9586 27.3907 24.4961C27.137 25.1539 26.7483 25.7513 26.2498 26.2499C25.7512 26.7485 25.1538 27.1371 24.4959 27.3909C23.9585 27.5998 23.1508 27.8483 21.6637 27.9161C20.0556 27.9895 19.5732 28.005 15.5 28.005C11.4268 28.005 10.9446 27.9895 9.33634 27.9161C7.84918 27.8482 7.04161 27.5997 6.50407 27.3909C5.84156 27.1464 5.24228 26.7565 4.75027 26.2499C4.24368 25.7579 3.85379 25.1586 3.60927 24.4961C3.40038 23.9586 3.1519 23.151 3.08408 21.6638C3.0107 20.0555 2.99514 19.573 2.99514 15.5002C2.99514 11.4273 3.0107 10.945 3.08408 9.33649C3.15196 7.84934 3.40038 7.04176 3.60927 6.50423C3.85381 5.84168 4.24375 5.24237 4.75039 4.75036C5.2424 4.24377 5.84169 3.85388 6.5042 3.60936C7.04167 3.40047 7.8493 3.15199 9.33646 3.08417C10.9449 3.01079 11.4273 2.99523 15.5001 2.99523M15.5001 0.246948C11.3576 0.246948 10.838 0.264507 9.21137 0.338737C7.5878 0.412847 6.47907 0.670655 5.50886 1.04774C4.49111 1.43074 3.56914 2.03113 2.80726 2.80705C2.03117 3.56888 1.43061 4.49085 1.04747 5.50865C0.670686 6.47892 0.412877 7.58765 0.339071 9.21122C0.264537 10.8379 0.246979 11.3575 0.246979 15.5C0.246979 19.6425 0.264537 20.1621 0.339071 21.7887C0.41318 23.4123 0.670988 24.521 1.04807 25.4912C1.43107 26.509 2.03147 27.431 2.80738 28.1928C3.56926 28.9688 4.49123 29.5692 5.50899 29.9522C6.47925 30.3292 7.58798 30.587 9.21149 30.6612C10.8384 30.7354 11.3578 30.7529 15.5002 30.7529C19.6427 30.7529 20.1624 30.7354 21.789 30.6612C23.4126 30.587 24.5213 30.3292 25.4915 29.9522C26.5047 29.5603 27.4249 28.961 28.1931 28.1929C28.9613 27.4247 29.5605 26.5045 29.9524 25.4912C30.3295 24.521 30.5873 23.4122 30.6614 21.7887C30.7357 20.1618 30.7532 19.6424 30.7532 15.5C30.7532 11.3575 30.7357 10.8379 30.6614 9.21122C30.5873 7.58765 30.3295 6.47892 29.9524 5.50871C29.5694 4.49096 28.969 3.56899 28.1931 2.80711C27.4312 2.03104 26.5092 1.43052 25.4913 1.04744C24.5211 0.670655 23.4123 0.412847 21.7888 0.33904C20.1621 0.264507 19.6425 0.246948 15.5 0.246948H15.5001Z" fill="#F7F3E9"/>
<path d="M15.5 7.66736C13.9509 7.66736 12.4365 8.12674 11.1484 8.9874C9.86035 9.84806 8.85642 11.0714 8.26359 12.5026C7.67075 13.9338 7.51564 15.5087 7.81786 17.0281C8.12009 18.5475 8.86608 19.9431 9.96149 21.0385C11.0569 22.1339 12.4526 22.8799 13.9719 23.1821C15.4913 23.4844 17.0662 23.3293 18.4974 22.7364C19.9287 22.1436 21.152 21.1397 22.0126 19.8516C22.8733 18.5635 23.3327 17.0492 23.3327 15.5C23.3327 13.4227 22.5074 11.4304 21.0385 9.96149C19.5696 8.49258 17.5774 7.66736 15.5 7.66736ZM15.5 20.5843C14.4944 20.5843 13.5114 20.2861 12.6753 19.7274C11.8392 19.1687 11.1876 18.3747 10.8028 17.4456C10.418 16.5166 10.3173 15.4943 10.5135 14.5081C10.7097 13.5218 11.1939 12.6159 11.9049 11.9048C12.616 11.1938 13.5219 10.7096 14.5082 10.5134C15.4944 10.3172 16.5167 10.4179 17.4458 10.8027C18.3748 11.1875 19.1688 11.8392 19.7275 12.6753C20.2862 13.5114 20.5844 14.4944 20.5844 15.5C20.5844 16.8485 20.0487 18.1417 19.0952 19.0952C18.1417 20.0486 16.8485 20.5843 15.5 20.5843Z" fill="#F7F3E9"/>
<path d="M23.6421 9.18825C24.653 9.18825 25.4724 8.36878 25.4724 7.35792C25.4724 6.34706 24.653 5.52759 23.6421 5.52759C22.6312 5.52759 21.8118 6.34706 21.8118 7.35792C21.8118 8.36878 22.6312 9.18825 23.6421 9.18825Z" fill="#F7F3E9"/>
</g>
<defs>
<clipPath id="clip0_28_16">
<rect width="31" height="31" fill="white"/>
</clipPath>
</defs>
</svg>
