<?xml version="1.0" encoding="UTF-8"?>
<svg id="Calque_1" xmlns="http://www.w3.org/2000/svg" width="200mm" height="200mm" version="1.1" viewBox="0 0 566.93 566.93">
  <!-- Generator: Adobe Illustrator 29.8.2, SVG Export Plug-In . SVG Version: 2.1.1 Build 3)  -->
  <path d="M344.91,313.48c1.31-2.25,1.99-4.81,1.99-7.41v-21.58c0-7.55-5.43-13.83-12.61-15.15v-.42h-3.98c-.62-.06-1.25-.1-1.88-.1l-.06.1h-84.59c-10.2,0-18.47,8.27-18.47,18.47v28.51c0,1.63,1.07,3.07,2.63,3.54l35.7,10.76c1.96.59,4.02-.52,4.6-2.48,1.59-5.4,6.59-9.34,12.51-9.34.2,0,.4,0,.6.01,8.99.4,14.01,10.62,9.14,18.18l-3.36,5.21c-.26.41-.43.85-.52,1.3-.27,1.4.29,2.9,1.55,3.75l6.33,4.32c5.06,3.45,8.08,9.18,8.06,15.3l-.04,20.6c0,.12,0,.24,0,.36-.27,8.75-6.96,16.12-15.67,16.96-10.38,1-19.12-7.14-19.12-17.32h0v-28.4c0-1.54-.95-2.92-2.4-3.46l-21.38-8c-1.66-.62-3.41-.94-5.18-.94h-10.53c-2.03,0-3.69,1.64-3.69,3.68l-.28,69.87c0,7.04,4.93,12.93,11.52,14.42,1.05.24,2.14.36,3.26.36h92.81c8.16,0,14.78-6.62,14.78-14.78v-1.67h.29v-61.33c-.02-4.06-1.68-7.73-4.35-10.39-2.65-2.63-6.28-4.27-10.29-4.3h-.04c-1.75-.04-2.77-2-1.89-3.51l14.57-25.12Z" fill="#000000"/>
  <path d="M416.74,386.18c-2.6,2.23-1.02,6.49,2.41,6.49h57.51c2.04,0,3.69,1.65,3.69,3.69v34.17c0,2.04-1.65,3.69-3.69,3.69h-117.75v-41.56l-.12-4.62c-.16-5.7,2.33-11.16,6.74-14.78l30.65-25.19h.01s20.24-16.65,20.24-16.65c3.54-2.91,4.05-8.15,1.14-11.69-1.64-1.99-4.02-3.03-6.42-3.03-1.86,0-3.72.62-5.27,1.89l-.05.04-41.25,33.89c-2.41,1.98-6.04.27-6.04-2.85v-62.29c0-10.2,8.27-18.47,18.47-18.47h84.87c10.2,0,18.47,8.27,18.47,18.47v37.26c0,4.3-1.88,8.39-5.14,11.2l-58.47,50.32Z" fill="#000000"/>
  <path d="M88.64,396.68v34.11c0,2.04,1.65,3.69,3.69,3.69h118.21v-38.18c0-1.75-1.24-3.27-2.95-3.62-6.74-1.37-11.82-7.33-11.82-14.48v-105.59c0-2.04-1.65-3.69-3.69-3.69h-42.26c0,19.98-16.19,36.17-36.17,36.17v22.65c0,2.04,1.65,3.69,3.69,3.69h25.09c4.08,0,7.39,3.31,7.39,7.39v39.39c0,8.16-6.62,14.78-14.78,14.78h0c-9.39,0-17.01-7.62-17.01-17.01h-25.69c-2.04,0-3.69,1.65-3.69,3.69v17.01Z" fill="#000000"/>
  <rect x="88.64" y="456.82" width="119.44" height="26.6" fill="#000000"/>
  <rect x="314.97" y="456.82" width="119.44" height="26.6" fill="#000000"/>
  <circle cx="238.25" cy="470.82" r="14" fill="#000000"/>
  <circle cx="282.41" cy="470.82" r="14" fill="#000000"/>
  <path d="M325.1,82.88h-84.87c-10.2,0-18.47,8.27-18.47,18.47v147.09h47.47v-54.74c0-6.12,4.96-11.08,11.08-11.08h4.7c6.12,0,11.08,4.96,11.08,11.08v54.74h47.47V101.35c0-10.2-8.27-18.47-18.47-18.47ZM283.77,145.34c-8.41.66-15.38-6.3-14.72-14.72.52-6.62,5.88-11.98,12.5-12.5,8.41-.66,15.38,6.3,14.72,14.72-.52,6.62-5.88,11.98-12.5,12.5Z" fill="#000000"/>
  <path d="M357.52,230.07c0,10.2,8.27,18.47,18.47,18.47h85.42c1.04,0,2.07-.09,3.06-.26,8.51,0,15.41-6.9,15.41-15.4v-59.17c0-8.16-6.62-14.78-14.78-14.78-1.49,0-2.68-1.29-2.52-2.82.14-1.32,1.33-2.25,2.66-2.26,4.02-.04,7.64-1.67,10.29-4.3,2.67-2.66,4.33-6.33,4.35-10.39v-39.94h-.29v-1.68c0-8.16-6.61-14.78-14.78-14.78h-92.81c-8.16,0-14.78,6.62-14.78,14.78l.29,132.52ZM434.42,122.13c0,8.51-6.89,15.4-15.4,15.4s-15.4-6.89-15.4-15.4,6.89-15.4,15.4-15.4,15.4,6.89,15.4,15.4ZM435.82,194.2c0,9.61-7.79,17.4-17.4,17.4s-17.4-7.79-17.4-17.4,7.79-17.4,17.4-17.4,17.4,7.79,17.4,17.4Z" fill="#000000"/>
  <path d="M104.65,248.54l99.74.05c2.04,0,3.7-1.65,3.7-3.69v-34.17c0-2.04-1.65-3.69-3.69-3.69h-57.48c-8.16,0-14.78-6.62-14.78-14.78v-105.85c0-2.04-1.65-3.69-3.69-3.69h-38.57c-2.04,0-3.69,1.65-3.69,3.69v143.66c0,10.2,8.26,18.46,18.46,18.47Z" fill="#000000"/>
  <circle cx="175.23" cy="166.48" r="21.15" fill="#000000"/>
</svg>