<svg width="200" height="51" viewBox="0 0 200 51" fill="none" xmlns="http://www.w3.org/2000/svg">
<g clip-path="url(#clip0_2_720)">
<path d="M167.285 10.7834C167.601 10.2405 167.767 9.62429 167.767 8.99691V3.7988C167.767 1.98007 166.454 0.467246 164.721 0.15022V0.0501069H163.76C163.611 0.0345337 163.459 0.0256348 163.306 0.0256348L163.293 0.0501069H142.86C140.396 0.0501069 138.399 2.04236 138.399 4.49959V11.3685C138.399 11.7612 138.656 12.1071 139.033 12.2206L147.657 14.8135C148.13 14.9559 148.629 14.6889 148.769 14.2162C149.154 12.9147 150.362 11.9658 151.791 11.9658C151.839 11.9658 151.887 11.9658 151.934 11.9692C154.105 12.0671 155.317 14.5276 154.142 16.3497L153.331 17.6056C153.267 17.7034 153.226 17.8102 153.205 17.9181C153.139 18.2563 153.275 18.6167 153.579 18.8225L155.108 19.8626C156.329 20.6935 157.058 22.0739 157.055 23.5478L157.045 28.5101C157.045 28.539 157.045 28.5669 157.044 28.5969C156.978 30.7048 155.363 32.4813 153.258 32.6826C150.75 32.9229 148.64 30.9618 148.64 28.5101H148.639V21.6679C148.639 21.2964 148.409 20.9638 148.06 20.8348L142.895 18.9081C142.495 18.7591 142.072 18.6823 141.644 18.6823H139.1C138.608 18.6823 138.21 19.0783 138.208 19.5689L138.14 36.4002C138.14 38.0965 139.33 39.5159 140.923 39.873C141.176 39.9297 141.439 39.9598 141.709 39.9598H164.127C166.099 39.9598 167.698 38.3657 167.698 36.3991V35.9964H167.767V21.2208C167.762 20.2419 167.362 19.3575 166.716 18.7168C166.077 18.0828 165.2 17.689 164.23 17.6801H164.221C163.799 17.6712 163.553 17.1984 163.765 16.8347L167.285 10.7834Z" fill="#F7F3E9"/>
<path d="M184.635 28.3843C184.007 28.9227 184.39 29.9483 185.217 29.9483H199.108C199.601 29.9483 200 30.3465 200 30.8382V39.0697C200 39.5614 199.601 39.9596 199.108 39.9596H170.667V29.9483L170.637 28.8359C170.599 27.4632 171.199 26.1484 172.264 25.2763L179.666 19.2083L179.67 19.205L184.558 15.1971C185.414 14.4952 185.537 13.2338 184.834 12.3806C184.437 11.9 183.862 11.6509 183.283 11.6509C182.835 11.6509 182.384 11.7999 182.011 12.1058L181.998 12.1158L172.035 20.2807C171.453 20.7579 170.576 20.3452 170.576 19.5932V4.5862C170.576 2.12898 172.574 0.136719 175.038 0.136719H195.539C198.002 0.136719 200 2.12898 200 4.5862V13.563C200 14.5998 199.547 15.5853 198.759 16.2605L184.635 28.3832V28.3843Z" fill="#F7F3E9"/>
<path d="M105.385 30.8516V39.0686C105.385 39.5603 105.784 39.9585 106.277 39.9585H134.83V30.7614C134.83 30.3387 134.532 29.975 134.116 29.8905C132.486 29.5612 131.261 28.124 131.261 26.4021V0.96436C131.261 0.472692 130.861 0.0744629 130.368 0.0744629H120.16C120.16 4.88658 116.248 8.78767 111.423 8.78767V14.2438C111.423 14.7355 111.823 15.1337 112.316 15.1337H118.375C119.361 15.1337 120.16 15.9302 120.16 16.9135V26.4032C120.16 28.3687 118.561 29.9628 116.591 29.9628C114.321 29.9628 112.482 28.1285 112.482 25.8648H106.277C105.784 25.8648 105.385 26.263 105.385 26.7547V30.8527V30.8516Z" fill="#F7F3E9"/>
<path d="M79.8403 44.3826H50.9888V50.7898H79.8403V44.3826Z" fill="#F7F3E9"/>
<path d="M134.51 44.3826H105.658V50.7898H134.51V44.3826Z" fill="#F7F3E9"/>
<path d="M86.9985 51.001C88.8662 51.001 90.3802 49.491 90.3802 47.6283C90.3802 45.7656 88.8662 44.2556 86.9985 44.2556C85.1309 44.2556 83.6168 45.7656 83.6168 47.6283C83.6168 49.491 85.1309 51.001 86.9985 51.001Z" fill="#F7F3E9"/>
<path d="M97.6644 51.001C99.5321 51.001 101.046 49.491 101.046 47.6283C101.046 45.7656 99.5321 44.2556 97.6644 44.2556C95.7968 44.2556 94.2827 45.7656 94.2827 47.6283C94.2827 49.491 95.7968 51.001 97.6644 51.001Z" fill="#F7F3E9"/>
<path d="M57.7087 0.0744629H37.2077C34.7439 0.0744629 32.7463 2.06672 32.7463 4.52395V39.9596H44.2131V26.7714C44.2131 25.2975 45.4121 24.1017 46.8899 24.1017H48.0265C49.5043 24.1017 50.7033 25.2975 50.7033 26.7714V39.9596H62.17V4.52395C62.17 2.06672 60.1725 0.0744629 57.7087 0.0744629ZM47.7253 15.1226C45.6932 15.2828 44.0101 13.6042 44.1707 11.5775C44.2968 9.98347 45.5917 8.692 47.19 8.56631C49.2221 8.40612 50.9051 10.0847 50.7445 12.1114C50.6185 13.7055 49.3236 14.9969 47.7253 15.1226Z" fill="#F7F3E9"/>
<path d="M65.5406 35.5103C65.5406 37.9675 67.5382 39.9598 70.002 39.9598H90.6357C90.8878 39.9598 91.1354 39.9375 91.3752 39.8975C93.4307 39.8975 95.097 38.2356 95.097 36.1866V21.9327C95.097 19.966 93.4988 18.3731 91.528 18.3731C91.1677 18.3731 90.8799 18.0627 90.919 17.6945C90.9524 17.3775 91.2402 17.1528 91.5603 17.1506C92.5306 17.1417 93.4062 16.7479 94.0453 16.1139C94.6911 15.4731 95.0915 14.5888 95.097 13.6099V3.98901H95.0268V3.58522C95.0268 1.61966 93.4296 0.0256348 91.4577 0.0256348H69.0394C67.0686 0.0256348 65.4703 1.61966 65.4703 3.58522L65.5406 35.5103ZM84.1143 9.50637C84.1143 11.5554 82.4491 13.2161 80.3947 13.2161C78.3402 13.2161 76.675 11.5554 76.675 9.50637C76.675 7.45739 78.3402 5.79662 80.3947 5.79662C82.4491 5.79662 84.1143 7.45739 84.1143 9.50637ZM84.4523 26.8683C84.4523 29.1831 82.5707 31.0597 80.2486 31.0597C77.9264 31.0597 76.046 29.1831 76.046 26.8683C76.046 24.5534 77.9275 22.6769 80.2486 22.6769C82.5696 22.6769 84.4523 24.5534 84.4523 26.8683Z" fill="#F7F3E9"/>
<path d="M4.45912 39.9475L28.5526 39.9586C29.0456 39.9586 29.4449 39.5604 29.4449 39.0687V30.8372C29.4449 30.3455 29.0456 29.9473 28.5526 29.9473H14.67C12.6992 29.9473 11.1009 28.3532 11.1009 26.3877V0.889897C11.1009 0.398229 10.7017 0 10.2087 0H0.89227C0.399291 0 0 0.398229 0 0.889897V35.498C0 37.9541 1.99645 39.9464 4.45912 39.9475Z" fill="#F7F3E9"/>
<path d="M21.3252 25.1106C24.1661 25.1106 26.4691 22.8137 26.4691 19.9804C26.4691 17.147 24.1661 14.8501 21.3252 14.8501C18.4843 14.8501 16.1813 17.147 16.1813 19.9804C16.1813 22.8137 18.4843 25.1106 21.3252 25.1106Z" fill="#F7F3E9"/>
</g>
<defs>
<clipPath id="clip0_2_720">
<rect width="200" height="51" fill="white"/>
</clipPath>
</defs>
</svg>
